  0
SECTION
  2
HEADER
  9
$ACADVER
  1
AC1014
  9
$HANDSEED
  5
FFFF
  9
$MEASUREMENT
 70
     1
  0
ENDSEC
  0
SECTION
  2
TABLES
  0
TABLE
  2
VPORT
  5
8
330
0
100
AcDbSymbolTable
 70
     4
  0
VPORT
  5
2E
330
8
100
AcDbSymbolTableRecord
100
AcDbViewportTableRecord
  2
*ACTIVE
 70
     0
 10
0.0
 20
0.0
 11
1.0
 21
1.0
 12
210.0
 22
148.5
 13
0.0
 23
0.0
 14
10.0
 24
10.0
 15
10.0
 25
10.0
 16
0.0
 26
0.0
 36
1.0
 17
0.0
 27
0.0
 37
0.0
 40
341.0
 41
1.24
 42
50.0
 43
0.0
 44
0.0
 50
0.0
 51
0.0
 71
     0
 72
   100
 73
     1
 74
     3
 75
     0
 76
     0
 77
     0
 78
     0
  0
ENDTAB
  0
TABLE
  2
LTYPE
  5
5
330
0
100
AcDbSymbolTable
 70
     1
  0
LTYPE
  5
14
330
5
100
AcDbSymbolTableRecord
100
AcDbLinetypeTableRecord
  2
BYBLOCK
 70
     0
  3

 72
    65
 73
     0
 40
0.0
  0
LTYPE
  5
15
330
5
100
AcDbSymbolTableRecord
100
AcDbLinetypeTableRecord
  2
BYLAYER
 70
     0
  3

 72
    65
 73
     0
 40
0.0
  0
LTYPE
  5
16
330
5
100
AcDbSymbolTableRecord
100
AcDbLinetypeTableRecord
  2
CONTINUOUS
 70
     0
  3
Solid line
 72
    65
 73
     0
 40
0.0
  0
ENDTAB
  0
TABLE
  2
LAYER
  5
2
100
AcDbSymbolTable
 70
1
  0
LAYER
  5
50
100
AcDbSymbolTableRecord
100
AcDbLayerTableRecord
  2
0
 70
0
  6
CONTINUOUS
  0
ENDTAB
  0
TABLE
  2
STYLE
  5
3
330
0
100
AcDbSymbolTable
 70
     1
  0
STYLE
  5
11
330
3
100
AcDbSymbolTableRecord
100
AcDbTextStyleTableRecord
  2
STANDARD
 70
     0
 40
0.0
 41
1.0
 50
0.0
 71
     0
 42
2.5
  3
txt
  4

  0
ENDTAB
  0
TABLE
  2
VIEW
  5
6
330
0
100
AcDbSymbolTable
 70
     0
  0
ENDTAB
  0
TABLE
  2
UCS
  5
7
330
0
100
AcDbSymbolTable
 70
     0
  0
ENDTAB
  0
TABLE
  2
APPID
  5
9
330
0
100
AcDbSymbolTable
 70
     2
  0
APPID
  5
12
330
9
100
AcDbSymbolTableRecord
100
AcDbRegAppTableRecord
  2
ACAD
 70
     0
  0
ENDTAB
  0
TABLE
  2
DIMSTYLE
  5
A
330
0
100
AcDbSymbolTable
 70
     1
  0
DIMSTYLE
105
27
330
A
100
AcDbSymbolTableRecord
100
AcDbDimStyleTableRecord
  2
ISO-25
 70
     0
  3

  4

  5

  6

  7

 40
1.0
 41
2.5
 42
0.625
 43
3.75
 44
1.25
 45
0.0
 46
0.0
 47
0.0
 48
0.0
140
2.5
141
2.5
142
0.0
143
0.03937007874016
144
1.0
145
0.0
146
1.0
147
0.625
 71
     0
 72
     0
 73
     0
 74
     0
 75
     0
 76
     0
 77
     1
 78
     8
170
     0
171
     3
172
     1
173
     0
174
     0
175
     0
176
     0
177
     0
178
     0
270
     2
271
     2
272
     2
273
     2
274
     3
340
11
275
     0
280
     0
281
     0
282
     0
283
     0
284
     8
285
     0
286
     0
287
     3
288
     0
  0
ENDTAB
  0
TABLE
  2
BLOCK_RECORD
  5
1
330
0
100
AcDbSymbolTable
 70
     1
  0
BLOCK_RECORD
  5
1F
330
1
100
AcDbSymbolTableRecord
100
AcDbBlockTableRecord
  2
*MODEL_SPACE
  0
BLOCK_RECORD
  5
1B
330
1
100
AcDbSymbolTableRecord
100
AcDbBlockTableRecord
  2
*PAPER_SPACE
  0
ENDTAB
  0
ENDSEC
  0
SECTION
  2
BLOCKS
  0
BLOCK
  5
20
330
1F
100
AcDbEntity
  8
0
100
AcDbBlockBegin
  2
*MODEL_SPACE
 70
     0
 10
0.0
 20
0.0
 30
0.0
  3
*MODEL_SPACE
  1

  0
ENDBLK
  5
21
330
1F
100
AcDbEntity
  8
0
100
AcDbBlockEnd
  0
BLOCK
  5
1C
330
1B
100
AcDbEntity
 67
     1
  8
0
100
AcDbBlockBegin
  2
*PAPER_SPACE
  1

  0
ENDBLK
  5
1D
330
1B
100
AcDbEntity
 67
     1
  8
0
100
AcDbBlockEnd
  0
ENDSEC
  0
SECTION
  2
ENTITIES
  0
SPLINE
  5
100
100
AcDbEntity
  8
0
 62
7
100
AcDbSpline
 70
8
 71
3
 72
8
 73
4
 74
0
 40
0
 40
0
 40
0
 40
0
 40
1
 40
1
 40
1
 40
1
 10
86.800000
 20
64.748560
 30
0.0
 10
85.920000
 20
65.120616
 30
0.0
 10
84.300000
 20
66.392536
 30
0.0
 10
83.200000
 20
67.575048
 30
0.0
  0
SPLINE
  5
101
100
AcDbEntity
  8
0
 62
7
100
AcDbSpline
 70
8
 71
3
 72
8
 73
4
 74
0
 40
0
 40
0
 40
0
 40
0
 40
1
 40
1
 40
1
 40
1
 10
80.800000
 20
90.386224
 30
0.0
 10
80.123576
 20
125.325499
 30
0.0
 10
77.685904
 20
123.109693
 30
0.0
 10
116.800000
 20
123.109693
 30
0.0
  0
SPLINE
  5
102
100
AcDbEntity
  8
0
 62
7
100
AcDbSpline
 70
8
 71
3
 72
8
 73
4
 74
0
 40
0
 40
0
 40
0
 40
0
 40
1
 40
1
 40
1
 40
1
 10
116.800000
 20
123.109693
 30
0.0
 10
155.754376
 20
123.109693
 30
0.0
 10
152.967408
 20
125.479023
 30
0.0
 10
152.633840
 20
92.645680
 30
0.0
  0
LWPOLYLINE
  5
103
100
AcDbEntity
  8
0
 62
7
100
AcDbPolyline
 90
3
 70
0
 10
83.200000
 20
67.575048
 30
0.0
 10
81.200000
 20
69.725072
 30
0.0
 10
80.800000
 20
90.386224
 30
0.0
  0
SPLINE
  5
104
100
AcDbEntity
  8
0
 62
7
100
AcDbSpline
 70
8
 71
3
 72
8
 73
4
 74
0
 40
0
 40
0
 40
0
 40
0
 40
1
 40
1
 40
1
 40
1
 10
117.785448
 20
64.236040
 30
0.0
 10
101.623448
 20
64.145864
 30
0.0
 10
87.680000
 20
64.376496
 30
0.0
 10
86.800000
 20
64.748560
 30
0.0
  0
LWPOLYLINE
  5
105
100
AcDbEntity
  8
0
 62
7
100
AcDbPolyline
 90
5
 70
0
 10
152.633840
 20
92.645680
 30
0.0
 10
152.400000
 20
69.628408
 30
0.0
 10
149.785448
 20
67.014208
 30
0.0
 10
147.170888
 20
64.400000
 30
0.0
 10
117.785448
 20
64.236040
 30
0.0
  0
SPLINE
  5
106
100
AcDbEntity
  8
0
 62
7
100
AcDbSpline
 70
8
 71
3
 72
8
 73
4
 74
0
 40
0
 40
0
 40
0
 40
0
 40
1
 40
1
 40
1
 40
1
 10
145.600000
 20
67.001240
 30
0.0
 10
150.774488
 20
69.586192
 30
0.0
 10
151.197352
 20
71.548616
 30
0.0
 10
151.198760
 20
92.983808
 30
0.0
  0
SPLINE
  5
107
100
AcDbEntity
  8
0
 62
7
100
AcDbSpline
 70
8
 71
3
 72
8
 73
4
 74
0
 40
0
 40
0
 40
0
 40
0
 40
1
 40
1
 40
1
 40
1
 10
151.198760
 20
92.983808
 30
0.0
 10
151.200712
 20
122.888723
 30
0.0
 10
153.777912
 20
120.800000
 30
0.0
 10
116.877368
 20
120.800000
 30
0.0
  0
SPLINE
  5
108
100
AcDbEntity
  8
0
 62
7
100
AcDbSpline
 70
8
 71
3
 72
8
 73
4
 74
0
 40
0
 40
0
 40
0
 40
0
 40
1
 40
1
 40
1
 40
1
 10
116.877368
 20
120.800000
 30
0.0
 10
79.935199
 20
120.800000
 30
0.0
 10
82.908280
 20
122.981187
 30
0.0
 10
82.546048
 20
95.613000
 30
0.0
  0
SPLINE
  5
109
100
AcDbEntity
  8
0
 62
7
100
AcDbSpline
 70
8
 71
3
 72
8
 73
4
 74
0
 40
0
 40
0
 40
0
 40
0
 40
1
 40
1
 40
1
 40
1
 10
82.546048
 20
95.613000
 30
0.0
 10
82.120176
 20
63.436600
 30
0.0
 10
79.337992
 20
65.865368
 30
0.0
 10
116.800000
 20
65.710192
 30
0.0
  0
SPLINE
  5
10a
100
AcDbEntity
  8
0
 62
7
100
AcDbSpline
 70
8
 71
3
 72
8
 73
4
 74
0
 40
0
 40
0
 40
0
 40
0
 40
1
 40
1
 40
1
 40
1
 10
116.800000
 20
65.710192
 30
0.0
 10
140.087576
 20
65.613720
 30
0.0
 10
143.092104
 20
65.748432
 30
0.0
 10
145.600000
 20
67.001240
 30
0.0
  0
LWPOLYLINE
  5
10b
100
AcDbEntity
  8
0
 62
7
100
AcDbPolyline
 90
2
 70
0
 10
86.800000
 20
64.748560
 30
0.0
 10
86.800000
 20
64.748560
 30
0.0
  0
LWPOLYLINE
  5
10c
100
AcDbEntity
  8
0
 62
7
100
AcDbPolyline
 90
2
 70
0
 10
145.600000
 20
67.001240
 30
0.0
 10
145.600000
 20
67.001240
 30
0.0
  0
LWPOLYLINE
  5
10d
100
AcDbEntity
  8
0
 62
7
100
AcDbPolyline
 90
10
 70
0
 10
93.600000
 20
93.600000
 30
0.0
 10
93.600000
 20
112.824537
 30
0.0
 10
116.600000
 20
112.612268
 30
0.0
 10
139.600000
 20
112.400000
 30
0.0
 10
139.600000
 20
93.600000
 30
0.0
 10
139.600000
 20
74.800000
 30
0.0
 10
116.600000
 20
74.587728
 30
0.0
 10
93.600000
 20
74.375464
 30
0.0
 10
93.600000
 20
93.600000
 30
0.0
 10
93.600000
 20
93.600000
 30
0.0
  0
SPLINE
  5
10e
100
AcDbEntity
  8
0
 62
7
100
AcDbSpline
 70
8
 71
3
 72
8
 73
4
 74
0
 40
0
 40
0
 40
0
 40
0
 40
1
 40
1
 40
1
 40
1
 10
166.799176
 20
65.766776
 30
0.0
 10
166.552776
 20
66.775048
 30
0.0
 10
166.452168
 20
77.680000
 30
0.0
 10
166.575592
 20
90.000000
 30
0.0
  0
LWPOLYLINE
  5
10f
100
AcDbEntity
  8
0
 62
7
100
AcDbPolyline
 90
10
 70
0
 10
137.600000
 20
93.200000
 30
0.0
 10
137.600000
 20
110.400000
 30
0.0
 10
116.800000
 20
110.400000
 30
0.0
 10
96.000000
 20
110.400000
 30
0.0
 10
96.000000
 20
93.200000
 30
0.0
 10
96.000000
 20
76.000000
 30
0.0
 10
116.800000
 20
76.000000
 30
0.0
 10
137.600000
 20
76.000000
 30
0.0
 10
137.600000
 20
93.200000
 30
0.0
 10
137.600000
 20
93.200000
 30
0.0
  0
SPLINE
  5
110
100
AcDbEntity
  8
0
 62
7
100
AcDbSpline
 70
8
 71
3
 72
8
 73
4
 74
0
 40
0
 40
0
 40
0
 40
0
 40
1
 40
1
 40
1
 40
1
 10
188.800000
 20
112.636767
 30
0.0
 10
222.709608
 20
113.001708
 30
0.0
 10
221.600000
 20
113.507657
 30
0.0
 10
221.600000
 20
97.680976
 30
0.0
  0
SPLINE
  5
111
100
AcDbEntity
  8
0
 62
7
100
AcDbSpline
 70
8
 71
3
 72
8
 73
4
 74
0
 40
0
 40
0
 40
0
 40
0
 40
1
 40
1
 40
1
 40
1
 10
221.600000
 20
97.680976
 30
0.0
 10
221.600000
 20
81.887904
 30
0.0
 10
221.217952
 20
81.649808
 30
0.0
 10
195.827064
 20
81.619088
 30
0.0
  0
LWPOLYLINE
  5
112
100
AcDbEntity
  8
0
 62
7
100
AcDbPolyline
 90
3
 70
0
 10
166.575592
 20
90.000000
 30
0.0
 10
166.800000
 20
112.400000
 30
0.0
 10
188.800000
 20
112.636767
 30
0.0
  0
SPLINE
  5
113
100
AcDbEntity
  8
0
 62
7
100
AcDbSpline
 70
8
 71
3
 72
8
 73
4
 74
0
 40
0
 40
0
 40
0
 40
0
 40
1
 40
1
 40
1
 40
1
 10
173.423584
 20
64.166776
 30
0.0
 10
167.559176
 20
63.945328
 30
0.0
 10
167.224528
 20
64.026152
 30
0.0
 10
166.799176
 20
65.766776
 30
0.0
  0
LWPOLYLINE
  5
114
100
AcDbEntity
  8
0
 62
7
100
AcDbPolyline
 90
5
 70
0
 10
195.827064
 20
81.619088
 30
0.0
 10
180.054128
 20
81.600000
 30
0.0
 10
179.827064
 20
73.000000
 30
0.0
 10
179.600000
 20
64.400000
 30
0.0
 10
173.423584
 20
64.166776
 30
0.0
  0
LWPOLYLINE
  5
115
100
AcDbEntity
  8
0
 62
7
100
AcDbPolyline
 90
2
 70
0
 10
166.799176
 20
65.766776
 30
0.0
 10
166.799176
 20
65.766776
 30
0.0
  0
SPLINE
  5
116
100
AcDbEntity
  8
0
 62
7
100
AcDbSpline
 70
8
 71
3
 72
8
 73
4
 74
0
 40
0
 40
0
 40
0
 40
0
 40
1
 40
1
 40
1
 40
1
 10
196.400000
 20
84.000000
 30
0.0
 10
220.420552
 20
84.522184
 30
0.0
 10
220.000000
 20
84.279672
 30
0.0
 10
220.000000
 20
97.608944
 30
0.0
  0
SPLINE
  5
117
100
AcDbEntity
  8
0
 62
7
100
AcDbSpline
 70
8
 71
3
 72
8
 73
4
 74
0
 40
0
 40
0
 40
0
 40
0
 40
1
 40
1
 40
1
 40
1
 10
220.000000
 20
97.608944
 30
0.0
 10
220.000000
 20
105.510530
 30
0.0
 10
219.938720
 20
105.784332
 30
0.0
 10
217.661536
 20
108.061538
 30
0.0
  0
LWPOLYLINE
  5
118
100
AcDbEntity
  8
0
 62
7
100
AcDbPolyline
 90
3
 70
0
 10
177.773800
 20
74.600000
 30
0.0
 10
178.000000
 20
83.600000
 30
0.0
 10
196.400000
 20
84.000000
 30
0.0
  0
SPLINE
  5
119
100
AcDbEntity
  8
0
 62
7
100
AcDbSpline
 70
8
 71
3
 72
8
 73
4
 74
0
 40
0
 40
0
 40
0
 40
0
 40
1
 40
1
 40
1
 40
1
 10
178.133336
 20
90.933336
 30
0.0
 10
177.840000
 20
91.226664
 30
0.0
 10
177.600000
 20
94.286664
 30
0.0
 10
177.600000
 20
97.733336
 30
0.0
  0
LWPOLYLINE
  5
11a
100
AcDbEntity
  8
0
 62
7
100
AcDbPolyline
 90
10
 70
0
 10
217.661536
 20
108.061538
 30
0.0
 10
215.323080
 20
110.400000
 30
0.0
 10
192.061536
 20
110.400000
 30
0.0
 10
168.800000
 20
110.400000
 30
0.0
 10
168.800000
 20
88.000000
 30
0.0
 10
168.800000
 20
65.600000
 30
0.0
 10
173.173800
 20
65.600000
 30
0.0
 10
177.547600
 20
65.600000
 30
0.0
 10
177.773800
 20
74.600000
 30
0.0
 10
177.773800
 20
74.600000
 30
0.0
  0
SPLINE
  5
11b
100
AcDbEntity
  8
0
 62
7
100
AcDbSpline
 70
8
 71
3
 72
8
 73
4
 74
0
 40
0
 40
0
 40
0
 40
0
 40
1
 40
1
 40
1
 40
1
 10
193.440000
 20
104.000000
 30
0.0
 10
204.693336
 20
104.000000
 30
0.0
 10
209.557976
 20
103.722020
 30
0.0
 10
210.240000
 20
103.040000
 30
0.0
  0
SPLINE
  5
11c
100
AcDbEntity
  8
0
 62
7
100
AcDbSpline
 70
8
 71
3
 72
8
 73
4
 74
0
 40
0
 40
0
 40
0
 40
0
 40
1
 40
1
 40
1
 40
1
 10
210.240000
 20
103.040000
 30
0.0
 10
211.931304
 20
101.348696
 30
0.0
 10
211.476552
 20
92.204296
 30
0.0
 10
209.652592
 20
91.228144
 30
0.0
  0
SPLINE
  5
11d
100
AcDbEntity
  8
0
 62
7
100
AcDbSpline
 70
8
 71
3
 72
8
 73
4
 74
0
 40
0
 40
0
 40
0
 40
0
 40
1
 40
1
 40
1
 40
1
 10
209.652592
 20
91.228144
 30
0.0
 10
207.954256
 20
90.319224
 30
0.0
 10
179.018096
 20
90.048568
 30
0.0
 10
178.133336
 20
90.933336
 30
0.0
  0
LWPOLYLINE
  5
11e
100
AcDbEntity
  8
0
 62
7
100
AcDbPolyline
 90
3
 70
0
 10
177.600000
 20
97.733336
 30
0.0
 10
177.600000
 20
104.000000
 30
0.0
 10
193.440000
 20
104.000000
 30
0.0
  0
SPLINE
  5
11f
100
AcDbEntity
  8
0
 62
7
100
AcDbSpline
 70
8
 71
3
 72
8
 73
4
 74
0
 40
0
 40
0
 40
0
 40
0
 40
1
 40
1
 40
1
 40
1
 10
208.818344
 20
93.600000
 30
0.0
 10
210.000792
 20
95.474032
 30
0.0
 10
209.730944
 20
99.754770
 30
0.0
 10
208.342856
 20
101.142857
 30
0.0
  0
SPLINE
  5
120
100
AcDbEntity
  8
0
 62
7
100
AcDbSpline
 70
8
 71
3
 72
8
 73
4
 74
0
 40
0
 40
0
 40
0
 40
0
 40
1
 40
1
 40
1
 40
1
 10
208.342856
 20
101.142857
 30
0.0
 10
207.299016
 20
102.186699
 30
0.0
 10
204.787880
 20
102.400000
 30
0.0
 10
193.542856
 20
102.400000
 30
0.0
  0
LWPOLYLINE
  5
121
100
AcDbEntity
  8
0
 62
7
100
AcDbPolyline
 90
2
 70
0
 10
178.133336
 20
90.933336
 30
0.0
 10
178.133336
 20
90.933336
 30
0.0
  0
SPLINE
  5
122
100
AcDbEntity
  8
0
 62
7
100
AcDbSpline
 70
8
 71
3
 72
8
 73
4
 74
0
 40
0
 40
0
 40
0
 40
0
 40
1
 40
1
 40
1
 40
1
 10
194.030592
 20
92.148432
 30
0.0
 10
205.437984
 20
92.352968
 30
0.0
 10
208.202744
 20
92.624352
 30
0.0
 10
208.818344
 20
93.600000
 30
0.0
  0
LWPOLYLINE
  5
123
100
AcDbEntity
  8
0
 62
7
100
AcDbPolyline
 90
5
 70
0
 10
193.542856
 20
102.400000
 30
0.0
 10
180.000000
 20
102.400000
 30
0.0
 10
180.000000
 20
97.148432
 30
0.0
 10
180.000000
 20
91.896864
 30
0.0
 10
194.030592
 20
92.148432
 30
0.0
  0
LWPOLYLINE
  5
124
100
AcDbEntity
  8
0
 62
7
100
AcDbPolyline
 90
2
 70
0
 10
208.818344
 20
93.600000
 30
0.0
 10
208.818344
 20
93.600000
 30
0.0
  0
LWPOLYLINE
  5
125
100
AcDbEntity
  8
0
 62
7
100
AcDbPolyline
 90
26
 70
0
 10
228.188272
 20
88.200000
 30
0.0
 10
228.400000
 20
112.400000
 30
0.0
 10
254.400000
 20
112.400000
 30
0.0
 10
280.400000
 20
112.400000
 30
0.0
 10
280.638176
 20
107.400000
 30
0.0
 10
280.876344
 20
102.400000
 30
0.0
 10
261.238176
 20
102.400000
 30
0.0
 10
241.600000
 20
102.400000
 30
0.0
 10
241.600000
 20
98.400000
 30
0.0
 10
241.600000
 20
94.400000
 30
0.0
 10
252.800000
 20
94.400000
 30
0.0
 10
264.000000
 20
94.400000
 30
0.0
 10
264.000000
 20
89.200000
 30
0.0
 10
264.000000
 20
84.000000
 30
0.0
 10
252.800000
 20
84.000000
 30
0.0
 10
241.600000
 20
84.000000
 30
0.0
 10
241.600000
 20
79.200000
 30
0.0
 10
241.600000
 20
74.400000
 30
0.0
 10
261.200000
 20
74.400000
 30
0.0
 10
280.800000
 20
74.400000
 30
0.0
 10
280.800000
 20
69.200000
 30
0.0
 10
280.800000
 20
64.000000
 30
0.0
 10
254.388272
 20
64.000000
 30
0.0
 10
227.976536
 20
64.000000
 30
0.0
 10
228.188272
 20
88.200000
 30
0.0
 10
228.188272
 20
88.200000
 30
0.0
  0
SPLINE
  5
126
100
AcDbEntity
  8
0
 62
7
100
AcDbSpline
 70
8
 71
3
 72
8
 73
4
 74
0
 40
0
 40
0
 40
0
 40
0
 40
1
 40
1
 40
1
 40
1
 10
287.575848
 20
64.974456
 30
0.0
 10
287.355296
 20
65.549216
 30
0.0
 10
287.270496
 20
76.455096
 30
0.0
 10
287.387416
 20
89.209736
 30
0.0
  0
LWPOLYLINE
  5
127
100
AcDbEntity
  8
0
 62
7
100
AcDbPolyline
 90
26
 70
0
 10
279.200000
 20
69.186024
 30
0.0
 10
279.200000
 20
72.772048
 30
0.0
 10
259.400000
 20
72.986024
 30
0.0
 10
239.600000
 20
73.200000
 30
0.0
 10
239.600000
 20
79.200000
 30
0.0
 10
239.600000
 20
85.200000
 30
0.0
 10
251.000000
 20
85.421968
 30
0.0
 10
262.400000
 20
85.643928
 30
0.0
 10
262.400000
 20
88.800000
 30
0.0
 10
262.400000
 20
91.956072
 30
0.0
 10
251.000000
 20
92.178032
 30
0.0
 10
239.600000
 20
92.400000
 30
0.0
 10
239.364952
 20
98.200000
 30
0.0
 10
239.129904
 20
104.000000
 30
0.0
 10
258.764952
 20
104.000000
 30
0.0
 10
278.400000
 20
104.000000
 30
0.0
 10
278.400000
 20
107.200000
 30
0.0
 10
278.400000
 20
110.400000
 30
0.0
 10
254.400000
 20
110.400000
 30
0.0
 10
230.400000
 20
110.400000
 30
0.0
 10
230.400000
 20
88.000000
 30
0.0
 10
230.400000
 20
65.600000
 30
0.0
 10
254.800000
 20
65.600000
 30
0.0
 10
279.200000
 20
65.600000
 30
0.0
 10
279.200000
 20
69.186024
 30
0.0
 10
279.200000
 20
69.186024
 30
0.0
  0
SPLINE
  5
128
100
AcDbEntity
  8
0
 62
7
100
AcDbSpline
 70
8
 71
3
 72
8
 73
4
 74
0
 40
0
 40
0
 40
0
 40
0
 40
1
 40
1
 40
1
 40
1
 10
315.797920
 20
97.990360
 30
0.0
 10
326.026776
 20
89.855664
 30
0.0
 10
334.576776
 20
83.200000
 30
0.0
 10
334.797920
 20
83.200000
 30
0.0
  0
SPLINE
  5
129
100
AcDbEntity
  8
0
 62
7
100
AcDbSpline
 70
8
 71
3
 72
8
 73
4
 74
0
 40
0
 40
0
 40
0
 40
0
 40
1
 40
1
 40
1
 40
1
 10
334.797920
 20
83.200000
 30
0.0
 10
335.019064
 20
83.200000
 30
0.0
 10
335.200000
 20
89.860000
 30
0.0
 10
335.200000
 20
98.000000
 30
0.0
  0
LWPOLYLINE
  5
12a
100
AcDbEntity
  8
0
 62
7
100
AcDbPolyline
 90
5
 70
0
 10
287.387416
 20
89.209736
 30
0.0
 10
287.600000
 20
112.400000
 30
0.0
 10
292.400000
 20
112.590362
 30
0.0
 10
297.200000
 20
112.780724
 30
0.0
 10
315.797920
 20
97.990360
 30
0.0
  0
SPLINE
  5
12b
100
AcDbEntity
  8
0
 62
7
100
AcDbSpline
 70
8
 71
3
 72
8
 73
4
 74
0
 40
0
 40
0
 40
0
 40
0
 40
1
 40
1
 40
1
 40
1
 10
325.964888
 20
73.295328
 30
0.0
 10
319.498712
 20
78.407760
 30
0.0
 10
311.101360
 20
85.071256
 30
0.0
 10
307.304104
 20
88.103088
 30
0.0
  0
LWPOLYLINE
  5
12c
100
AcDbEntity
  8
0
 62
7
100
AcDbPolyline
 90
9
 70
0
 10
335.200000
 20
98.000000
 30
0.0
 10
335.200000
 20
112.800000
 30
0.0
 10
341.200000
 20
112.800000
 30
0.0
 10
347.200000
 20
112.800000
 30
0.0
 10
347.200000
 20
88.400000
 30
0.0
 10
347.200000
 20
64.000000
 30
0.0
 10
342.460792
 20
64.000000
 30
0.0
 10
337.721576
 20
64.000000
 30
0.0
 10
325.964888
 20
73.295328
 30
0.0
  0
SPLINE
  5
12d
100
AcDbEntity
  8
0
 62
7
100
AcDbSpline
 70
8
 71
3
 72
8
 73
4
 74
0
 40
0
 40
0
 40
0
 40
0
 40
1
 40
1
 40
1
 40
1
 10
293.788432
 20
64.164720
 30
0.0
 10
289.568736
 20
63.993888
 30
0.0
 10
287.867016
 20
64.215680
 30
0.0
 10
287.575848
 20
64.974456
 30
0.0
  0
LWPOLYLINE
  5
12e
100
AcDbEntity
  8
0
 62
7
100
AcDbPolyline
 90
5
 70
0
 10
307.304104
 20
88.103088
 30
0.0
 10
300.400000
 20
93.615520
 30
0.0
 10
300.000000
 20
79.007760
 30
0.0
 10
299.600000
 20
64.400000
 30
0.0
 10
293.788432
 20
64.164720
 30
0.0
  0
SPLINE
  5
12f
100
AcDbEntity
  8
0
 62
7
100
AcDbSpline
 70
8
 71
3
 72
8
 73
4
 74
0
 40
0
 40
0
 40
0
 40
0
 40
1
 40
1
 40
1
 40
1
 10
297.600000
 20
81.200000
 30
0.0
 10
297.600000
 20
99.617644
 30
0.0
 10
297.191288
 20
99.124592
 30
0.0
 10
306.386808
 20
91.800000
 30
0.0
  0
SPLINE
  5
130
100
AcDbEntity
  8
0
 62
7
100
AcDbSpline
 70
8
 71
3
 72
8
 73
4
 74
0
 40
0
 40
0
 40
0
 40
0
 40
1
 40
1
 40
1
 40
1
 10
306.386808
 20
91.800000
 30
0.0
 10
309.839248
 20
89.050000
 30
0.0
 10
317.644528
 20
82.840000
 30
0.0
 10
323.731880
 20
78.000000
 30
0.0
  0
SPLINE
  5
131
100
AcDbEntity
  8
0
 62
7
100
AcDbSpline
 70
8
 71
3
 72
8
 73
4
 74
0
 40
0
 40
0
 40
0
 40
0
 40
1
 40
1
 40
1
 40
1
 10
323.731880
 20
78.000000
 30
0.0
 10
329.819232
 20
73.160000
 30
0.0
 10
335.696160
 20
68.390000
 30
0.0
 10
336.791720
 20
67.400000
 30
0.0
  0
SPLINE
  5
132
100
AcDbEntity
  8
0
 62
7
100
AcDbSpline
 70
8
 71
3
 72
8
 73
4
 74
0
 40
0
 40
0
 40
0
 40
0
 40
1
 40
1
 40
1
 40
1
 10
336.791720
 20
67.400000
 30
0.0
 10
338.200768
 20
66.126720
 30
0.0
 10
339.780960
 20
65.600000
 30
0.0
 10
342.191824
 20
65.600000
 30
0.0
  0
LWPOLYLINE
  5
133
100
AcDbEntity
  8
0
 62
7
100
AcDbPolyline
 90
2
 70
0
 10
287.575848
 20
64.974456
 30
0.0
 10
287.575848
 20
64.974456
 30
0.0
  0
SPLINE
  5
134
100
AcDbEntity
  8
0
 62
7
100
AcDbSpline
 70
8
 71
3
 72
8
 73
4
 74
0
 40
0
 40
0
 40
0
 40
0
 40
1
 40
1
 40
1
 40
1
 10
336.800000
 20
95.200000
 30
0.0
 10
336.800000
 20
77.295240
 30
0.0
 10
337.428448
 20
77.927416
 30
0.0
 10
327.457056
 20
85.801512
 30
0.0
  0
SPLINE
  5
135
100
AcDbEntity
  8
0
 62
7
100
AcDbSpline
 70
8
 71
3
 72
8
 73
4
 74
0
 40
0
 40
0
 40
0
 40
0
 40
1
 40
1
 40
1
 40
1
 10
327.457056
 20
85.801512
 30
0.0
 10
297.645536
 20
109.342718
 30
0.0
 10
296.156176
 20
110.400000
 30
0.0
 10
292.806008
 20
110.400000
 30
0.0
  0
LWPOLYLINE
  5
136
100
AcDbEntity
  8
0
 62
7
100
AcDbPolyline
 90
7
 70
0
 10
342.191824
 20
65.600000
 30
0.0
 10
345.600000
 20
65.600000
 30
0.0
 10
345.600000
 20
88.000000
 30
0.0
 10
345.600000
 20
110.400000
 30
0.0
 10
341.200000
 20
110.400000
 30
0.0
 10
336.800000
 20
110.400000
 30
0.0
 10
336.800000
 20
95.200000
 30
0.0
  0
LWPOLYLINE
  5
137
100
AcDbEntity
  8
0
 62
7
100
AcDbPolyline
 90
8
 70
0
 10
292.806008
 20
110.400000
 30
0.0
 10
289.600000
 20
110.400000
 30
0.0
 10
289.600000
 20
88.000000
 30
0.0
 10
289.600000
 20
65.600000
 30
0.0
 10
293.600000
 20
65.600000
 30
0.0
 10
297.600000
 20
65.600000
 30
0.0
 10
297.600000
 20
81.200000
 30
0.0
 10
297.600000
 20
81.200000
 30
0.0
  0
SPLINE
  5
138
100
AcDbEntity
  8
0
 62
7
100
AcDbSpline
 70
8
 71
3
 72
8
 73
4
 74
0
 40
0
 40
0
 40
0
 40
0
 40
1
 40
1
 40
1
 40
1
 10
389.200000
 20
122.800000
 30
0.0
 10
426.047152
 20
122.800000
 30
0.0
 10
424.800000
 20
123.439022
 30
0.0
 10
424.800000
 20
104.559106
 30
0.0
  0
SPLINE
  5
139
100
AcDbEntity
  8
0
 62
7
100
AcDbSpline
 70
8
 71
3
 72
8
 73
4
 74
0
 40
0
 40
0
 40
0
 40
0
 40
1
 40
1
 40
1
 40
1
 10
424.800000
 20
104.559106
 30
0.0
 10
424.800000
 20
88.387928
 30
0.0
 10
423.603616
 20
86.524112
 30
0.0
 10
412.681392
 20
85.679872
 30
0.0
  0
LWPOLYLINE
  5
13a
100
AcDbEntity
  8
0
 62
7
100
AcDbPolyline
 90
3
 70
0
 10
360.990144
 20
93.400000
 30
0.0
 10
361.200000
 20
122.800000
 30
0.0
 10
389.200000
 20
122.800000
 30
0.0
  0
SPLINE
  5
13b
100
AcDbEntity
  8
0
 62
7
100
AcDbSpline
 70
8
 71
3
 72
8
 73
4
 74
0
 40
0
 40
0
 40
0
 40
0
 40
1
 40
1
 40
1
 40
1
 10
411.937368
 20
80.800000
 30
0.0
 10
434.268864
 20
62.817736
 30
0.0
 10
433.698152
 20
64.000000
 30
0.0
 10
420.047240
 20
64.000000
 30
0.0
  0
LWPOLYLINE
  5
13c
100
AcDbEntity
  8
0
 62
7
100
AcDbPolyline
 90
3
 70
0
 10
412.681392
 20
85.679872
 30
0.0
 10
406.473176
 20
85.200000
 30
0.0
 10
411.937368
 20
80.800000
 30
0.0
  0
LWPOLYLINE
  5
13d
100
AcDbEntity
  8
0
 62
7
100
AcDbPolyline
 90
12
 70
0
 10
420.047240
 20
64.000000
 30
0.0
 10
409.961152
 20
64.000000
 30
0.0
 10
398.459000
 20
74.800000
 30
0.0
 10
386.956848
 20
85.600000
 30
0.0
 10
381.478424
 20
85.600000
 30
0.0
 10
376.000000
 20
85.600000
 30
0.0
 10
376.000000
 20
74.800000
 30
0.0
 10
376.000000
 20
64.000000
 30
0.0
 10
368.390144
 20
64.000000
 30
0.0
 10
360.780288
 20
64.000000
 30
0.0
 10
360.990144
 20
93.400000
 30
0.0
 10
360.990144
 20
93.400000
 30
0.0
  0
SPLINE
  5
13e
100
AcDbEntity
  8
0
 62
7
100
AcDbSpline
 70
8
 71
3
 72
8
 73
4
 74
0
 40
0
 40
0
 40
0
 40
0
 40
1
 40
1
 40
1
 40
1
 10
393.420176
 20
82.238864
 30
0.0
 10
396.379080
 20
79.510240
 30
0.0
 10
398.980000
 20
77.080240
 30
0.0
 10
399.200000
 20
76.838864
 30
0.0
  0
SPLINE
  5
13f
100
AcDbEntity
  8
0
 62
7
100
AcDbSpline
 70
8
 71
3
 72
8
 73
4
 74
0
 40
0
 40
0
 40
0
 40
0
 40
1
 40
1
 40
1
 40
1
 10
399.200000
 20
76.838864
 30
0.0
 10
399.420000
 20
76.597488
 30
0.0
 10
402.216752
 20
73.970000
 30
0.0
 10
405.414992
 20
71.000000
 30
0.0
  0
LWPOLYLINE
  5
140
100
AcDbEntity
  8
0
 62
7
100
AcDbPolyline
 90
5
 70
0
 10
374.400000
 20
76.400000
 30
0.0
 10
374.400000
 20
87.200000
 30
0.0
 10
381.220176
 20
87.200000
 30
0.0
 10
388.040360
 20
87.200000
 30
0.0
 10
393.420176
 20
82.238864
 30
0.0
  0
SPLINE
  5
141
100
AcDbEntity
  8
0
 62
7
100
AcDbSpline
 70
8
 71
3
 72
8
 73
4
 74
0
 40
0
 40
0
 40
0
 40
0
 40
1
 40
1
 40
1
 40
1
 10
422.800000
 20
69.260464
 30
0.0
 10
420.600000
 20
71.234288
 30
0.0
 10
415.485464
 20
75.448160
 30
0.0
 10
411.434352
 20
78.624616
 30
0.0
  0
SPLINE
  5
142
100
AcDbEntity
  8
0
 62
7
100
AcDbSpline
 70
8
 71
3
 72
8
 73
4
 74
0
 40
0
 40
0
 40
0
 40
0
 40
1
 40
1
 40
1
 40
1
 10
411.434352
 20
78.624616
 30
0.0
 10
402.011000
 20
86.013440
 30
0.0
 10
401.927160
 20
86.889992
 30
0.0
 10
410.600000
 20
87.347592
 30
0.0
  0
SPLINE
  5
143
100
AcDbEntity
  8
0
 62
7
100
AcDbSpline
 70
8
 71
3
 72
8
 73
4
 74
0
 40
0
 40
0
 40
0
 40
0
 40
1
 40
1
 40
1
 40
1
 10
410.600000
 20
87.347592
 30
0.0
 10
421.843312
 20
87.940824
 30
0.0
 10
423.200000
 20
89.776912
 30
0.0
 10
423.200000
 20
104.400000
 30
0.0
  0
SPLINE
  5
144
100
AcDbEntity
  8
0
 62
7
100
AcDbSpline
 70
8
 71
3
 72
8
 73
4
 74
0
 40
0
 40
0
 40
0
 40
0
 40
1
 40
1
 40
1
 40
1
 10
423.200000
 20
104.400000
 30
0.0
 10
423.200000
 20
121.830521
 30
0.0
 10
424.599608
 20
121.124572
 30
0.0
 10
389.400000
 20
121.448372
 30
0.0
  0
LWPOLYLINE
  5
145
100
AcDbEntity
  8
0
 62
7
100
AcDbPolyline
 90
5
 70
0
 10
405.414992
 20
71.000000
 30
0.0
 10
411.229992
 20
65.600000
 30
0.0
 10
419.014992
 20
65.635840
 30
0.0
 10
426.800000
 20
65.671680
 30
0.0
 10
422.800000
 20
69.260464
 30
0.0
  0
SPLINE
  5
146
100
AcDbEntity
  8
0
 62
7
100
AcDbSpline
 70
8
 71
3
 72
8
 73
4
 74
0
 40
0
 40
0
 40
0
 40
0
 40
1
 40
1
 40
1
 40
1
 10
374.933336
 20
95.733336
 30
0.0
 10
374.640000
 20
96.026664
 30
0.0
 10
374.400000
 20
99.986666
 30
0.0
 10
374.400000
 20
104.533334
 30
0.0
  0
LWPOLYLINE
  5
147
100
AcDbEntity
  8
0
 62
7
100
AcDbPolyline
 90
8
 70
0
 10
389.400000
 20
121.448372
 30
0.0
 10
362.400000
 20
121.696745
 30
0.0
 10
362.400000
 20
93.648376
 30
0.0
 10
362.400000
 20
65.600000
 30
0.0
 10
368.400000
 20
65.600000
 30
0.0
 10
374.400000
 20
65.600000
 30
0.0
 10
374.400000
 20
76.400000
 30
0.0
 10
374.400000
 20
76.400000
 30
0.0
  0
SPLINE
  5
148
100
AcDbEntity
  8
0
 62
7
100
AcDbSpline
 70
8
 71
3
 72
8
 73
4
 74
0
 40
0
 40
0
 40
0
 40
0
 40
1
 40
1
 40
1
 40
1
 10
391.447096
 20
112.800000
 30
0.0
 10
411.806552
 20
112.800000
 30
0.0
 10
414.873848
 20
110.435566
 30
0.0
 10
410.871856
 20
97.826392
 30
0.0
  0
SPLINE
  5
149
100
AcDbEntity
  8
0
 62
7
100
AcDbSpline
 70
8
 71
3
 72
8
 73
4
 74
0
 40
0
 40
0
 40
0
 40
0
 40
1
 40
1
 40
1
 40
1
 10
410.871856
 20
97.826392
 30
0.0
 10
410.112208
 20
95.432952
 30
0.0
 10
377.153248
 20
93.513416
 30
0.0
 10
374.933336
 20
95.733336
 30
0.0
  0
LWPOLYLINE
  5
14a
100
AcDbEntity
  8
0
 62
7
100
AcDbPolyline
 90
3
 70
0
 10
374.400000
 20
104.533334
 30
0.0
 10
374.400000
 20
112.800000
 30
0.0
 10
391.447096
 20
112.800000
 30
0.0
  0
SPLINE
  5
14b
100
AcDbEntity
  8
0
 62
7
100
AcDbSpline
 70
8
 71
3
 72
8
 73
4
 74
0
 40
0
 40
0
 40
0
 40
0
 40
1
 40
1
 40
1
 40
1
 10
407.547920
 20
97.580200
 30
0.0
 10
409.474024
 20
98.312504
 30
0.0
 10
409.600000
 20
98.695568
 30
0.0
 10
409.600000
 20
103.820199
 30
0.0
  0
SPLINE
  5
14c
100
AcDbEntity
  8
0
 62
7
100
AcDbSpline
 70
8
 71
3
 72
8
 73
4
 74
0
 40
0
 40
0
 40
0
 40
0
 40
1
 40
1
 40
1
 40
1
 10
409.600000
 20
103.820199
 30
0.0
 10
409.600000
 20
111.464059
 30
0.0
 10
410.235472
 20
111.200000
 30
0.0
 10
391.840000
 20
111.200000
 30
0.0
  0
LWPOLYLINE
  5
14d
100
AcDbEntity
  8
0
 62
7
100
AcDbPolyline
 90
2
 70
0
 10
374.933336
 20
95.733336
 30
0.0
 10
374.933336
 20
95.733336
 30
0.0
  0
SPLINE
  5
14e
100
AcDbEntity
  8
0
 62
7
100
AcDbSpline
 70
8
 71
3
 72
8
 73
4
 74
0
 40
0
 40
0
 40
0
 40
0
 40
1
 40
1
 40
1
 40
1
 10
390.747920
 20
96.800000
 30
0.0
 10
398.859280
 20
96.800000
 30
0.0
 10
406.419280
 20
97.151088
 30
0.0
 10
407.547920
 20
97.580200
 30
0.0
  0
LWPOLYLINE
  5
14f
100
AcDbEntity
  8
0
 62
7
100
AcDbPolyline
 90
5
 70
0
 10
391.840000
 20
111.200000
 30
0.0
 10
376.000000
 20
111.200000
 30
0.0
 10
376.000000
 20
104.000000
 30
0.0
 10
376.000000
 20
96.800000
 30
0.0
 10
390.747920
 20
96.800000
 30
0.0
  0
SPLINE
  5
150
100
AcDbEntity
  8
0
 62
7
100
AcDbSpline
 70
8
 71
3
 72
8
 73
4
 74
0
 40
0
 40
0
 40
0
 40
0
 40
1
 40
1
 40
1
 40
1
 10
441.056784
 20
65.290632
 30
0.0
 10
435.928944
 20
67.819472
 30
0.0
 10
435.568552
 20
69.808152
 30
0.0
 10
435.861568
 20
93.958792
 30
0.0
  0
SPLINE
  5
151
100
AcDbEntity
  8
0
 62
7
100
AcDbSpline
 70
8
 71
3
 72
8
 73
4
 74
0
 40
0
 40
0
 40
0
 40
0
 40
1
 40
1
 40
1
 40
1
 10
435.861568
 20
93.958792
 30
0.0
 10
436.229296
 20
124.266997
 30
0.0
 10
434.935648
 20
122.769887
 30
0.0
 10
460.772720
 20
122.787977
 30
0.0
  0
LWPOLYLINE
  5
152
100
AcDbEntity
  8
0
 62
7
100
AcDbPolyline
 90
2
 70
0
 10
407.547920
 20
97.580200
 30
0.0
 10
407.547920
 20
97.580200
 30
0.0
  0
SPLINE
  5
153
100
AcDbEntity
  8
0
 62
7
100
AcDbSpline
 70
8
 71
3
 72
8
 73
4
 74
0
 40
0
 40
0
 40
0
 40
0
 40
1
 40
1
 40
1
 40
1
 10
478.078976
 20
120.202654
 30
0.0
 10
478.617248
 20
109.732743
 30
0.0
 10
493.600000
 20
109.893338
 30
0.0
 10
493.600000
 20
120.369018
 30
0.0
  0
LWPOLYLINE
  5
154
100
AcDbEntity
  8
0
 62
7
100
AcDbPolyline
 90
3
 70
0
 10
460.772720
 20
122.787977
 30
0.0
 10
477.945440
 20
122.800000
 30
0.0
 10
478.078976
 20
120.202654
 30
0.0
  0
SPLINE
  5
155
100
AcDbEntity
  8
0
 62
7
100
AcDbSpline
 70
8
 71
3
 72
8
 73
4
 74
0
 40
0
 40
0
 40
0
 40
0
 40
1
 40
1
 40
1
 40
1
 10
497.400000
 20
122.778805
 30
0.0
 10
507.176800
 20
121.442903
 30
0.0
 10
507.997512
 20
119.152206
 30
0.0
 10
507.997512
 20
93.200000
 30
0.0
  0
SPLINE
  5
156
100
AcDbEntity
  8
0
 62
7
100
AcDbSpline
 70
8
 71
3
 72
8
 73
4
 74
0
 40
0
 40
0
 40
0
 40
0
 40
1
 40
1
 40
1
 40
1
 10
507.997512
 20
93.200000
 30
0.0
 10
507.997512
 20
61.853064
 30
0.0
 10
510.670160
 20
63.995776
 30
0.0
 10
471.600000
 20
64.019456
 30
0.0
  0
SPLINE
  5
157
100
AcDbEntity
  8
0
 62
7
100
AcDbSpline
 70
8
 71
3
 72
8
 73
4
 74
0
 40
0
 40
0
 40
0
 40
0
 40
1
 40
1
 40
1
 40
1
 10
471.600000
 20
64.019456
 30
0.0
 10
447.811968
 20
64.033856
 30
0.0
 10
443.217432
 20
64.225096
 30
0.0
 10
441.056784
 20
65.290632
 30
0.0
  0
LWPOLYLINE
  5
158
100
AcDbEntity
  8
0
 62
7
100
AcDbPolyline
 90
3
 70
0
 10
493.600000
 20
120.369018
 30
0.0
 10
493.600000
 20
123.298037
 30
0.0
 10
497.400000
 20
122.778805
 30
0.0
  0
SPLINE
  5
159
100
AcDbEntity
  8
0
 62
7
100
AcDbSpline
 70
8
 71
3
 72
8
 73
4
 74
0
 40
0
 40
0
 40
0
 40
0
 40
1
 40
1
 40
1
 40
1
 10
502.750088
 20
67.952088
 30
0.0
 10
506.173504
 20
71.169904
 30
0.0
 10
506.538144
 20
74.061920
 30
0.0
 10
506.259200
 20
95.783272
 30
0.0
  0
LWPOLYLINE
  5
15a
100
AcDbEntity
  8
0
 62
7
100
AcDbPolyline
 90
2
 70
0
 10
441.056784
 20
65.290632
 30
0.0
 10
441.056784
 20
65.290632
 30
0.0
  0
SPLINE
  5
15b
100
AcDbEntity
  8
0
 62
7
100
AcDbSpline
 70
8
 71
3
 72
8
 73
4
 74
0
 40
0
 40
0
 40
0
 40
0
 40
1
 40
1
 40
1
 40
1
 10
503.891048
 20
118.074040
 30
0.0
 10
500.717736
 20
121.245170
 30
0.0
 10
495.200000
 20
122.078741
 30
0.0
 10
495.200000
 20
119.387008
 30
0.0
  0
SPLINE
  5
15c
100
AcDbEntity
  8
0
 62
7
100
AcDbSpline
 70
8
 71
3
 72
8
 73
4
 74
0
 40
0
 40
0
 40
0
 40
0
 40
1
 40
1
 40
1
 40
1
 10
495.200000
 20
119.387008
 30
0.0
 10
495.200000
 20
114.122946
 30
0.0
 10
489.725096
 20
109.789379
 30
0.0
 10
484.186784
 20
110.669686
 30
0.0
  0
SPLINE
  5
15d
100
AcDbEntity
  8
0
 62
7
100
AcDbSpline
 70
8
 71
3
 72
8
 73
4
 74
0
 40
0
 40
0
 40
0
 40
0
 40
1
 40
1
 40
1
 40
1
 10
484.186784
 20
110.669686
 30
0.0
 10
480.749704
 20
111.216007
 30
0.0
 10
476.806872
 20
115.022362
 30
0.0
 10
476.787752
 20
117.812622
 30
0.0
  0
SPLINE
  5
15e
100
AcDbEntity
  8
0
 62
7
100
AcDbSpline
 70
8
 71
3
 72
8
 73
4
 74
0
 40
0
 40
0
 40
0
 40
0
 40
1
 40
1
 40
1
 40
1
 10
476.787752
 20
117.812622
 30
0.0
 10
476.761112
 20
121.702620
 30
0.0
 10
476.455064
 20
121.769016
 30
0.0
 10
459.906280
 20
121.475255
 30
0.0
  0
SPLINE
  5
15f
100
AcDbEntity
  8
0
 62
7
100
AcDbSpline
 70
8
 71
3
 72
8
 73
4
 74
0
 40
0
 40
0
 40
0
 40
0
 40
1
 40
1
 40
1
 40
1
 10
459.906280
 20
121.475255
 30
0.0
 10
436.557312
 20
121.060783
 30
0.0
 10
437.600000
 20
122.348054
 30
0.0
 10
437.600000
 20
93.936664
 30
0.0
  0
SPLINE
  5
160
100
AcDbEntity
  8
0
 62
7
100
AcDbSpline
 70
8
 71
3
 72
8
 73
4
 74
0
 40
0
 40
0
 40
0
 40
0
 40
1
 40
1
 40
1
 40
1
 10
437.600000
 20
93.936664
 30
0.0
 10
437.600000
 20
63.170944
 30
0.0
 10
434.611440
 20
65.549648
 30
0.0
 10
472.936632
 20
65.810912
 30
0.0
  0
LWPOLYLINE
  5
161
100
AcDbEntity
  8
0
 62
7
100
AcDbPolyline
 90
3
 70
0
 10
506.259200
 20
95.783272
 30
0.0
 10
506.000000
 20
115.966540
 30
0.0
 10
503.891048
 20
118.074040
 30
0.0
  0
SPLINE
  5
162
100
AcDbEntity
  8
0
 62
7
100
AcDbSpline
 70
8
 71
3
 72
8
 73
4
 74
0
 40
0
 40
0
 40
0
 40
0
 40
1
 40
1
 40
1
 40
1
 10
458.987376
 20
71.195536
 30
0.0
 10
456.202496
 20
73.386128
 30
0.0
 10
455.919864
 20
78.155512
 30
0.0
 10
458.439792
 20
80.436008
 30
0.0
  0
SPLINE
  5
163
100
AcDbEntity
  8
0
 62
7
100
AcDbSpline
 70
8
 71
3
 72
8
 73
4
 74
0
 40
0
 40
0
 40
0
 40
0
 40
1
 40
1
 40
1
 40
1
 10
458.439792
 20
80.436008
 30
0.0
 10
460.814872
 20
82.585424
 30
0.0
 10
465.420752
 20
82.395944
 30
0.0
 10
467.303072
 20
80.071376
 30
0.0
  0
SPLINE
  5
164
100
AcDbEntity
  8
0
 62
7
100
AcDbSpline
 70
8
 71
3
 72
8
 73
4
 74
0
 40
0
 40
0
 40
0
 40
0
 40
1
 40
1
 40
1
 40
1
 10
467.303072
 20
80.071376
 30
0.0
 10
471.931856
 20
74.355072
 30
0.0
 10
464.735544
 20
66.674024
 30
0.0
 10
458.987376
 20
71.195536
 30
0.0
  0
LWPOLYLINE
  5
165
100
AcDbEntity
  8
0
 62
7
100
AcDbPolyline
 90
4
 70
0
 10
472.936632
 20
65.810912
 30
0.0
 10
500.673272
 20
66.000000
 30
0.0
 10
502.750088
 20
67.952088
 30
0.0
 10
502.750088
 20
67.952088
 30
0.0
  0
SPLINE
  5
166
100
AcDbEntity
  8
0
 62
7
100
AcDbSpline
 70
8
 71
3
 72
8
 73
4
 74
0
 40
0
 40
0
 40
0
 40
0
 40
1
 40
1
 40
1
 40
1
 10
466.002944
 20
73.603248
 30
0.0
 10
467.207832
 20
74.934640
 30
0.0
 10
467.297856
 20
75.548888
 30
0.0
 10
466.533856
 20
77.225704
 30
0.0
  0
SPLINE
  5
167
100
AcDbEntity
  8
0
 62
7
100
AcDbSpline
 70
8
 71
3
 72
8
 73
4
 74
0
 40
0
 40
0
 40
0
 40
0
 40
1
 40
1
 40
1
 40
1
 10
466.533856
 20
77.225704
 30
0.0
 10
464.879384
 20
80.856872
 30
0.0
 10
459.652504
 20
80.881448
 30
0.0
 10
458.744160
 20
77.262344
 30
0.0
  0
SPLINE
  5
168
100
AcDbEntity
  8
0
 62
7
100
AcDbSpline
 70
8
 71
3
 72
8
 73
4
 74
0
 40
0
 40
0
 40
0
 40
0
 40
1
 40
1
 40
1
 40
1
 10
458.744160
 20
77.262344
 30
0.0
 10
457.596328
 20
72.689032
 30
0.0
 10
462.801152
 20
70.065328
 30
0.0
 10
466.002944
 20
73.603264
 30
0.0
  0
LWPOLYLINE
  5
169
100
AcDbEntity
  8
0
 62
7
100
AcDbPolyline
 90
2
 70
0
 10
458.987376
 20
71.195536
 30
0.0
 10
458.987376
 20
71.195536
 30
0.0
  0
SPLINE
  5
16a
100
AcDbEntity
  8
0
 62
7
100
AcDbSpline
 70
8
 71
3
 72
8
 73
4
 74
0
 40
0
 40
0
 40
0
 40
0
 40
1
 40
1
 40
1
 40
1
 10
472.320000
 20
85.120000
 30
0.0
 10
466.172296
 20
91.267704
 30
0.0
 10
472.004272
 20
102.044221
 30
0.0
 10
480.550248
 20
100.328137
 30
0.0
  0
SPLINE
  5
16b
100
AcDbEntity
  8
0
 62
7
100
AcDbSpline
 70
8
 71
3
 72
8
 73
4
 74
0
 40
0
 40
0
 40
0
 40
0
 40
1
 40
1
 40
1
 40
1
 10
480.550248
 20
100.328137
 30
0.0
 10
491.389760
 20
98.151496
 30
0.0
 10
489.852008
 20
82.400000
 30
0.0
 10
478.800000
 20
82.400000
 30
0.0
  0
SPLINE
  5
16c
100
AcDbEntity
  8
0
 62
7
100
AcDbSpline
 70
8
 71
3
 72
8
 73
4
 74
0
 40
0
 40
0
 40
0
 40
0
 40
1
 40
1
 40
1
 40
1
 10
478.800000
 20
82.400000
 30
0.0
 10
475.590592
 20
82.400000
 30
0.0
 10
474.641704
 20
82.798296
 30
0.0
 10
472.320000
 20
85.120000
 30
0.0
  0
LWPOLYLINE
  5
16d
100
AcDbEntity
  8
0
 62
7
100
AcDbPolyline
 90
2
 70
0
 10
466.002944
 20
73.603264
 30
0.0
 10
466.002944
 20
73.603248
 30
0.0
  0
SPLINE
  5
16e
100
AcDbEntity
  8
0
 62
7
100
AcDbSpline
 70
8
 71
3
 72
8
 73
4
 74
0
 40
0
 40
0
 40
0
 40
0
 40
1
 40
1
 40
1
 40
1
 10
482.444312
 20
84.823712
 30
0.0
 10
484.788800
 20
86.078448
 30
0.0
 10
486.583824
 20
90.141880
 30
0.0
 10
485.989320
 20
92.848640
 30
0.0
  0
SPLINE
  5
16f
100
AcDbEntity
  8
0
 62
7
100
AcDbSpline
 70
8
 71
3
 72
8
 73
4
 74
0
 40
0
 40
0
 40
0
 40
0
 40
1
 40
1
 40
1
 40
1
 10
485.989320
 20
92.848640
 30
0.0
 10
484.556672
 20
99.371445
 30
0.0
 10
475.499392
 20
100.393565
 30
0.0
 10
472.391304
 20
94.383184
 30
0.0
  0
SPLINE
  5
170
100
AcDbEntity
  8
0
 62
7
100
AcDbSpline
 70
8
 71
3
 72
8
 73
4
 74
0
 40
0
 40
0
 40
0
 40
0
 40
1
 40
1
 40
1
 40
1
 10
472.391304
 20
94.383184
 30
0.0
 10
469.244912
 20
88.298736
 30
0.0
 10
476.336752
 20
81.555048
 30
0.0
 10
482.444312
 20
84.823712
 30
0.0
  0
LWPOLYLINE
  5
171
100
AcDbEntity
  8
0
 62
7
100
AcDbPolyline
 90
2
 70
0
 10
472.320000
 20
85.120000
 30
0.0
 10
472.320000
 20
85.120000
 30
0.0
  0
SPLINE
  5
172
100
AcDbEntity
  8
0
 62
7
100
AcDbSpline
 70
8
 71
3
 72
8
 73
4
 74
0
 40
0
 40
0
 40
0
 40
0
 40
1
 40
1
 40
1
 40
1
 10
453.529960
 20
97.824016
 30
0.0
 10
446.284720
 20
102.706579
 30
0.0
 10
447.359632
 20
113.295495
 30
0.0
 10
455.412720
 20
116.370997
 30
0.0
  0
SPLINE
  5
173
100
AcDbEntity
  8
0
 62
7
100
AcDbSpline
 70
8
 71
3
 72
8
 73
4
 74
0
 40
0
 40
0
 40
0
 40
0
 40
1
 40
1
 40
1
 40
1
 10
455.412720
 20
116.370997
 30
0.0
 10
467.563272
 20
121.011334
 30
0.0
 10
475.907768
 20
104.653155
 30
0.0
 10
465.044056
 20
97.490160
 30
0.0
  0
SPLINE
  5
174
100
AcDbEntity
  8
0
 62
7
100
AcDbSpline
 70
8
 71
3
 72
8
 73
4
 74
0
 40
0
 40
0
 40
0
 40
0
 40
1
 40
1
 40
1
 40
1
 10
465.044056
 20
97.490160
 30
0.0
 10
461.909864
 20
95.423632
 30
0.0
 10
456.875264
 20
95.569608
 30
0.0
 10
453.529960
 20
97.824016
 30
0.0
  0
LWPOLYLINE
  5
175
100
AcDbEntity
  8
0
 62
7
100
AcDbPolyline
 90
2
 70
0
 10
482.444312
 20
84.823712
 30
0.0
 10
482.444312
 20
84.823712
 30
0.0
  0
SPLINE
  5
176
100
AcDbEntity
  8
0
 62
7
100
AcDbSpline
 70
8
 71
3
 72
8
 73
4
 74
0
 40
0
 40
0
 40
0
 40
0
 40
1
 40
1
 40
1
 40
1
 10
463.191168
 20
98.795432
 30
0.0
 10
470.529840
 20
102.590409
 30
0.0
 10
469.095040
 20
113.886569
 30
0.0
 10
461.079712
 20
115.418795
 30
0.0
  0
SPLINE
  5
177
100
AcDbEntity
  8
0
 62
7
100
AcDbSpline
 70
8
 71
3
 72
8
 73
4
 74
0
 40
0
 40
0
 40
0
 40
0
 40
1
 40
1
 40
1
 40
1
 10
461.079712
 20
115.418795
 30
0.0
 10
454.162960
 20
116.741016
 30
0.0
 10
448.238864
 20
108.937360
 30
0.0
 10
451.525872
 20
102.833766
 30
0.0
  0
SPLINE
  5
178
100
AcDbEntity
  8
0
 62
7
100
AcDbSpline
 70
8
 71
3
 72
8
 73
4
 74
0
 40
0
 40
0
 40
0
 40
0
 40
1
 40
1
 40
1
 40
1
 10
451.525872
 20
102.833766
 30
0.0
 10
454.074296
 20
98.101616
 30
0.0
 10
458.731640
 20
96.489320
 30
0.0
 10
463.191168
 20
98.795432
 30
0.0
  0
LWPOLYLINE
  5
179
100
AcDbEntity
  8
0
 62
7
100
AcDbPolyline
 90
2
 70
0
 10
453.529960
 20
97.824016
 30
0.0
 10
453.529960
 20
97.824016
 30
0.0
  0
SPLINE
  5
17a
100
AcDbEntity
  8
0
 62
7
100
AcDbSpline
 70
8
 71
3
 72
8
 73
4
 74
0
 40
0
 40
0
 40
0
 40
0
 40
1
 40
1
 40
1
 40
1
 10
525.274376
 20
91.660992
 30
0.0
 10
516.515288
 20
106.891939
 30
0.0
 10
509.183320
 20
120.219060
 30
0.0
 10
508.981120
 20
121.276813
 30
0.0
  0
LWPOLYLINE
  5
17b
100
AcDbEntity
  8
0
 62
7
100
AcDbPolyline
 90
2
 70
0
 10
463.191168
 20
98.795432
 30
0.0
 10
463.191168
 20
98.795432
 30
0.0
  0
SPLINE
  5
17c
100
AcDbEntity
  8
0
 62
7
100
AcDbSpline
 70
8
 71
3
 72
8
 73
4
 74
0
 40
0
 40
0
 40
0
 40
0
 40
1
 40
1
 40
1
 40
1
 10
534.423296
 20
105.800000
 30
0.0
 10
545.851744
 20
85.518248
 30
0.0
 10
547.310520
 20
83.031824
 30
0.0
 10
547.589944
 20
83.357920
 30
0.0
  0
SPLINE
  5
17d
100
AcDbEntity
  8
0
 62
7
100
AcDbSpline
 70
8
 71
3
 72
8
 73
4
 74
0
 40
0
 40
0
 40
0
 40
0
 40
1
 40
1
 40
1
 40
1
 10
547.589944
 20
83.357920
 30
0.0
 10
547.821448
 20
83.628088
 30
0.0
 10
550.304568
 20
88.228640
 30
0.0
 10
560.026768
 20
106.400000
 30
0.0
  0
SPLINE
  5
17e
100
AcDbEntity
  8
0
 62
7
100
AcDbSpline
 70
8
 71
3
 72
8
 73
4
 74
0
 40
0
 40
0
 40
0
 40
0
 40
1
 40
1
 40
1
 40
1
 10
560.026768
 20
106.400000
 30
0.0
 10
569.687112
 20
124.455738
 30
0.0
 10
568.487224
 20
123.200000
 30
0.0
 10
576.079584
 20
123.200000
 30
0.0
  0
SPLINE
  5
17f
100
AcDbEntity
  8
0
 62
7
100
AcDbSpline
 70
8
 71
3
 72
8
 73
4
 74
0
 40
0
 40
0
 40
0
 40
0
 40
1
 40
1
 40
1
 40
1
 10
576.079584
 20
123.200000
 30
0.0
 10
583.968064
 20
123.200000
 30
0.0
 10
584.335488
 20
122.596003
 30
0.0
 10
580.570288
 20
115.817750
 30
0.0
  0
SPLINE
  5
180
100
AcDbEntity
  8
0
 62
7
100
AcDbSpline
 70
8
 71
3
 72
8
 73
4
 74
0
 40
0
 40
0
 40
0
 40
0
 40
1
 40
1
 40
1
 40
1
 10
580.570288
 20
115.817750
 30
0.0
 10
579.037288
 20
113.057988
 30
0.0
 10
576.263632
 20
107.983514
 30
0.0
 10
574.406592
 20
104.541141
 30
0.0
  0
SPLINE
  5
181
100
AcDbEntity
  8
0
 62
7
100
AcDbSpline
 70
8
 71
3
 72
8
 73
4
 74
0
 40
0
 40
0
 40
0
 40
0
 40
1
 40
1
 40
1
 40
1
 10
574.406592
 20
104.541141
 30
0.0
 10
572.549560
 20
101.098768
 30
0.0
 10
566.838376
 20
90.658768
 30
0.0
 10
561.715080
 20
81.341144
 30
0.0
  0
LWPOLYLINE
  5
182
100
AcDbEntity
  8
0
 62
7
100
AcDbPolyline
 90
5
 70
0
 10
508.981120
 20
121.276813
 30
0.0
 10
508.613480
 20
123.200000
 30
0.0
 10
516.616072
 20
123.200000
 30
0.0
 10
524.618672
 20
123.200000
 30
0.0
 10
534.423296
 20
105.800000
 30
0.0
  0
SPLINE
  5
183
100
AcDbEntity
  8
0
 62
7
100
AcDbSpline
 70
8
 71
3
 72
8
 73
4
 74
0
 40
0
 40
0
 40
0
 40
0
 40
1
 40
1
 40
1
 40
1
 10
553.367288
 20
70.200000
 30
0.0
 10
554.693744
 20
72.730000
 30
0.0
 10
557.673120
 20
78.220000
 30
0.0
 10
559.988128
 20
82.400000
 30
0.0
  0
SPLINE
  5
184
100
AcDbEntity
  8
0
 62
7
100
AcDbSpline
 70
8
 71
3
 72
8
 73
4
 74
0
 40
0
 40
0
 40
0
 40
0
 40
1
 40
1
 40
1
 40
1
 10
559.988128
 20
82.400000
 30
0.0
 10
564.323792
 20
90.228536
 30
0.0
 10
564.804128
 20
91.092624
 30
0.0
 10
575.330512
 20
110.000000
 30
0.0
  0
LWPOLYLINE
  5
185
100
AcDbEntity
  8
0
 62
7
100
AcDbPolyline
 90
6
 70
0
 10
561.715080
 20
81.341144
 30
0.0
 10
552.400000
 20
64.400000
 30
0.0
 10
546.800000
 20
64.184176
 30
0.0
 10
541.200000
 20
63.968352
 30
0.0
 10
525.274376
 20
91.660992
 30
0.0
 10
525.274376
 20
91.660992
 30
0.0
  0
SPLINE
  5
186
100
AcDbEntity
  8
0
 62
7
100
AcDbSpline
 70
8
 71
3
 72
8
 73
4
 74
0
 40
0
 40
0
 40
0
 40
0
 40
1
 40
1
 40
1
 40
1
 10
576.251096
 20
121.439558
 30
0.0
 10
569.530112
 20
121.742496
 30
0.0
 10
570.193480
 20
122.706850
 30
0.0
 10
549.819792
 20
83.015904
 30
0.0
  0
SPLINE
  5
187
100
AcDbEntity
  8
0
 62
7
100
AcDbSpline
 70
8
 71
3
 72
8
 73
4
 74
0
 40
0
 40
0
 40
0
 40
0
 40
1
 40
1
 40
1
 40
1
 10
549.819792
 20
83.015904
 30
0.0
 10
547.450224
 20
78.399624
 30
0.0
 10
547.358264
 20
78.518072
 30
0.0
 10
532.754056
 20
104.997674
 30
0.0
  0
LWPOLYLINE
  5
188
100
AcDbEntity
  8
0
 62
7
100
AcDbPolyline
 90
3
 70
0
 10
575.330512
 20
110.000000
 30
0.0
 10
581.565936
 20
121.200000
 30
0.0
 10
576.251096
 20
121.439558
 30
0.0
  0
SPLINE
  5
189
100
AcDbEntity
  8
0
 62
7
100
AcDbSpline
 70
8
 71
3
 72
8
 73
4
 74
0
 40
0
 40
0
 40
0
 40
0
 40
1
 40
1
 40
1
 40
1
 10
512.898408
 20
117.000000
 30
0.0
 10
514.337112
 20
114.470000
 30
0.0
 10
516.503912
 20
110.780000
 30
0.0
 10
517.713512
 20
108.800000
 30
0.0
  0
SPLINE
  5
18a
100
AcDbEntity
  8
0
 62
7
100
AcDbSpline
 70
8
 71
3
 72
8
 73
4
 74
0
 40
0
 40
0
 40
0
 40
0
 40
1
 40
1
 40
1
 40
1
 10
517.713512
 20
108.800000
 30
0.0
 10
518.923112
 20
106.820000
 30
0.0
 10
521.048552
 20
103.040000
 30
0.0
 10
522.436712
 20
100.400000
 30
0.0
  0
SPLINE
  5
18b
100
AcDbEntity
  8
0
 62
7
100
AcDbSpline
 70
8
 71
3
 72
8
 73
4
 74
0
 40
0
 40
0
 40
0
 40
0
 40
1
 40
1
 40
1
 40
1
 10
522.436712
 20
100.400000
 30
0.0
 10
523.824872
 20
97.760000
 30
0.0
 10
525.253728
 20
95.240000
 30
0.0
 10
525.611960
 20
94.800000
 30
0.0
  0
SPLINE
  5
18c
100
AcDbEntity
  8
0
 62
7
100
AcDbSpline
 70
8
 71
3
 72
8
 73
4
 74
0
 40
0
 40
0
 40
0
 40
0
 40
1
 40
1
 40
1
 40
1
 10
525.611960
 20
94.800000
 30
0.0
 10
525.970184
 20
94.360000
 30
0.0
 10
529.468120
 20
88.420000
 30
0.0
 10
533.385136
 20
81.600000
 30
0.0
  0
SPLINE
  5
18d
100
AcDbEntity
  8
0
 62
7
100
AcDbSpline
 70
8
 71
3
 72
8
 73
4
 74
0
 40
0
 40
0
 40
0
 40
0
 40
1
 40
1
 40
1
 40
1
 10
533.385136
 20
81.600000
 30
0.0
 10
543.507496
 20
63.975768
 30
0.0
 10
542.138568
 20
65.600000
 30
0.0
 10
546.870216
 20
65.600000
 30
0.0
  0
LWPOLYLINE
  5
18e
100
AcDbEntity
  8
0
 62
7
100
AcDbPolyline
 90
5
 70
0
 10
532.754056
 20
104.997674
 30
0.0
 10
523.600000
 20
121.595350
 30
0.0
 10
516.941288
 20
121.597674
 30
0.0
 10
510.282576
 20
121.600000
 30
0.0
 10
512.898408
 20
117.000000
 30
0.0
  0
LWPOLYLINE
  5
18f
100
AcDbEntity
  8
0
 62
7
100
AcDbPolyline
 90
4
 70
0
 10
546.870216
 20
65.600000
 30
0.0
 10
550.955552
 20
65.600000
 30
0.0
 10
553.367288
 20
70.200000
 30
0.0
 10
553.367288
 20
70.200000
 30
0.0
  0
ENDSEC
  0
SECTION
  2
OBJECTS
  0
DICTIONARY
  5
C
330
0
100
AcDbDictionary
  3
ACAD_GROUP
350
D
  3
ACAD_MLINESTYLE
350
17
  0
DICTIONARY
  5
D
330
C
100
AcDbDictionary
  0
DICTIONARY
  5
1A
330
C
100
AcDbDictionary
  0
DICTIONARY
  5
17
330
C
100
AcDbDictionary
  3
STANDARD
350
18
  0
DICTIONARY
  5
19
330
C
100
AcDbDictionary
  0
ENDSEC
  0
EOF
