<?xml version="1.0" encoding="UTF-8"?>
<!DOCTYPE svg PUBLIC "-//W3C//DTD SVG 1.1//EN" "http://www.w3.org/Graphics/SVG/1.1/DTD/svg11.dtd">
<!-- Creator: CorelDRAW X6 -->
<svg xmlns="http://www.w3.org/2000/svg" xml:space="preserve" width="24in" height="18in" version="1.1" style="shape-rendering:geometricPrecision; text-rendering:geometricPrecision; image-rendering:optimizeQuality; fill-rule:evenodd; clip-rule:evenodd"
viewBox="0 0 24000 18000"
 xmlns:xlink="http://www.w3.org/1999/xlink">
 <defs>
  <style type="text/css">
   <![CDATA[
    .str0 {stroke:#ED3237;stroke-width:3}
    .fil0 {fill:none;fill-rule:nonzero}
   ]]>
  </style>
 </defs>
 <g id="Layer_x0020_1">
  <metadata id="CorelCorpID_0Corel-Layer"/>
  <polygon class="fil0 str0" points="2168,2519 2168,2529 2168,2539 2169,2549 2170,2559 2171,2569 2172,2579 2174,2589 2176,2598 2178,2608 2180,2617 2183,2627 2185,2636 2188,2645 2192,2654 2195,2663 2199,2672 2202,2681 2206,2690 2211,2698 2215,2707 2220,2715 2224,2723 2229,2731 2235,2739 2240,2747 2246,2755 2251,2762 2257,2769 2263,2777 2270,2784 2276,2791 2283,2797 2289,2804 2296,2811 2303,2817 2311,2823 2318,2829 2325,2835 2333,2840 2341,2846 2349,2851 2357,2856 2365,2861 2373,2865 2382,2870 2390,2874 2399,2878 2408,2882 2416,2886 2425,2889 2435,2892 2444,2895 2453,2898 2462,2901 2472,2903 2481,2905 2491,2907 2501,2909 2511,2910 2521,2911 2530,2912 2540,2913 2551,2913 2561,2913 2571,2913 2581,2913 2591,2912 2601,2911 2611,2910 2621,2909 2630,2907 2640,2906 2650,2904 2659,2901 2669,2899 2678,2896 2687,2893 2696,2890 2705,2886 2714,2883 2723,2879 2732,2875 2740,2871 2749,2866 2757,2862 2765,2857 2773,2852 2781,2847 2789,2841 2796,2836 2804,2830 2811,2824 2819,2818 2826,2812 2833,2805 2839,2799 2846,2792 2852,2785 2859,2778 2865,2771 2871,2763 2877,2756 2882,2748 2888,2741 2893,2733 2898,2725 2903,2716 2907,2708 2912,2700 2916,2691 2920,2683 2924,2674 2928,2665 2931,2656 2934,2647 2937,2638 2940,2628 2943,2619 2945,2609 2947,2600 2949,2590 2951,2581 2952,2571 2953,2561 2954,2551 2955,2541 2955,2531 2955,2521 2955,2510 2955,2500 2954,2490 2953,2480 2952,2470 2951,2461 2949,2451 2948,2441 2945,2432 2943,2422 2941,2413 2938,2403 2935,2394 2932,2385 2928,2376 2925,2367 2921,2358 2917,2350 2913,2341 2908,2333 2904,2324 2899,2316 2894,2308 2889,2300 2883,2293 2878,2285 2872,2277 2866,2270 2860,2263 2854,2256 2847,2249 2841,2242 2834,2235 2827,2229 2820,2223 2813,2216 2805,2211 2798,2205 2790,2199 2782,2194 2775,2188 2767,2183 2758,2179 2750,2174 2742,2169 2733,2165 2724,2161 2716,2157 2707,2154 2698,2150 2689,2147 2680,2144 2670,2141 2661,2139 2651,2136 2642,2134 2632,2132 2622,2131 2613,2129 2603,2128 2593,2127 2583,2127 2573,2126 2563,2126 2552,2126 2542,2126 2532,2127 2522,2128 2512,2129 2503,2130 2493,2132 2483,2134 2474,2136 2464,2138 2455,2141 2445,2143 2436,2146 2427,2150 2418,2153 2409,2157 2400,2160 2392,2164 2383,2169 2375,2173 2366,2178 2358,2183 2350,2188 2342,2193 2334,2198 2327,2204 2319,2209 2312,2215 2305,2221 2298,2228 2291,2234 2284,2241 2277,2247 2271,2254 2265,2261 2258,2269 2252,2276 2247,2283 2241,2291 2236,2299 2230,2307 2225,2315 2221,2323 2216,2331 2211,2340 2207,2348 2203,2357 2199,2366 2196,2375 2192,2384 2189,2393 2186,2402 2183,2411 2181,2420 2178,2430 2176,2439 2174,2449 2173,2459 2171,2469 2170,2479 2169,2489 2168,2499 2168,2509 "/>
  <polygon class="fil0 str0" points="4287,3672 2642,3316 2632,3314 2622,3312 2613,3311 2603,3309 2593,3308 2583,3308 2573,3307 2563,3307 2553,3307 2544,3307 2534,3308 2524,3309 2515,3309 2505,3311 2496,3312 2486,3314 2477,3316 2467,3318 2458,3320 2449,3323 2440,3325 2431,3328 2422,3332 2413,3335 2404,3339 2396,3343 2387,3347 2379,3351 2370,3355 2362,3360 2354,3365 2346,3370 2338,3375 2330,3380 2323,3386 2315,3392 2308,3398 2301,3404 2294,3410 2287,3417 2280,3423 2273,3430 2267,3437 2260,3444 2254,3451 2248,3459 2243,3466 2237,3474 2232,3482 2226,3490 2221,3498 2216,3507 2212,3515 2207,3524 2203,3533 2199,3542 2195,3551 2191,3560 2188,3569 2185,3579 2182,3588 2179,3598 2177,3608 2174,3617 2172,3627 2170,3637 2169,3647 2168,3657 2167,3667 2166,3677 2165,3687 2165,3697 2165,3706 2166,3716 2166,3726 2167,3736 2168,3745 2169,3755 2170,3764 2172,3774 2174,3783 2176,3792 2178,3802 2181,3811 2184,3820 2187,3829 2190,3838 2193,3847 2197,3856 2201,3864 2205,3873 2209,3881 2214,3890 2218,3898 2223,3906 2228,3914 2233,3922 2239,3930 2244,3937 2250,3945 2256,3952 2262,3959 2268,3966 2275,3973 2281,3980 2288,3987 2295,3993 2302,3999 2310,4006 2317,4011 2325,4017 2332,4023 2340,4028 2348,4034 2357,4039 2365,4043 2373,4048 2382,4053 2391,4057 2400,4061 2409,4065 2418,4068 2427,4072 2437,4075 2446,4078 2456,4081 2466,4083 2476,4086 3448,4296 3451,4297 3454,4298 3457,4299 3460,4300 3463,4301 3465,4302 3468,4304 3471,4305 3473,4307 3476,4308 3478,4310 3481,4312 3483,4314 3485,4316 3487,4318 3489,4320 3491,4323 3493,4325 3495,4327 3497,4330 3498,4332 3500,4335 3501,4338 3503,4341 3504,4343 3505,4346 3506,4349 3507,4352 3508,4355 3508,4358 3509,4361 3509,4364 3510,4367 3510,4371 3510,4374 3510,4377 3509,4380 3509,4383 3509,4386 3508,4389 3508,4392 3507,4395 3506,4398 3505,4401 3504,4403 3502,4406 3501,4409 3500,4412 3498,4414 3497,4417 3495,4419 3493,4422 3491,4424 3489,4426 3487,4428 3485,4431 3483,4433 3480,4435 3478,4436 3475,4438 3473,4440 3470,4442 3467,4443 3464,4444 3452,4450 3440,4456 3427,4461 3415,4467 3402,4472 3390,4478 3378,4483 3365,4488 3352,4493 3340,4498 3327,4503 3315,4508 3302,4513 3289,4517 3277,4522 3264,4526 3251,4531 3238,4535 3226,4539 3213,4544 3200,4548 3187,4552 3174,4556 3161,4559 3148,4563 3136,4567 3123,4570 3110,4574 3097,4577 3084,4581 3071,4584 3058,4587 3045,4590 3032,4593 3018,4596 3005,4599 2992,4602 2979,4604 2966,4607 2953,4609 2940,4612 2927,4614 2913,4616 2900,4619 2887,4621 2874,4623 2861,4625 2847,4626 2834,4628 2821,4630 2808,4631 2794,4633 2781,4634 2768,4636 2755,4637 2741,4638 2728,4639 2715,4640 2701,4641 2688,4642 2675,4643 2661,4643 2648,4644 2635,4644 2621,4645 2608,4645 2595,4645 2581,4646 2568,4646 2555,4646 2541,4646 2528,4645 2515,4645 2501,4645 2488,4644 2475,4644 2461,4643 2448,4643 2435,4642 2421,4641 2408,4640 2395,4639 2381,4638 2368,4637 2355,4636 2341,4634 2328,4633 2315,4631 2302,4630 2288,4628 2275,4626 2262,4624 2249,4623 2235,4620 2222,4618 2209,4616 2196,4614 2182,4612 2169,4609 2156,4607 2143,4604 2130,4601 2117,4599 2103,4596 2090,4593 2077,4590 2064,4587 2051,4583 2038,4580 2025,4577 2012,4573 1999,4570 1986,4566 1973,4563 1960,4559 1947,4555 1934,4551 1921,4547 1908,4543 1895,4539 1883,4534 1870,4530 1857,4525 1844,4521 1831,4516 1819,4512 1806,4507 1793,4502 1781,4497 1768,4492 1755,4487 1743,4482 1730,4476 1718,4471 1705,4466 1693,4460 1681,4455 1668,4449 1656,4443 1644,4437 1632,4432 1620,4426 1607,4420 1595,4413 1583,4407 1572,4401 1560,4395 1548,4388 1536,4382 1524,4375 1512,4369 1501,4362 1489,4355 1478,4349 1466,4342 1455,4335 1443,4328 1432,4321 1420,4313 1409,4306 1398,4299 1387,4292 1376,4284 1364,4277 1353,4269 1342,4261 1332,4254 1321,4246 1310,4238 1299,4230 1288,4222 1278,4214 1267,4206 1256,4198 1246,4190 1235,4181 1225,4173 1215,4165 1204,4156 1194,4148 1184,4139 1174,4130 1164,4121 1154,4113 1144,4104 1134,4095 1124,4086 1114,4077 1104,4068 1095,4059 1085,4049 1076,4040 1066,4031 1057,4021 1047,4012 1038,4002 1029,3993 1019,3983 1010,3973 1001,3964 992,3954 983,3944 974,3934 965,3924 957,3914 948,3904 939,3894 931,3883 922,3873 914,3863 905,3852 897,3842 889,3831 880,3821 872,3810 864,3800 856,3789 848,3778 840,3767 832,3757 825,3746 817,3735 809,3724 802,3713 794,3701 787,3690 780,3679 772,3668 765,3656 758,3645 751,3634 744,3622 737,3611 730,3599 723,3587 717,3576 710,3564 703,3552 697,3541 690,3529 684,3517 678,3505 671,3493 665,3481 659,3469 653,3457 647,3444 641,3432 636,3420 630,3408 624,3395 619,3383 613,3371 608,3358 603,3346 597,3333 596,3329 595,3326 594,3322 593,3318 592,3314 592,3311 591,3307 591,3303 595,1728 595,1724 595,1720 596,1716 596,1712 597,1709 598,1705 600,1701 601,1698 608,1680 616,1663 623,1646 631,1629 639,1612 647,1596 655,1579 663,1562 672,1546 680,1529 689,1513 698,1497 707,1481 716,1465 725,1449 734,1433 744,1417 754,1401 763,1386 773,1370 783,1355 793,1340 803,1324 814,1309 824,1294 835,1279 846,1265 856,1250 867,1235 878,1221 890,1207 901,1192 912,1178 924,1164 936,1150 947,1136 959,1123 971,1109 983,1095 995,1082 1008,1069 1020,1055 1033,1042 1045,1029 1058,1017 1071,1004 1084,991 1097,979 1110,966 1123,954 1137,942 1150,930 1164,918 1177,906 1191,894 1205,883 1219,871 1233,860 1247,849 1261,838 1276,827 1290,816 1305,805 1319,795 1334,784 1349,774 1364,763 1378,753 1393,743 1409,734 1424,724 1439,714 1454,705 1470,695 1485,686 1501,677 1517,668 1533,659 1548,651 1564,642 1580,634 1596,625 1613,617 1629,609 1645,601 1661,594 1678,586 1694,579 1711,571 1728,564 1744,557 1761,550 1778,543 1795,537 1812,530 1829,524 1846,518 1863,512 1880,506 1898,500 1915,494 1933,489 1950,484 1968,478 1985,473 2003,468 2020,464 2038,459 2056,455 2074,450 2092,446 2110,442 2128,438 2146,435 2164,431 2182,428 2200,425 2219,422 2237,419 2255,416 2274,413 2292,411 2310,409 2329,406 2347,405 2366,403 2385,401 2403,400 2422,398 2441,397 2459,396 2478,395 2497,395 2515,394 2534,394 2552,394 2571,394 2589,394 2608,394 2626,395 2645,395 2663,396 2682,397 2700,398 2718,399 2737,401 2755,402 2773,404 2792,406 2810,408 2828,410 2846,413 2864,415 2882,418 2900,421 2918,424 2936,427 2954,430 2972,434 2990,437 3008,441 3025,445 3043,449 3061,453 3078,457 3096,462 3114,467 3131,471 3148,476 3166,481 3183,487 3200,492 3218,497 3235,503 3252,509 3269,515 3286,521 3303,527 3320,534 3337,540 3354,547 3370,554 3387,560 3404,568 3420,575 3437,582 3453,590 3469,597 3486,605 3502,613 3518,621 3534,629 3550,638 3566,646 3582,655 3598,663 3613,672 3629,681 3645,690 3660,700 3676,709 3691,718 3706,728 3721,738 3736,748 3752,758 3766,768 3781,778 3796,789 3811,799 3825,810 3840,821 3854,832 3869,843 3883,854 3897,865 3911,877 3925,888 3939,900 3953,912 3966,924 3980,936 3993,948 4007,960 4020,973 4033,985 4046,998 4059,1011 4072,1024 4085,1037 4098,1050 4110,1063 4123,1077 4135,1090 4147,1104 4160,1117 4172,1131 4184,1145 4195,1159 4207,1173 4219,1188 4230,1202 4242,1217 4253,1231 4264,1246 4275,1261 4286,1276 4297,1291 4307,1306 4318,1322 4328,1337 4339,1352 4349,1368 4359,1384 4369,1400 4378,1416 4388,1432 4398,1448 4407,1464 4416,1480 4425,1496 4434,1513 4443,1529 4451,1546 4460,1562 4468,1579 4476,1595 4484,1612 4492,1629 4500,1646 4507,1662 4515,1679 4522,1696 4529,1713 4536,1730 4542,1747 4549,1764 4555,1782 4562,1799 4568,1816 4574,1833 4580,1851 4585,1868 4591,1885 4596,1903 4601,1920 4606,1938 4611,1955 4616,1973 4621,1990 4625,2008 4629,2026 4634,2043 4638,2061 4641,2079 4645,2097 4649,2114 4652,2132 4655,2150 4658,2168 4661,2186 4664,2203 4667,2221 4669,2239 4671,2257 4674,2275 4676,2293 4677,2311 4679,2329 4681,2347 4682,2365 4683,2383 4684,2401 4685,2419 4686,2437 4687,2455 4687,2473 4687,2491 4688,2509 4688,2527 4687,2545 4687,2563 4687,2581 4686,2600 4685,2618 4684,2636 4683,2654 4682,2672 4681,2690 4679,2708 4678,2726 4676,2744 4674,2761 4672,2779 4669,2797 4667,2815 4664,2833 4662,2851 4659,2869 4656,2887 4653,2905 4649,2922 4646,2940 4642,2958 4638,2976 4634,2993 4630,3011 4626,3029 4621,3046 4617,3064 4612,3081 4607,3099 4602,3116 4597,3134 4592,3151 4586,3169 4581,3186 4575,3203 4569,3221 4563,3238 4556,3255 4550,3272 4544,3289 4537,3306 4530,3323 4523,3340 4516,3357 4508,3374 4501,3391 4493,3408 4486,3424 4478,3441 4470,3458 4461,3474 4453,3491 4444,3507 4436,3524 4427,3540 4418,3556 4409,3573 4399,3589 4390,3605 4380,3621 4370,3637 4369,3639 4367,3642 4365,3644 4363,3647 4361,3649 4359,3651 4357,3653 4355,3655 4352,3657 4350,3659 4347,3661 4345,3662 4342,3664 4340,3665 4337,3667 4334,3668 4332,3669 4329,3670 4326,3671 4323,3672 4320,3672 4317,3673 4314,3673 4311,3674 4308,3674 4305,3674 4302,3674 4299,3674 4296,3674 4293,3673 4290,3673 "/>
  <polygon class="fil0 str0" points="6590,2519 6590,2529 6590,2539 6591,2549 6592,2559 6593,2569 6594,2579 6596,2589 6598,2598 6600,2608 6602,2617 6604,2627 6607,2636 6610,2645 6613,2654 6617,2663 6620,2672 6624,2681 6628,2690 6632,2698 6637,2707 6642,2715 6646,2723 6651,2731 6657,2739 6662,2747 6667,2755 6673,2762 6679,2769 6685,2777 6691,2784 6698,2791 6704,2797 6711,2804 6718,2811 6725,2817 6732,2823 6740,2829 6747,2835 6755,2840 6763,2846 6771,2851 6779,2856 6787,2861 6795,2865 6803,2870 6812,2874 6821,2878 6829,2882 6838,2886 6847,2889 6856,2892 6866,2895 6875,2898 6884,2901 6894,2903 6903,2905 6913,2907 6923,2909 6932,2910 6942,2911 6952,2912 6962,2913 6972,2913 6983,2913 6993,2913 7003,2913 7013,2912 7023,2911 7033,2910 7043,2909 7052,2907 7062,2906 7072,2904 7081,2901 7090,2899 7100,2896 7109,2893 7118,2890 7127,2886 7136,2883 7145,2879 7153,2875 7162,2871 7170,2866 7179,2862 7187,2857 7195,2852 7203,2847 7211,2841 7218,2836 7226,2830 7233,2824 7240,2818 7248,2812 7254,2805 7261,2799 7268,2792 7274,2785 7281,2778 7287,2771 7293,2763 7298,2756 7304,2748 7309,2741 7315,2733 7320,2725 7325,2716 7329,2708 7334,2700 7338,2691 7342,2683 7346,2674 7350,2665 7353,2656 7356,2647 7359,2638 7362,2628 7365,2619 7367,2609 7369,2600 7371,2590 7373,2581 7374,2571 7375,2561 7376,2551 7377,2541 7377,2531 7377,2521 7377,2510 7377,2500 7376,2490 7375,2480 7374,2470 7373,2461 7371,2451 7369,2441 7367,2432 7365,2422 7362,2413 7360,2403 7357,2394 7354,2385 7350,2376 7347,2367 7343,2358 7339,2350 7335,2341 7330,2333 7325,2324 7321,2316 7316,2308 7310,2300 7305,2293 7299,2285 7294,2277 7288,2270 7282,2263 7275,2256 7269,2249 7262,2242 7256,2235 7249,2229 7242,2223 7235,2216 7227,2211 7220,2205 7212,2199 7204,2194 7196,2188 7188,2183 7180,2179 7172,2174 7163,2169 7155,2165 7146,2161 7138,2157 7129,2154 7120,2150 7111,2147 7101,2144 7092,2141 7083,2139 7073,2136 7064,2134 7054,2132 7044,2131 7034,2129 7025,2128 7015,2127 7005,2127 6995,2126 6984,2126 6974,2126 6964,2126 6954,2127 6944,2128 6934,2129 6924,2130 6915,2132 6905,2134 6895,2136 6886,2138 6877,2141 6867,2143 6858,2146 6849,2150 6840,2153 6831,2157 6822,2160 6814,2164 6805,2169 6797,2173 6788,2178 6780,2183 6772,2188 6764,2193 6756,2198 6749,2204 6741,2209 6734,2215 6726,2221 6719,2228 6712,2234 6706,2241 6699,2247 6693,2254 6686,2261 6680,2269 6674,2276 6669,2283 6663,2291 6658,2299 6652,2307 6647,2315 6642,2323 6638,2331 6633,2340 6629,2348 6625,2357 6621,2366 6617,2375 6614,2384 6611,2393 6608,2402 6605,2411 6602,2420 6600,2430 6598,2439 6596,2449 6594,2459 6593,2469 6592,2479 6591,2489 6590,2499 6590,2509 "/>
  <polygon class="fil0 str0" points="8709,3672 7064,3316 7054,3314 7044,3312 7034,3311 7024,3309 7015,3308 7005,3308 6995,3307 6985,3307 6975,3307 6965,3307 6956,3308 6946,3309 6936,3309 6927,3311 6917,3312 6908,3314 6899,3316 6889,3318 6880,3320 6871,3323 6862,3325 6853,3328 6844,3332 6835,3335 6826,3339 6817,3343 6809,3347 6800,3351 6792,3355 6784,3360 6776,3365 6768,3370 6760,3375 6752,3380 6744,3386 6737,3392 6730,3398 6722,3404 6715,3410 6708,3417 6702,3423 6695,3430 6689,3437 6682,3444 6676,3451 6670,3459 6664,3466 6659,3474 6653,3482 6648,3490 6643,3498 6638,3507 6634,3515 6629,3524 6625,3533 6621,3542 6617,3551 6613,3560 6610,3569 6607,3579 6604,3588 6601,3598 6598,3608 6596,3617 6594,3627 6592,3637 6591,3647 6590,3657 6589,3667 6588,3677 6587,3687 6587,3697 6587,3706 6587,3716 6588,3726 6589,3736 6590,3745 6591,3755 6592,3764 6594,3774 6596,3783 6598,3792 6600,3802 6603,3811 6606,3820 6609,3829 6612,3838 6615,3847 6619,3856 6623,3864 6627,3873 6631,3881 6635,3890 6640,3898 6645,3906 6650,3914 6655,3922 6660,3930 6666,3937 6672,3945 6678,3952 6684,3959 6690,3966 6697,3973 6703,3980 6710,3987 6717,3993 6724,3999 6731,4006 6739,4011 6747,4017 6754,4023 6762,4028 6770,4034 6778,4039 6787,4043 6795,4048 6804,4053 6813,4057 6822,4061 6831,4065 6840,4068 6849,4072 6859,4075 6868,4078 6878,4081 6888,4083 6897,4086 7870,4296 7873,4297 7876,4298 7879,4299 7882,4300 7884,4301 7887,4302 7890,4304 7893,4305 7895,4307 7898,4308 7900,4310 7903,4312 7905,4314 7907,4316 7909,4318 7911,4320 7913,4323 7915,4325 7917,4327 7919,4330 7920,4332 7922,4335 7923,4338 7925,4341 7926,4343 7927,4346 7928,4349 7929,4352 7930,4355 7930,4358 7931,4361 7931,4364 7931,4367 7932,4371 7932,4374 7932,4377 7931,4380 7931,4383 7931,4386 7930,4389 7929,4392 7929,4395 7928,4398 7927,4401 7926,4403 7924,4406 7923,4409 7922,4412 7920,4414 7918,4417 7917,4419 7915,4422 7913,4424 7911,4426 7909,4428 7907,4431 7904,4433 7902,4435 7900,4436 7897,4438 7895,4440 7892,4442 7889,4443 7886,4444 7874,4450 7862,4456 7849,4461 7837,4467 7824,4472 7812,4478 7799,4483 7787,4488 7774,4493 7762,4498 7749,4503 7736,4508 7724,4513 7711,4517 7698,4522 7686,4526 7673,4531 7660,4535 7647,4539 7635,4544 7622,4548 7609,4552 7596,4556 7583,4559 7570,4563 7557,4567 7544,4570 7532,4574 7519,4577 7506,4581 7493,4584 7480,4587 7466,4590 7453,4593 7440,4596 7427,4599 7414,4602 7401,4604 7388,4607 7375,4609 7362,4612 7348,4614 7335,4616 7322,4619 7309,4621 7296,4623 7282,4625 7269,4626 7256,4628 7243,4630 7229,4631 7216,4633 7203,4634 7190,4636 7176,4637 7163,4638 7150,4639 7137,4640 7123,4641 7110,4642 7097,4643 7083,4643 7070,4644 7057,4644 7043,4645 7030,4645 7017,4645 7003,4646 6990,4646 6977,4646 6963,4646 6950,4645 6937,4645 6923,4645 6910,4644 6897,4644 6883,4643 6870,4643 6857,4642 6843,4641 6830,4640 6817,4639 6803,4638 6790,4637 6777,4636 6763,4634 6750,4633 6737,4631 6723,4630 6710,4628 6697,4626 6684,4624 6670,4623 6657,4620 6644,4618 6631,4616 6618,4614 6604,4612 6591,4609 6578,4607 6565,4604 6552,4601 6538,4599 6525,4596 6512,4593 6499,4590 6486,4587 6473,4583 6460,4580 6447,4577 6434,4573 6421,4570 6408,4566 6395,4563 6382,4559 6369,4555 6356,4551 6343,4547 6330,4543 6317,4539 6304,4534 6292,4530 6279,4525 6266,4521 6253,4516 6240,4512 6228,4507 6215,4502 6202,4497 6190,4492 6177,4487 6165,4482 6152,4476 6140,4471 6127,4466 6115,4460 6102,4455 6090,4449 6078,4443 6066,4437 6054,4432 6041,4426 6029,4420 6017,4413 6005,4407 5993,4401 5981,4395 5970,4388 5958,4382 5946,4375 5934,4369 5923,4362 5911,4355 5899,4349 5888,4342 5876,4335 5865,4328 5854,4321 5842,4313 5831,4306 5820,4299 5809,4292 5797,4284 5786,4277 5775,4269 5764,4261 5753,4254 5743,4246 5732,4238 5721,4230 5710,4222 5699,4214 5689,4206 5678,4198 5668,4190 5657,4181 5647,4173 5637,4165 5626,4156 5616,4148 5606,4139 5596,4130 5586,4121 5576,4113 5566,4104 5556,4095 5546,4086 5536,4077 5526,4068 5517,4059 5507,4049 5497,4040 5488,4031 5478,4021 5469,4012 5460,4002 5450,3993 5441,3983 5432,3973 5423,3964 5414,3954 5405,3944 5396,3934 5387,3924 5378,3914 5370,3904 5361,3894 5352,3883 5344,3873 5335,3863 5327,3852 5319,3842 5310,3831 5302,3821 5294,3810 5286,3800 5278,3789 5270,3778 5262,3767 5254,3757 5247,3746 5239,3735 5231,3724 5224,3713 5216,3701 5209,3690 5201,3679 5194,3668 5187,3656 5180,3645 5173,3634 5166,3622 5159,3611 5152,3599 5145,3587 5138,3576 5132,3564 5125,3552 5119,3541 5112,3529 5106,3517 5100,3505 5093,3493 5087,3481 5081,3469 5075,3457 5069,3444 5063,3432 5058,3420 5052,3408 5046,3395 5041,3383 5035,3371 5030,3358 5024,3346 5019,3333 5018,3329 5017,3326 5016,3322 5015,3318 5014,3314 5014,3311 5013,3307 5013,3303 5017,1728 5017,1724 5017,1720 5018,1716 5018,1712 5019,1709 5020,1705 5021,1701 5023,1698 5030,1680 5038,1663 5045,1646 5053,1629 5061,1612 5069,1596 5077,1579 5085,1562 5094,1546 5102,1529 5111,1513 5120,1497 5129,1481 5138,1465 5147,1449 5156,1433 5166,1417 5175,1401 5185,1386 5195,1370 5205,1355 5215,1340 5225,1324 5236,1309 5246,1294 5257,1279 5267,1265 5278,1250 5289,1235 5300,1221 5311,1207 5323,1192 5334,1178 5346,1164 5357,1150 5369,1136 5381,1123 5393,1109 5405,1095 5417,1082 5430,1069 5442,1055 5455,1042 5467,1029 5480,1017 5493,1004 5506,991 5519,979 5532,966 5545,954 5559,942 5572,930 5586,918 5599,906 5613,894 5627,883 5641,871 5655,860 5669,849 5683,838 5698,827 5712,816 5726,805 5741,795 5756,784 5771,774 5785,763 5800,753 5815,743 5830,734 5846,724 5861,714 5876,705 5892,695 5907,686 5923,677 5939,668 5954,659 5970,651 5986,642 6002,634 6018,625 6034,617 6051,609 6067,601 6083,594 6100,586 6116,579 6133,571 6149,564 6166,557 6183,550 6200,543 6217,537 6234,530 6251,524 6268,518 6285,512 6302,506 6320,500 6337,494 6354,489 6372,484 6389,478 6407,473 6425,468 6442,464 6460,459 6478,455 6496,450 6514,446 6532,442 6550,438 6568,435 6586,431 6604,428 6622,425 6640,422 6659,419 6677,416 6695,413 6714,411 6732,409 6751,406 6769,405 6788,403 6807,401 6825,400 6844,398 6863,397 6881,396 6900,395 6918,395 6937,394 6956,394 6974,394 6993,394 7011,394 7030,394 7048,395 7067,395 7085,396 7104,397 7122,398 7140,399 7159,401 7177,402 7195,404 7213,406 7232,408 7250,410 7268,413 7286,415 7304,418 7322,421 7340,424 7358,427 7376,430 7394,434 7412,437 7430,441 7447,445 7465,449 7483,453 7500,457 7518,462 7535,467 7553,471 7570,476 7588,481 7605,487 7622,492 7640,497 7657,503 7674,509 7691,515 7708,521 7725,527 7742,534 7759,540 7775,547 7792,554 7809,560 7825,568 7842,575 7859,582 7875,590 7891,597 7908,605 7924,613 7940,621 7956,629 7972,638 7988,646 8004,655 8020,663 8035,672 8051,681 8067,690 8082,700 8097,709 8113,718 8128,728 8143,738 8158,748 8173,758 8188,768 8203,778 8218,789 8233,799 8247,810 8262,821 8276,832 8290,843 8305,854 8319,865 8333,877 8347,888 8361,900 8375,912 8388,924 8402,936 8415,948 8429,960 8442,973 8455,985 8468,998 8481,1011 8494,1024 8507,1037 8520,1050 8532,1063 8545,1077 8557,1090 8569,1104 8581,1117 8594,1131 8605,1145 8617,1159 8629,1173 8641,1188 8652,1202 8663,1217 8675,1231 8686,1246 8697,1261 8708,1276 8719,1291 8729,1306 8740,1322 8750,1337 8760,1352 8771,1368 8781,1384 8791,1400 8800,1416 8810,1432 8819,1448 8829,1464 8838,1480 8847,1496 8856,1513 8865,1529 8873,1546 8882,1562 8890,1579 8898,1595 8906,1612 8914,1629 8922,1646 8929,1662 8936,1679 8944,1696 8951,1713 8958,1730 8964,1747 8971,1764 8977,1782 8984,1799 8990,1816 8996,1833 9001,1851 9007,1868 9013,1885 9018,1903 9023,1920 9028,1938 9033,1955 9038,1973 9043,1990 9047,2008 9051,2026 9055,2043 9059,2061 9063,2079 9067,2097 9070,2114 9074,2132 9077,2150 9080,2168 9083,2186 9086,2203 9088,2221 9091,2239 9093,2257 9095,2275 9097,2293 9099,2311 9101,2329 9102,2347 9104,2365 9105,2383 9106,2401 9107,2419 9108,2437 9108,2455 9109,2473 9109,2491 9109,2509 9109,2527 9109,2545 9109,2563 9109,2581 9108,2600 9107,2618 9106,2636 9105,2654 9104,2672 9103,2690 9101,2708 9099,2726 9098,2744 9096,2761 9094,2779 9091,2797 9089,2815 9086,2833 9084,2851 9081,2869 9078,2887 9074,2905 9071,2922 9068,2940 9064,2958 9060,2976 9056,2993 9052,3011 9048,3029 9043,3046 9039,3064 9034,3081 9029,3099 9024,3116 9019,3134 9014,3151 9008,3169 9002,3186 8997,3203 8991,3221 8985,3238 8978,3255 8972,3272 8965,3289 8959,3306 8952,3323 8945,3340 8938,3357 8930,3374 8923,3391 8915,3408 8907,3424 8899,3441 8891,3458 8883,3474 8875,3491 8866,3507 8857,3524 8849,3540 8840,3556 8830,3573 8821,3589 8812,3605 8802,3621 8792,3637 8791,3639 8789,3642 8787,3644 8785,3647 8783,3649 8781,3651 8779,3653 8776,3655 8774,3657 8772,3659 8769,3661 8767,3662 8764,3664 8762,3665 8759,3667 8756,3668 8753,3669 8751,3670 8748,3671 8745,3672 8742,3672 8739,3673 8736,3673 8733,3674 8730,3674 8727,3674 8724,3674 8721,3674 8718,3674 8715,3673 8712,3673 "/>
 </g>
</svg>
