<?xml version="1.0" encoding="UTF-8"?>
<!DOCTYPE svg PUBLIC "-//W3C//DTD SVG 1.1//EN" "http://www.w3.org/Graphics/SVG/1.1/DTD/svg11.dtd">
<!-- Creator: CorelDRAW X6 -->
<svg xmlns="http://www.w3.org/2000/svg" xml:space="preserve" width="24in" height="18in" version="1.1" style="shape-rendering:geometricPrecision; text-rendering:geometricPrecision; image-rendering:optimizeQuality; fill-rule:evenodd; clip-rule:evenodd"
viewBox="0 0 24000 18000"
 xmlns:xlink="http://www.w3.org/1999/xlink">
 <defs>
  <style type="text/css">
   <![CDATA[
    .str0 {stroke:red;stroke-width:3;stroke-linejoin:bevel}
    .fil0 {fill:none}
   ]]>
  </style>
 </defs>
 <g id="Layer_x0020_1">
  <metadata id="CorelCorpID_0Corel-Layer"/>
  <g id="_651357232">
   <path class="fil0 str0" d="M2186 1682c-217,0 -394,176 -394,394 0,217 176,394 394,394 217,0 394,-176 394,-394 0,-217 -176,-394 -394,-394z"/>
   <path class="fil0 str0" d="M2974 107c10,0 21,2 30,6 935,390 1466,1386 1267,2379 -199,994 -1071,1709 -2085,1709 -1013,0 -1886,-715 -2085,-1709 -199,-994 332,-1990 1267,-2379 10,-4 20,-6 30,-6l1575 0z"/>
  </g>
  <g id="_651000432">
   <path class="fil0 str0" d="M6360 414c937,99 1632,914 1583,1855 -50,941 -827,1678 -1769,1678 -942,0 -1720,-737 -1769,-1678 -50,-941 646,-1756 1583,-1855 50,-5 88,-48 88,-98l0 -10c0,-35 19,-68 49,-85 30,-18 68,-18 98,0 30,18 49,50 49,85l0 10c0,50 38,93 88,98z"/>
   <path class="fil0 str0" d="M6071 3447c0,60 -27,117 -74,154 -47,37 -109,51 -167,38 -557,-130 -992,-564 -1121,-1121 -14,-58 0,-120 38,-167 37,-47 94,-74 154,-74l974 0c52,0 102,21 139,58 37,37 58,87 58,139l0 974z"/>
   <path class="fil0 str0" d="M7631 1837c14,58 0,120 -38,167 -37,47 -94,74 -154,74l-974 0c-52,0 -102,-21 -139,-58 -37,-37 -58,-87 -58,-139l0 -974c0,-60 27,-117 74,-154 47,-37 109,-51 167,-38 557,130 992,564 1121,1121z"/>
   <path class="fil0 str0" d="M5830 716c58,-14 120,0 167,38 47,37 74,94 74,154l0 974c0,109 -88,197 -197,197l-974 0c-60,0 -117,-27 -154,-74 -37,-47 -51,-109 -38,-167 130,-557 564,-992 1121,-1121z"/>
   <path class="fil0 str0" d="M7439 2276c60,0 117,27 154,74 37,47 51,109 38,167 -130,557 -564,992 -1121,1121 -58,14 -120,0 -167,-38 -47,-37 -74,-94 -74,-154l0 -974c0,-52 21,-102 58,-139 37,-37 87,-58 139,-58l974 0z"/>
  </g>
  <g id="_649003152">
   <path class="fil0 str0" d="M4152 6332c-217,0 -394,-176 -394,-394 0,-217 176,-394 394,-394 217,0 394,176 394,394 0,217 -176,394 -394,394z"/>
   <path class="fil0 str0" d="M4939 7906c10,0 21,-2 30,-6 935,-390 1466,-1386 1267,-2379 -199,-994 -1071,-1709 -2085,-1709 -1013,0 -1886,715 -2085,1709 -199,994 332,1990 1267,2379 10,4 20,6 30,6l1575 0z"/>
  </g>
 </g>
</svg>
