  0
SECTION
  2
HEADER
  9
$ACADVER
  1
AC1009
  9
$DWGCODEPAGE
  3
ansi_1252
  9
$INSBASE
 10
0.0
 20
0.0
 30
0.0
  9
$EXTMIN
 10
15.3558123121777
 20
298.7017469351476
 30
0.0
  9
$EXTMAX
 10
515.3558123121777
 20
598.7145969005352
 30
0.0
  9
$LIMMIN
 10
0.0
 20
0.0
  9
$LIMMAX
 10
12.0
 20
9.0
  9
$ORTHOMODE
 70
     0
  9
$REGENMODE
 70
     1
  9
$FILLMODE
 70
     1
  9
$QTEXTMODE
 70
     0
  9
$MIRRTEXT
 70
     1
  9
$DRAGMODE
 70
     2
  9
$LTSCALE
 40
1.0
  9
$OSMODE
 70
    37
  9
$ATTMODE
 70
     1
  9
$TEXTSIZE
 40
0.2
  9
$TRACEWID
 40
0.05
  9
$TEXTSTYLE
  7
STANDARD
  9
$CLAYER
  8
0
  9
$CELTYPE
  6
BYLAYER
  9
$CECOLOR
 62
   256
  9
$DIMSCALE
 40
1.0
  9
$DIMASZ
 40
0.18
  9
$DIMEXO
 40
0.0625
  9
$DIMDLI
 40
0.38
  9
$DIMRND
 40
0.0
  9
$DIMDLE
 40
0.0
  9
$DIMEXE
 40
0.18
  9
$DIMTP
 40
0.0
  9
$DIMTM
 40
0.0
  9
$DIMTXT
 40
0.18
  9
$DIMCEN
 40
0.09
  9
$DIMTSZ
 40
0.0
  9
$DIMTOL
 70
     0
  9
$DIMLIM
 70
     0
  9
$DIMTIH
 70
     1
  9
$DIMTOH
 70
     1
  9
$DIMSE1
 70
     0
  9
$DIMSE2
 70
     0
  9
$DIMTAD
 70
     0
  9
$DIMZIN
 70
     0
  9
$DIMBLK
  1

  9
$DIMASO
 70
     1
  9
$DIMSHO
 70
     1
  9
$DIMPOST
  1

  9
$DIMAPOST
  1

  9
$DIMALT
 70
     0
  9
$DIMALTD
 70
     2
  9
$DIMALTF
 40
25.4
  9
$DIMLFAC
 40
1.0
  9
$DIMTOFL
 70
     0
  9
$DIMTVP
 40
0.0
  9
$DIMTIX
 70
     0
  9
$DIMSOXD
 70
     0
  9
$DIMSAH
 70
     0
  9
$DIMBLK1
  1

  9
$DIMBLK2
  1

  9
$DIMSTYLE
  2
STANDARD
  9
$DIMCLRD
 70
     0
  9
$DIMCLRE
 70
     0
  9
$DIMCLRT
 70
     0
  9
$DIMTFAC
 40
1.0
  9
$DIMGAP
 40
0.09
  9
$LUNITS
 70
     2
  9
$LUPREC
 70
     4
  9
$SKETCHINC
 40
0.1
  9
$FILLETRAD
 40
0.5
  9
$AUNITS
 70
     0
  9
$AUPREC
 70
     0
  9
$MENU
  1
.
  9
$ELEVATION
 40
0.0
  9
$PELEVATION
 40
0.0
  9
$THICKNESS
 40
0.0
  9
$LIMCHECK
 70
     0
  9
$CHAMFERA
 40
0.5
  9
$CHAMFERB
 40
0.5
  9
$SKPOLY
 70
     0
  9
$TDCREATE
 40
2454910.5
  9
$TDUPDATE
 40
2456931.683997442
  9
$TDINDWG
 40
0.0000000116
  9
$TDUSRTIMER
 40
0.0000000116
  9
$USRTIMER
 70
     1
  9
$ANGBASE
 50
0.0
  9
$ANGDIR
 70
     0
  9
$PDMODE
 70
     0
  9
$PDSIZE
 40
0.0
  9
$PLINEWID
 40
0.0
  9
$COORDS
 70
     1
  9
$SPLFRAME
 70
     0
  9
$SPLINETYPE
 70
     6
  9
$SPLINESEGS
 70
     8
  9
$ATTDIA
 70
     0
  9
$ATTREQ
 70
     1
  9
$HANDLING
 70
     1
  9
$HANDSEED
  5
2EF
  9
$SURFTAB1
 70
     6
  9
$SURFTAB2
 70
     6
  9
$SURFTYPE
 70
     6
  9
$SURFU
 70
     6
  9
$SURFV
 70
     6
  9
$UCSNAME
  2

  9
$UCSORG
 10
0.0
 20
0.0
 30
0.0
  9
$UCSXDIR
 10
1.0
 20
0.0
 30
0.0
  9
$UCSYDIR
 10
0.0
 20
1.0
 30
0.0
  9
$PUCSNAME
  2

  9
$PUCSORG
 10
0.0
 20
0.0
 30
0.0
  9
$PUCSXDIR
 10
1.0
 20
0.0
 30
0.0
  9
$PUCSYDIR
 10
0.0
 20
1.0
 30
0.0
  9
$USERI1
 70
     0
  9
$USERI2
 70
     0
  9
$USERI3
 70
     0
  9
$USERI4
 70
     0
  9
$USERI5
 70
     0
  9
$USERR1
 40
0.0
  9
$USERR2
 40
0.0
  9
$USERR3
 40
0.0
  9
$USERR4
 40
0.0
  9
$USERR5
 40
0.0
  9
$WORLDVIEW
 70
     1
  9
$SHADEDGE
 70
     3
  9
$SHADEDIF
 70
    70
  9
$TILEMODE
 70
     1
  9
$MAXACTVP
 70
    64
  9
$PLIMCHECK
 70
     0
  9
$PEXTMIN
 10
1.000000000000000E+20
 20
1.000000000000000E+20
 30
1.000000000000000E+20
  9
$PEXTMAX
 10
-1.000000000000000E+20
 20
-1.000000000000000E+20
 30
-1.000000000000000E+20
  9
$PLIMMIN
 10
0.0
 20
0.0
  9
$PLIMMAX
 10
12.0
 20
9.0
  9
$UNITMODE
 70
     0
  9
$VISRETAIN
 70
     1
  9
$PLINEGEN
 70
     0
  9
$PSLTSCALE
 70
     1
  0
ENDSEC
  0
SECTION
  2
TABLES
  0
TABLE
  2
VPORT
 70
     1
  0
VPORT
  2
*ACTIVE
 70
     0
 10
0.0
 20
0.0
 11
1.0
 21
1.0
 12
10.42990654205607
 22
4.5
 13
0.0
 23
0.0
 14
0.5
 24
0.5
 15
0.5
 25
0.5
 16
0.0
 26
0.0
 36
1.0
 17
0.0
 27
0.0
 37
0.0
 40
9.0
 41
1.972972972850329
 42
50.0
 43
0.0
 44
0.0
 50
0.0
 51
0.0
 71
     0
 72
   100
 73
     1
 74
     3
 75
     0
 76
     0
 77
     0
 78
     0
  0
ENDTAB
  0
TABLE
  2
LTYPE
 70
     2
  0
LTYPE
  2
CONTINUOUS
 70
     0
  3
Solid line
 72
    65
 73
     0
 40
0.0
  0
LTYPE
  2
CONTINUOUS2
 70
     0
  3
Solid Line
 72
    65
 73
     0
 40
0.0
  0
ENDTAB
  0
TABLE
  2
LAYER
 70
     2
  0
LAYER
  2
0
 70
     0
 62
     7
  6
CONTINUOUS
  0
LAYER
  2
LAYER_1
 70
     0
 62
    18
  6
CONTINUOUS
  0
ENDTAB
  0
TABLE
  2
STYLE
 70
     1
  0
STYLE
  2
STANDARD
 70
     0
 40
0.0
 41
1.0
 50
0.0
 71
     0
 42
0.2
  3
txt
  4

  0
ENDTAB
  0
TABLE
  2
VIEW
 70
     0
  0
ENDTAB
  0
TABLE
  2
UCS
 70
     0
  0
ENDTAB
  0
TABLE
  2
APPID
 70
     1
  0
APPID
  2
ACAD
 70
     0
  0
ENDTAB
  0
TABLE
  2
DIMSTYLE
 70
     1
  0
DIMSTYLE
  2
STANDARD
 70
     0
  3

  4

  5

  6

  7

 40
1.0
 41
0.18
 42
0.0625
 43
0.38
 44
0.18
 45
0.0
 46
0.0
 47
0.0
 48
0.0
140
0.18
141
0.09
142
0.0
143
25.4
144
1.0
145
0.0
146
1.0
147
0.09
 71
     0
 72
     0
 73
     1
 74
     1
 75
     0
 76
     0
 77
     0
 78
     0
170
     0
171
     2
172
     0
173
     0
174
     0
175
     0
176
     0
177
     0
178
     0
  0
ENDTAB
  0
ENDSEC
  0
SECTION
  2
BLOCKS
  0
BLOCK
  8
0
  2
$MODEL_SPACE
 70
     0
 10
0.0
 20
0.0
 30
0.0
  3
$MODEL_SPACE
  1

  0
ENDBLK
  5
21
  8
0
  0
BLOCK
 67
     1
  8
0
  2
$PAPER_SPACE
 70
     0
 10
0.0
 20
0.0
 30
0.0
  3
$PAPER_SPACE
  1

  0
ENDBLK
  5
1D
 67
     1
  8
0
  0
ENDSEC
  0
SECTION
  2
ENTITIES
  0
POLYLINE
  5
41
  8
LAYER_1
 66
     1
 10
0.0
 20
0.0
 30
0.0
  0
VERTEX
  5
73
  8
LAYER_1
 10
365.3558123121777
 20
538.7145969005352
 30
0.0
  0
VERTEX
  5
74
  8
LAYER_1
 10
365.3558123121777
 20
593.7145969005352
 30
0.0
  0
SEQEND
  5
75
  8
LAYER_1
  0
POLYLINE
  5
42
  8
LAYER_1
 66
     1
 10
0.0
 20
0.0
 30
0.0
  0
VERTEX
  5
76
  8
LAYER_1
 10
365.3558123121777
 20
453.7145969005352
 30
0.0
  0
VERTEX
  5
77
  8
LAYER_1
 10
365.3558123121777
 20
496.7145969005352
 30
0.0
  0
SEQEND
  5
78
  8
LAYER_1
  0
POLYLINE
  5
43
  8
LAYER_1
 66
     1
 10
0.0
 20
0.0
 30
0.0
 70
     1
  0
VERTEX
  5
79
  8
LAYER_1
 10
255.3851445524884
 20
470.3716047952137
 30
0.0
 42
0.176751413917213
  0
VERTEX
  5
7A
  8
LAYER_1
 10
256.0627662576433
 20
469.1929232355416
 30
0.0
 42
0.1741482483483074
  0
VERTEX
  5
7B
  8
LAYER_1
 10
257.3558123121777
 20
468.7145969005352
 30
0.0
  0
VERTEX
  5
7C
  8
LAYER_1
 10
273.3558123121777
 20
468.7145969005352
 30
0.0
 42
0.1234620421061717
  0
VERTEX
  5
7D
  8
LAYER_1
 10
274.3850867394008
 20
469.0142008586664
 30
0.0
 42
0.2524933074909342
  0
VERTEX
  5
7E
  8
LAYER_1
 10
275.3523038020853
 20
470.6016880343723
 30
0.0
 42
0.0053750898619884
  0
VERTEX
  5
7F
  8
LAYER_1
 10
275.3542844133373
 20
470.6490277147242
 30
0.0
 42
0.0038829979000143
  0
VERTEX
  5
80
  8
LAYER_1
 10
275.3558123121777
 20
470.7145969005352
 30
0.0
  0
VERTEX
  5
81
  8
LAYER_1
 10
275.3558123121777
 20
531.7145969005352
 30
0.0
 42
0.1234577084588214
  0
VERTEX
  5
82
  8
LAYER_1
 10
275.0562178871594
 20
532.7438668819639
 30
0.0
 42
0.2524933858801292
  0
VERTEX
  5
83
  8
LAYER_1
 10
273.4687829008579
 20
533.7110864724882
 30
0.0
 42
0.0053789954497116
  0
VERTEX
  5
84
  8
LAYER_1
 10
273.4214373277064
 20
533.7130677007458
 30
0.0
 42
0.0038829979003778
  0
VERTEX
  5
85
  8
LAYER_1
 10
273.3558123121777
 20
533.7145969005352
 30
0.0
  0
VERTEX
  5
86
  8
LAYER_1
 10
257.3558123121777
 20
533.7145969005352
 30
0.0
 42
0.1234577084589475
  0
VERTEX
  5
87
  8
LAYER_1
 10
256.3265423307495
 20
533.415002475517
 30
0.0
 42
0.2524933858799431
  0
VERTEX
  5
88
  8
LAYER_1
 10
255.3593227402246
 20
531.827567489215
 30
0.0
 42
0.0053789954478602
  0
VERTEX
  5
89
  8
LAYER_1
 10
255.3573415119671
 20
531.7802219160643
 30
0.0
 42
0.0038829979004148
  0
VERTEX
  5
8A
  8
LAYER_1
 10
255.3558123121777
 20
531.7145969005352
 30
0.0
  0
VERTEX
  5
8B
  8
LAYER_1
 10
255.3558123121777
 20
470.7144969005352
 30
0.0
 42
0.0189679471444414
  0
VERTEX
  5
8C
  8
LAYER_1
 10
255.3645088504809
 20
470.5311806723871
 30
0.0
 42
0.0216365472004368
  0
SEQEND
  5
8D
  8
LAYER_1
  0
POLYLINE
  5
44
  8
LAYER_1
 66
     1
 10
0.0
 20
0.0
 30
0.0
  0
VERTEX
  5
8E
  8
LAYER_1
 10
165.3558123121777
 20
538.7145969005352
 30
0.0
  0
VERTEX
  5
8F
  8
LAYER_1
 10
165.3558123121777
 20
593.7145969005352
 30
0.0
  0
SEQEND
  5
90
  8
LAYER_1
  0
POLYLINE
  5
45
  8
LAYER_1
 66
     1
 10
0.0
 20
0.0
 30
0.0
  0
VERTEX
  5
91
  8
LAYER_1
 10
165.3558123121777
 20
453.7145969005352
 30
0.0
  0
VERTEX
  5
92
  8
LAYER_1
 10
165.3558123121777
 20
496.7145969005352
 30
0.0
  0
SEQEND
  5
93
  8
LAYER_1
  0
POLYLINE
  5
46
  8
LAYER_1
 66
     1
 10
0.0
 20
0.0
 30
0.0
 70
     1
  0
VERTEX
  5
94
  8
LAYER_1
 10
385.3351056528093
 20
529.1436856686865
 30
0.0
 42
0.1752815666738795
  0
VERTEX
  5
95
  8
LAYER_1
 10
383.8830173556906
 20
532.2478398194902
 30
0.0
 42
0.1760896667368602
  0
VERTEX
  5
96
  8
LAYER_1
 10
380.7923395073827
 20
533.693837984453
 30
0.0
 42
0.010370506438937
  0
VERTEX
  5
97
  8
LAYER_1
 10
380.633529252275
 20
533.7046951068529
 30
0.0
 42
0.0059399314230987
  0
VERTEX
  5
98
  8
LAYER_1
 10
380.3558123121777
 20
533.7145969005352
 30
0.0
  0
VERTEX
  5
99
  8
LAYER_1
 10
304.8303123121777
 20
533.7145969005352
 30
0.0
 42
0.1156447868946835
  0
VERTEX
  5
9A
  8
LAYER_1
 10
303.8698013658903
 20
533.4549153929169
 30
0.0
 42
0.2325438377983361
  0
VERTEX
  5
9B
  8
LAYER_1
 10
302.8570281026312
 20
532.034838634717
 30
0.0
 42
0.0892558278955587
  0
VERTEX
  5
9C
  8
LAYER_1
 10
302.8678652246066
 20
531.3351703146968
 30
0.0
 42
0.0876382526270503
  0
VERTEX
  5
9D
  8
LAYER_1
 10
303.1244123121777
 20
530.6704969005352
 30
0.0
  0
VERTEX
  5
9E
  8
LAYER_1
 10
319.3851123121777
 20
504.1042969005352
 30
0.0
 42
0.0788290236882555
  0
VERTEX
  5
9F
  8
LAYER_1
 10
320.5390111961486
 20
502.8155700827019
 30
0.0
 42
0.1594893382479428
  0
VERTEX
  5
A0
  8
LAYER_1
 10
323.3844324092134
 20
501.7220950110722
 30
0.0
 42
0.0055776083619937
  0
VERTEX
  5
A1
  8
LAYER_1
 10
323.4872420659876
 20
501.7180398315381
 30
0.0
 42
0.003533518351269
  0
VERTEX
  5
A2
  8
LAYER_1
 10
323.6496123121777
 20
501.7145969005352
 30
0.0
  0
VERTEX
  5
A3
  8
LAYER_1
 10
380.3558123121777
 20
501.7145969005352
 30
0.0
 42
0.0774726893168772
  0
VERTEX
  5
A4
  8
LAYER_1
 10
382.0135939234096
 20
502.0095567353704
 30
0.0
 42
0.1551035002670797
  0
VERTEX
  5
A5
  8
LAYER_1
 10
384.4098800111954
 20
503.7880156782706
 30
0.0
 42
0.0781426297864567
  0
VERTEX
  5
A6
  8
LAYER_1
 10
385.0840503622032
 20
505.1198253287001
 30
0.0
 42
0.0720416573504401
  0
VERTEX
  5
A7
  8
LAYER_1
 10
385.3558123121777
 20
506.7144969005352
 30
0.0
  0
VERTEX
  5
A8
  8
LAYER_1
 10
385.3558123121777
 20
528.7145969005352
 30
0.0
 42
0.0060275577701716
  0
VERTEX
  5
A9
  8
LAYER_1
 10
385.3459184807595
 20
528.9880530774817
 30
0.0
 42
0.0105730371912336
  0
SEQEND
  5
AA
  8
LAYER_1
  0
POLYLINE
  5
47
  8
LAYER_1
 66
     1
 10
0.0
 20
0.0
 30
0.0
 70
     1
  0
VERTEX
  5
AB
  8
LAYER_1
 10
145.3765148539731
 20
506.2856568053821
 30
0.0
 42
0.1752594081576598
  0
VERTEX
  5
AC
  8
LAYER_1
 10
146.8286225937499
 20
503.1812684858077
 30
0.0
 42
0.176106886874012
  0
VERTEX
  5
AD
  8
LAYER_1
 10
149.9187994001484
 20
501.7353789147312
 30
0.0
 42
0.0103705064390521
  0
VERTEX
  5
AE
  8
LAYER_1
 10
150.0777863608864
 20
501.7245097117849
 30
0.0
 42
0.0059399314233562
  0
VERTEX
  5
AF
  8
LAYER_1
 10
150.3558123121777
 20
501.7145969005352
 30
0.0
  0
VERTEX
  5
B0
  8
LAYER_1
 10
207.0620123121777
 20
501.7145969005352
 30
0.0
 42
0.07882210937905
  0
VERTEX
  5
B1
  8
LAYER_1
 10
208.7637061312229
 20
502.0260022441025
 30
0.0
 42
0.1595089126658524
  0
VERTEX
  5
B2
  8
LAYER_1
 10
211.181687454167
 20
503.8820296974909
 30
0.0
 42
0.0055730670317344
  0
VERTEX
  5
B3
  8
LAYER_1
 10
211.2387943529318
 20
503.9675735010126
 30
0.0
 42
0.0035286311572603
  0
VERTEX
  5
B4
  8
LAYER_1
 10
211.3265123121777
 20
504.1042969005352
 30
0.0
  0
VERTEX
  5
B5
  8
LAYER_1
 10
227.5872123121777
 20
530.6704969005352
 30
0.0
 42
0.1156339743839886
  0
VERTEX
  5
B6
  8
LAYER_1
 10
227.8672474329215
 20
531.625448954495
 30
0.0
 42
0.2325908795630497
  0
VERTEX
  5
B7
  8
LAYER_1
 10
227.1847031471336
 20
533.230624643542
 30
0.0
 42
0.0892735060489756
  0
VERTEX
  5
B8
  8
LAYER_1
 10
226.5824602870694
 20
533.586418494824
 30
0.0
 42
0.0875844402021655
  0
VERTEX
  5
B9
  8
LAYER_1
 10
225.8813123121777
 20
533.7145969005352
 30
0.0
  0
VERTEX
  5
BA
  8
LAYER_1
 10
150.3558123121777
 20
533.7145969005352
 30
0.0
 42
0.0707020145395962
  0
VERTEX
  5
BB
  8
LAYER_1
 10
148.8155488662698
 20
533.4576788160595
 30
0.0
 42
0.1426053626023604
  0
VERTEX
  5
BC
  8
LAYER_1
 10
146.5217179060572
 20
531.9226634849242
 30
0.0
 42
0.1139659725603089
  0
VERTEX
  5
BD
  8
LAYER_1
 10
145.5236878626032
 20
529.9617605783294
 30
0.0
 42
0.0550751399373841
  0
VERTEX
  5
BE
  8
LAYER_1
 10
145.3558123121777
 20
528.7145969005352
 30
0.0
  0
VERTEX
  5
BF
  8
LAYER_1
 10
145.3558123121777
 20
506.7145969005352
 30
0.0
 42
0.0060284465860242
  0
VERTEX
  5
C0
  8
LAYER_1
 10
145.3657046727631
 20
506.4412217217671
 30
0.0
 42
0.0105760558700045
  0
SEQEND
  5
C1
  8
LAYER_1
  0
POLYLINE
  5
48
  8
LAYER_1
 66
     1
 10
0.0
 20
0.0
 30
0.0
  0
VERTEX
  5
C2
  8
LAYER_1
 10
55.35581231217768
 20
343.7145969005352
 30
0.0
 42
-0.0067928054413189
  0
VERTEX
  5
C3
  8
LAYER_1
 10
55.35096578368813
 20
344.0608076177264
 30
0.0
 42
0.0174942314801331
  0
VERTEX
  5
C4
  8
LAYER_1
 10
55.3387121967294
 20
344.4068353610405
 30
0.0
 42
0.0147866587885585
  0
VERTEX
  5
C5
  8
LAYER_1
 10
55.19720333607897
 20
345.8178655561081
 30
0.0
 42
0.0393219418364049
  0
VERTEX
  5
C6
  8
LAYER_1
 10
54.74150950040242
 20
347.9756483852809
 30
0.0
 42
0.1278035505824915
  0
VERTEX
  5
C7
  8
LAYER_1
 10
50.86914085311766
 20
354.4216924487367
 30
0.0
 42
0.2398735320266821
  0
VERTEX
  5
C8
  8
LAYER_1
 10
37.87798610370864
 20
358.5081310894343
 30
0.0
 42
0.5846064160810052
  0
VERTEX
  5
C9
  8
LAYER_1
 10
28.99722261125927
 20
333.924132845181
 30
0.0
 42
0.5844853847120914
  0
VERTEX
  5
CA
  8
LAYER_1
 10
54.62561231217768
 20
339.0782969005352
 30
0.0
 42
0.0285184439054335
  0
VERTEX
  5
CB
  8
LAYER_1
 10
55.04328421704852
 20
340.6646770546218
 30
0.0
 42
0.0275077077652
  0
VERTEX
  5
CC
  8
LAYER_1
 10
55.28971914330607
 20
342.3473493813477
 30
0.0
 42
0.0045351925299926
  0
VERTEX
  5
CD
  8
LAYER_1
 10
55.32938803970872
 20
342.8339128217018
 30
0.0
 42
0.0112593987815107
  0
VERTEX
  5
CE
  8
LAYER_1
 10
55.33916967276902
 20
343.030324273122
 30
0.0
 42
0.0014611903016963
  0
VERTEX
  5
CF
  8
LAYER_1
 10
55.34749099247334
 20
343.3724105868286
 30
0.0
 42
-0.0014611903017378
  0
VERTEX
  5
D0
  8
LAYER_1
 10
55.35581231217768
 20
343.7144969005352
 30
0.0
  0
SEQEND
  5
D1
  8
LAYER_1
  0
POLYLINE
  5
49
  8
LAYER_1
 66
     1
 10
0.0
 20
0.0
 30
0.0
 70
     1
  0
VERTEX
  5
D2
  8
LAYER_1
 10
59.83668516450276
 20
343.9545364252784
 30
0.0
 42
0.6859467496897549
  0
VERTEX
  5
D3
  8
LAYER_1
 10
57.10460475046952
 20
344.5264812533999
 30
0.0
 42
0.6856671917141254
  0
VERTEX
  5
D4
  8
LAYER_1
 10
58.74342892881491
 20
342.2664086493251
 30
0.0
 42
0.1864738246262768
  0
VERTEX
  5
D5
  8
LAYER_1
 10
59.61569531875449
 20
342.8989065820082
 30
0.0
 42
0.1862770875580922
  0
SEQEND
  5
D6
  8
LAYER_1
  0
POLYLINE
  5
4A
  8
LAYER_1
 66
     1
 10
0.0
 20
0.0
 30
0.0
 70
     1
  0
VERTEX
  5
D7
  8
LAYER_1
 10
473.8366851645027
 20
343.9545364252784
 30
0.0
 42
0.6859467496897566
  0
VERTEX
  5
D8
  8
LAYER_1
 10
471.1046047504692
 20
344.5264812534
 30
0.0
 42
0.6856671917141106
  0
VERTEX
  5
D9
  8
LAYER_1
 10
472.7434289288149
 20
342.2664086493251
 30
0.0
 42
0.1864738246262226
  0
VERTEX
  5
DA
  8
LAYER_1
 10
473.6156953187544
 20
342.8989065820082
 30
0.0
 42
0.1862770875580587
  0
SEQEND
  5
DB
  8
LAYER_1
  0
POLYLINE
  5
4B
  8
LAYER_1
 66
     1
 10
0.0
 20
0.0
 30
0.0
  0
VERTEX
  5
DC
  8
LAYER_1
 10
505.3558123121777
 20
343.7145969005352
 30
0.0
 42
-0.0067928054412939
  0
VERTEX
  5
DD
  8
LAYER_1
 10
505.3509657836881
 20
344.0608076177266
 30
0.0
 42
0.0174942314799692
  0
VERTEX
  5
DE
  8
LAYER_1
 10
505.3387121967293
 20
344.406835361041
 30
0.0
 42
0.014786658788526
  0
VERTEX
  5
DF
  8
LAYER_1
 10
505.1972033360786
 20
345.8178655561093
 30
0.0
 42
0.0393219418363899
  0
VERTEX
  5
E0
  8
LAYER_1
 10
504.7415095004022
 20
347.9756483852815
 30
0.0
 42
0.1278035505825106
  0
VERTEX
  5
E1
  8
LAYER_1
 10
500.8691408531176
 20
354.4216924487368
 30
0.0
 42
0.2398735320266716
  0
VERTEX
  5
E2
  8
LAYER_1
 10
487.8779861037086
 20
358.5081310894342
 30
0.0
 42
0.5846064160810046
  0
VERTEX
  5
E3
  8
LAYER_1
 10
478.9972226112596
 20
333.9241328451819
 30
0.0
 42
0.5844853847120672
  0
VERTEX
  5
E4
  8
LAYER_1
 10
504.6256123121777
 20
339.0782969005352
 30
0.0
 42
0.0285184439054678
  0
VERTEX
  5
E5
  8
LAYER_1
 10
505.043284217048
 20
340.6646770546198
 30
0.0
 42
0.0275077077651557
  0
VERTEX
  5
E6
  8
LAYER_1
 10
505.2897191433057
 20
342.3473493813461
 30
0.0
 42
0.0045351925299215
  0
VERTEX
  5
E7
  8
LAYER_1
 10
505.3293880397085
 20
342.833912821701
 30
0.0
 42
0.0112593987811673
  0
VERTEX
  5
E8
  8
LAYER_1
 10
505.3391696727688
 20
343.0303242731212
 30
0.0
 42
0.0014611903017817
  0
VERTEX
  5
E9
  8
LAYER_1
 10
505.3474909924732
 20
343.3724105868282
 30
0.0
 42
-0.0014611903019435
  0
VERTEX
  5
EA
  8
LAYER_1
 10
505.3558123121777
 20
343.7144969005352
 30
0.0
  0
SEQEND
  5
EB
  8
LAYER_1
  0
POLYLINE
  5
4C
  8
LAYER_1
 66
     1
 10
0.0
 20
0.0
 30
0.0
 70
     1
  0
VERTEX
  5
EC
  8
LAYER_1
 10
305.3265090571596
 20
473.1714344999999
 30
0.0
 42
-0.184874664157161
  0
VERTEX
  5
ED
  8
LAYER_1
 10
303.7003338800969
 20
470.0033428150761
 30
0.0
 42
-0.1835967660677365
  0
VERTEX
  5
EE
  8
LAYER_1
 10
300.3558123121777
 20
468.7145969005352
 30
0.0
  0
VERTEX
  5
EF
  8
LAYER_1
 10
282.3558123121777
 20
468.7145969005352
 30
0.0
 42
-0.1234620421060975
  0
VERTEX
  5
F0
  8
LAYER_1
 10
281.3265378849544
 20
469.0142008586663
 30
0.0
 42
-0.2524933074910514
  0
VERTEX
  5
F1
  8
LAYER_1
 10
280.3593208222701
 20
470.6016880343719
 30
0.0
 42
-0.0053750898619626
  0
VERTEX
  5
F2
  8
LAYER_1
 10
280.3573402110181
 20
470.6490277147241
 30
0.0
 42
-0.0038829979000075
  0
VERTEX
  5
F3
  8
LAYER_1
 10
280.3558123121777
 20
470.7145969005352
 30
0.0
  0
VERTEX
  5
F4
  8
LAYER_1
 10
280.3558123121777
 20
522.4602969005352
 30
0.0
 42
-0.1146328407767261
  0
VERTEX
  5
F5
  8
LAYER_1
 10
280.6147300238143
 20
523.418776838816
 30
0.0
 42
-0.2316903853660018
  0
VERTEX
  5
F6
  8
LAYER_1
 10
282.0245239059204
 20
524.4323757772928
 30
0.0
 42
-0.1959739903653364
  0
VERTEX
  5
F7
  8
LAYER_1
 10
283.4659109569279
 20
524.1114983492565
 30
0.0
 42
-0.0946752401936856
  0
VERTEX
  5
F8
  8
LAYER_1
 10
284.0616123121777
 20
523.5043969005352
 30
0.0
  0
VERTEX
  5
F9
  8
LAYER_1
 10
304.6204123121777
 20
489.9160969005352
 30
0.0
 42
-0.0624770499852751
  0
VERTEX
  5
FA
  8
LAYER_1
 10
305.1710476664662
 20
488.6115552877067
 30
0.0
 42
-0.0671233354697334
  0
VERTEX
  5
FB
  8
LAYER_1
 10
305.3558123121777
 20
487.3057969005352
 30
0.0
  0
VERTEX
  5
FC
  8
LAYER_1
 10
305.3558123121777
 20
473.7144969005352
 30
0.0
 42
-0.0123155420391901
  0
VERTEX
  5
FD
  8
LAYER_1
 10
305.3474328471069
 20
473.4283670133596
 30
0.0
 42
-0.0136761495293282
  0
SEQEND
  5
FE
  8
LAYER_1
  0
POLYLINE
  5
4D
  8
LAYER_1
 66
     1
 10
0.0
 20
0.0
 30
0.0
 70
     1
  0
VERTEX
  5
FF
  8
LAYER_1
 10
250.3264800718669
 20
470.3716047952137
 30
0.0
 42
-0.1767514139172167
  0
VERTEX
  5
100
  8
LAYER_1
 10
249.6488583667121
 20
469.1929232355416
 30
0.0
 42
-0.1741482483482826
  0
VERTEX
  5
101
  8
LAYER_1
 10
248.3558123121777
 20
468.7145969005352
 30
0.0
  0
VERTEX
  5
102
  8
LAYER_1
 10
230.3558123121777
 20
468.7145969005352
 30
0.0
 42
-0.0706866719551131
  0
VERTEX
  5
103
  8
LAYER_1
 10
228.8152752905122
 20
468.9715076929666
 30
0.0
 42
-0.1426340509559675
  0
VERTEX
  5
104
  8
LAYER_1
 10
226.5215272674315
 20
470.5064418700986
 30
0.0
 42
-0.1139701977196722
  0
VERTEX
  5
105
  8
LAYER_1
 10
225.523663200096
 20
472.4672944227327
 30
0.0
 42
-0.0550595634450712
  0
VERTEX
  5
106
  8
LAYER_1
 10
225.3558123121777
 20
473.7145969005352
 30
0.0
  0
VERTEX
  5
107
  8
LAYER_1
 10
225.3558123121777
 20
487.3057969005352
 30
0.0
 42
-0.0624696191305145
  0
VERTEX
  5
108
  8
LAYER_1
 10
225.5672090690984
 20
488.7060848120942
 30
0.0
 42
-0.067131682092585
  0
VERTEX
  5
109
  8
LAYER_1
 10
226.0912123121777
 20
489.9160969005352
 30
0.0
  0
VERTEX
  5
10A
  8
LAYER_1
 10
246.6500123121777
 20
523.5043969005352
 30
0.0
 42
-0.1146168321225469
  0
VERTEX
  5
10B
  8
LAYER_1
 10
247.3713127272299
 20
524.1868057112179
 30
0.0
 42
-0.2317174993268316
  0
VERTEX
  5
10C
  8
LAYER_1
 10
249.1028845186087
 20
524.315286613699
 30
0.0
 42
-0.1959610455037824
  0
VERTEX
  5
10D
  8
LAYER_1
 10
250.1647027408161
 20
523.2890637127507
 30
0.0
 42
-0.0946775403790454
  0
VERTEX
  5
10E
  8
LAYER_1
 10
250.3558123121777
 20
522.4602969005352
 30
0.0
  0
VERTEX
  5
10F
  8
LAYER_1
 10
250.3558123121777
 20
470.7144969005352
 30
0.0
 42
-0.0189679471444326
  0
VERTEX
  5
110
  8
LAYER_1
 10
250.3471157738744
 20
470.5311806723871
 30
0.0
 42
-0.0216365472004745
  0
SEQEND
  5
111
  8
LAYER_1
  0
POLYLINE
  5
4E
  8
LAYER_1
 66
     1
 10
0.0
 20
0.0
 30
0.0
 70
     1
  0
VERTEX
  5
112
  8
LAYER_1
 10
418.3558123121777
 20
495.7145969005352
 30
0.0
  0
VERTEX
  5
113
  8
LAYER_1
 10
408.3558123121777
 20
495.7145969005352
 30
0.0
  0
VERTEX
  5
114
  8
LAYER_1
 10
408.3558123121777
 20
501.7145969005352
 30
0.0
  0
VERTEX
  5
115
  8
LAYER_1
 10
418.3558123121777
 20
501.7145969005352
 30
0.0
  0
SEQEND
  5
116
  8
LAYER_1
  0
POLYLINE
  5
4F
  8
LAYER_1
 66
     1
 10
0.0
 20
0.0
 30
0.0
 70
     1
  0
VERTEX
  5
117
  8
LAYER_1
 10
458.3558123121777
 20
501.7145969005352
 30
0.0
  0
VERTEX
  5
118
  8
LAYER_1
 10
458.3558123121777
 20
495.7145969005352
 30
0.0
  0
VERTEX
  5
119
  8
LAYER_1
 10
448.3558123121777
 20
495.7145969005352
 30
0.0
  0
VERTEX
  5
11A
  8
LAYER_1
 10
448.3558123121777
 20
501.7145969005352
 30
0.0
  0
SEQEND
  5
11B
  8
LAYER_1
  0
POLYLINE
  5
50
  8
LAYER_1
 66
     1
 10
0.0
 20
0.0
 30
0.0
 70
     1
  0
VERTEX
  5
11C
  8
LAYER_1
 10
438.3558123121777
 20
495.7145969005352
 30
0.0
  0
VERTEX
  5
11D
  8
LAYER_1
 10
428.3558123121777
 20
495.7145969005352
 30
0.0
  0
VERTEX
  5
11E
  8
LAYER_1
 10
428.3558123121777
 20
501.7145969005352
 30
0.0
  0
VERTEX
  5
11F
  8
LAYER_1
 10
438.3558123121777
 20
501.7145969005352
 30
0.0
  0
SEQEND
  5
120
  8
LAYER_1
  0
POLYLINE
  5
51
  8
LAYER_1
 66
     1
 10
0.0
 20
0.0
 30
0.0
 70
     1
  0
VERTEX
  5
121
  8
LAYER_1
 10
82.35581231217768
 20
501.7145969005352
 30
0.0
  0
VERTEX
  5
122
  8
LAYER_1
 10
82.35581231217768
 20
495.7145969005352
 30
0.0
  0
VERTEX
  5
123
  8
LAYER_1
 10
72.35581231217768
 20
495.7145969005352
 30
0.0
  0
VERTEX
  5
124
  8
LAYER_1
 10
72.35581231217768
 20
501.7145969005352
 30
0.0
  0
SEQEND
  5
125
  8
LAYER_1
  0
POLYLINE
  5
52
  8
LAYER_1
 66
     1
 10
0.0
 20
0.0
 30
0.0
 70
     1
  0
VERTEX
  5
126
  8
LAYER_1
 10
122.3558123121777
 20
495.7145969005352
 30
0.0
  0
VERTEX
  5
127
  8
LAYER_1
 10
112.3558123121777
 20
495.7145969005352
 30
0.0
  0
VERTEX
  5
128
  8
LAYER_1
 10
112.3558123121777
 20
501.7145969005352
 30
0.0
  0
VERTEX
  5
129
  8
LAYER_1
 10
122.3558123121777
 20
501.7145969005352
 30
0.0
  0
SEQEND
  5
12A
  8
LAYER_1
  0
POLYLINE
  5
53
  8
LAYER_1
 66
     1
 10
0.0
 20
0.0
 30
0.0
 70
     1
  0
VERTEX
  5
12B
  8
LAYER_1
 10
102.3558123121777
 20
495.7145969005352
 30
0.0
  0
VERTEX
  5
12C
  8
LAYER_1
 10
92.35581231217768
 20
495.7145969005352
 30
0.0
  0
VERTEX
  5
12D
  8
LAYER_1
 10
92.35581231217768
 20
501.7145969005352
 30
0.0
  0
VERTEX
  5
12E
  8
LAYER_1
 10
102.3558123121777
 20
501.7145969005352
 30
0.0
  0
SEQEND
  5
12F
  8
LAYER_1
  0
POLYLINE
  5
54
  8
LAYER_1
 66
     1
 10
0.0
 20
0.0
 30
0.0
 70
     1
  0
VERTEX
  5
130
  8
LAYER_1
 10
496.0004882973732
 20
544.7024349931105
 30
0.0
 42
-0.1767507344500374
  0
VERTEX
  5
131
  8
LAYER_1
 10
496.5954889348452
 20
544.3717362711659
 30
0.0
 42
-0.1698284340809767
  0
VERTEX
  5
132
  8
LAYER_1
 10
496.8558123121777
 20
543.7145969005352
 30
0.0
 42
-0.010783624741453
  0
VERTEX
  5
133
  8
LAYER_1
 10
496.8640527255385
 20
543.2847145882207
 30
0.0
 42
-0.0076026170409949
  0
VERTEX
  5
134
  8
LAYER_1
 10
496.8533174822497
 20
542.6749835504413
 30
0.0
 42
-0.1953144234060924
  0
VERTEX
  5
135
  8
LAYER_1
 10
496.55954160417
 20
542.0146242845107
 30
0.0
 42
-0.1837458041762566
  0
VERTEX
  5
136
  8
LAYER_1
 10
495.8558123121777
 20
541.7145969005352
 30
0.0
  0
VERTEX
  5
137
  8
LAYER_1
 10
485.8558123121777
 20
541.7145969005352
 30
0.0
 42
-0.1695198278270578
  0
VERTEX
  5
138
  8
LAYER_1
 10
485.1983476217353
 20
541.975505600648
 30
0.0
 42
-0.176750734450084
  0
VERTEX
  5
139
  8
LAYER_1
 10
484.8679742196024
 20
542.5699209153397
 30
0.0
 42
-0.0183841364577692
  0
VERTEX
  5
13A
  8
LAYER_1
 10
484.8613415620403
 20
542.6246374295481
 30
0.0
 42
-0.0112401372535151
  0
VERTEX
  5
13B
  8
LAYER_1
 10
484.8558123121777
 20
542.7145969005352
 30
0.0
  0
VERTEX
  5
13C
  8
LAYER_1
 10
484.8622866156136
 20
543.7844655736227
 30
0.0
 42
-0.1963399764934178
  0
VERTEX
  5
13D
  8
LAYER_1
 10
485.155229459759
 20
544.4222131788141
 30
0.0
 42
-0.1804653199067859
  0
VERTEX
  5
13E
  8
LAYER_1
 10
485.8558123121777
 20
544.7145969005352
 30
0.0
  0
VERTEX
  5
13F
  8
LAYER_1
 10
495.8558123121777
 20
544.7145969005352
 30
0.0
 42
-0.0104836205067669
  0
VERTEX
  5
140
  8
LAYER_1
 10
495.9481177962638
 20
544.7087832703215
 30
0.0
 42
-0.0183841364560524
  0
SEQEND
  5
141
  8
LAYER_1
  0
POLYLINE
  5
55
  8
LAYER_1
 66
     1
 10
0.0
 20
0.0
 30
0.0
 70
     1
  0
VERTEX
  5
142
  8
LAYER_1
 10
378.3679742196023
 20
459.8592728857307
 30
0.0
 42
-0.1767507344502349
  0
VERTEX
  5
143
  8
LAYER_1
 10
378.6991724899129
 20
460.4551723219478
 30
0.0
 42
-0.1703032607110163
  0
VERTEX
  5
144
  8
LAYER_1
 10
379.3558123121777
 20
460.7145969005352
 30
0.0
  0
VERTEX
  5
145
  8
LAYER_1
 10
380.4253047067644
 20
460.7080819014179
 30
0.0
 42
-0.1962688592446675
  0
VERTEX
  5
146
  8
LAYER_1
 10
381.0633905161916
 20
460.415049597422
 30
0.0
 42
-0.1805220589353488
  0
VERTEX
  5
147
  8
LAYER_1
 10
381.3558123121777
 20
459.7145969005352
 30
0.0
  0
VERTEX
  5
148
  8
LAYER_1
 10
381.3558123121777
 20
449.7145969005352
 30
0.0
 42
-0.1246064526160679
  0
VERTEX
  5
149
  8
LAYER_1
 10
381.2042231635554
 20
449.2087819273185
 30
0.0
 42
-0.2435399038415638
  0
VERTEX
  5
14A
  8
LAYER_1
 10
380.4073123121777
 20
448.7158969005352
 30
0.0
 42
-0.0152830177300022
  0
VERTEX
  5
14B
  8
LAYER_1
 10
380.1278136141993
 20
448.7031526869439
 30
0.0
 42
-0.0149133391227593
  0
VERTEX
  5
14C
  8
LAYER_1
 10
379.3558123121777
 20
448.7145969005352
 30
0.0
 42
-0.1688217758414058
  0
VERTEX
  5
14D
  8
LAYER_1
 10
378.6976098786915
 20
448.9768329646571
 30
0.0
 42
-0.176750734450089
  0
VERTEX
  5
14E
  8
LAYER_1
 10
378.3679742196024
 20
449.5699209153397
 30
0.0
 42
-0.018384136457151
  0
VERTEX
  5
14F
  8
LAYER_1
 10
378.3616259423914
 20
449.6222914164494
 30
0.0
 42
-0.0104836205067604
  0
VERTEX
  5
150
  8
LAYER_1
 10
378.3558123121777
 20
449.7145969005352
 30
0.0
  0
VERTEX
  5
151
  8
LAYER_1
 10
378.3558123121777
 20
459.7145969005352
 30
0.0
 42
-0.0104836205061282
  0
VERTEX
  5
152
  8
LAYER_1
 10
378.3616259423913
 20
459.8069023846215
 30
0.0
 42
-0.0183841364581211
  0
SEQEND
  5
153
  8
LAYER_1
  0
POLYLINE
  5
56
  8
LAYER_1
 66
     1
 10
0.0
 20
0.0
 30
0.0
 70
     1
  0
VERTEX
  5
154
  8
LAYER_1
 10
481.5004882973732
 20
460.7024349931106
 30
0.0
 42
-0.1767507344503144
  0
VERTEX
  5
155
  8
LAYER_1
 10
482.0949036120649
 20
460.3720615909779
 30
0.0
 42
-0.1695198278271565
  0
VERTEX
  5
156
  8
LAYER_1
 10
482.3558123121777
 20
459.7145969005352
 30
0.0
  0
VERTEX
  5
157
  8
LAYER_1
 10
482.3558123121777
 20
449.7145969005352
 30
0.0
 42
-0.1876983212122021
  0
VERTEX
  5
158
  8
LAYER_1
 10
482.0428700283953
 20
449.0030020051029
 30
0.0
 42
-0.1964539038484933
  0
VERTEX
  5
159
  8
LAYER_1
 10
481.3558123121777
 20
448.7145969005352
 30
0.0
  0
VERTEX
  5
15A
  8
LAYER_1
 10
471.3558123121777
 20
448.7145969005352
 30
0.0
 42
-0.1695198278270478
  0
VERTEX
  5
15B
  8
LAYER_1
 10
470.6983476217353
 20
448.9755056006481
 30
0.0
 42
-0.1767507344500449
  0
VERTEX
  5
15C
  8
LAYER_1
 10
470.3679742196024
 20
449.5699209153397
 30
0.0
 42
-0.018384136457151
  0
VERTEX
  5
15D
  8
LAYER_1
 10
470.3616259423914
 20
449.6222914164494
 30
0.0
 42
-0.0104836205067604
  0
VERTEX
  5
15E
  8
LAYER_1
 10
470.3558123121777
 20
449.7145969005352
 30
0.0
  0
VERTEX
  5
15F
  8
LAYER_1
 10
470.3558123121777
 20
459.7145969005352
 30
0.0
 42
-0.1695198278271565
  0
VERTEX
  5
160
  8
LAYER_1
 10
470.6167210122906
 20
460.3720615909779
 30
0.0
 42
-0.1767507344501683
  0
VERTEX
  5
161
  8
LAYER_1
 10
471.2111363269822
 20
460.7024349931106
 30
0.0
 42
-0.0183841364581211
  0
VERTEX
  5
162
  8
LAYER_1
 10
471.2635068280914
 20
460.7087832703216
 30
0.0
 42
-0.0104836205073549
  0
VERTEX
  5
163
  8
LAYER_1
 10
471.3558123121777
 20
460.7145969005352
 30
0.0
  0
VERTEX
  5
164
  8
LAYER_1
 10
481.3558123121777
 20
460.7145969005352
 30
0.0
 42
-0.0104836205061282
  0
VERTEX
  5
165
  8
LAYER_1
 10
481.448117796264
 20
460.7087832703216
 30
0.0
 42
-0.0183841364581211
  0
SEQEND
  5
166
  8
LAYER_1
  0
POLYLINE
  5
57
  8
LAYER_1
 66
     1
 10
0.0
 20
0.0
 30
0.0
 70
     1
  0
VERTEX
  5
167
  8
LAYER_1
 10
484.8679742196023
 20
310.8592728857307
 30
0.0
 42
-0.1767507344503144
  0
VERTEX
  5
168
  8
LAYER_1
 10
485.198347621735
 20
311.4536882004223
 30
0.0
 42
-0.1695198278271565
  0
VERTEX
  5
169
  8
LAYER_1
 10
485.8558123121777
 20
311.7145969005352
 30
0.0
  0
VERTEX
  5
16A
  8
LAYER_1
 10
495.8558123121777
 20
311.7145969005352
 30
0.0
 42
-0.1695198278271565
  0
VERTEX
  5
16B
  8
LAYER_1
 10
496.5132770026204
 20
311.4536882004223
 30
0.0
 42
-0.1767507344501683
  0
VERTEX
  5
16C
  8
LAYER_1
 10
496.8436504047531
 20
310.8592728857307
 30
0.0
 42
-0.035786699158941
  0
VERTEX
  5
16D
  8
LAYER_1
 10
496.862271607155
 20
310.6429053546495
 30
0.0
 42
-0.0117800610285958
  0
VERTEX
  5
16E
  8
LAYER_1
 10
496.8533174822496
 20
309.6749835504413
 30
0.0
 42
-0.1953144234059825
  0
VERTEX
  5
16F
  8
LAYER_1
 10
496.55954160417
 20
309.0146242845106
 30
0.0
 42
-0.1837458041763136
  0
VERTEX
  5
170
  8
LAYER_1
 10
495.8558123121777
 20
308.7145969005352
 30
0.0
  0
VERTEX
  5
171
  8
LAYER_1
 10
485.8558123121777
 20
308.7145969005352
 30
0.0
 42
-0.1695198278270478
  0
VERTEX
  5
172
  8
LAYER_1
 10
485.1983476217353
 20
308.9755056006481
 30
0.0
 42
-0.1767507344500449
  0
VERTEX
  5
173
  8
LAYER_1
 10
484.8679742196024
 20
309.5699209153397
 30
0.0
 42
-0.0334732913303602
  0
VERTEX
  5
174
  8
LAYER_1
 10
484.8592476291417
 20
309.6661132602052
 30
0.0
 42
-0.0058878088106816
  0
VERTEX
  5
175
  8
LAYER_1
 10
484.8527886716134
 20
310.2145969005346
 30
0.0
 42
-0.0058878088105609
  0
VERTEX
  5
176
  8
LAYER_1
 10
484.8592476291416
 20
310.7630805408656
 30
0.0
 42
-0.0334732913311385
  0
SEQEND
  5
177
  8
LAYER_1
  0
POLYLINE
  5
58
  8
LAYER_1
 66
     1
 10
0.0
 20
0.0
 30
0.0
 70
     1
  0
VERTEX
  5
178
  8
LAYER_1
 10
45.84276740310867
 20
309.5641302224128
 30
0.0
 42
-0.1765812728520603
  0
VERTEX
  5
179
  8
LAYER_1
 10
45.50357075992938
 20
308.9584789311356
 30
0.0
 42
-0.1771295625505591
  0
VERTEX
  5
17A
  8
LAYER_1
 10
44.8558123121777
 20
308.7145969005352
 30
0.0
  0
VERTEX
  5
17B
  8
LAYER_1
 10
34.8558123121777
 20
308.7145969005352
 30
0.0
 42
-0.1695198278269685
  0
VERTEX
  5
17C
  8
LAYER_1
 10
34.19834762173526
 20
308.9755056006481
 30
0.0
 42
-0.1767507344501157
  0
VERTEX
  5
17D
  8
LAYER_1
 10
33.86797421960243
 20
309.5699209153397
 30
0.0
 42
-0.0183841364578158
  0
VERTEX
  5
17E
  8
LAYER_1
 10
33.86134156204027
 20
309.624637429548
 30
0.0
 42
-0.0112401372540503
  0
VERTEX
  5
17F
  8
LAYER_1
 10
33.8558123121777
 20
309.7145969005352
 30
0.0
  0
VERTEX
  5
180
  8
LAYER_1
 10
33.86228661561363
 20
310.7844655736229
 30
0.0
 42
-0.1963399764935105
  0
VERTEX
  5
181
  8
LAYER_1
 10
34.15522945975906
 20
311.4222131788142
 30
0.0
 42
-0.1804653199069695
  0
VERTEX
  5
182
  8
LAYER_1
 10
34.8558123121777
 20
311.7145969005352
 30
0.0
  0
VERTEX
  5
183
  8
LAYER_1
 10
44.8558123121777
 20
311.7145969005352
 30
0.0
 42
-0.1695198278271544
  0
VERTEX
  5
184
  8
LAYER_1
 10
45.51327700262043
 20
311.4536882004223
 30
0.0
 42
-0.176750734450275
  0
VERTEX
  5
185
  8
LAYER_1
 10
45.84365040475307
 20
310.8592728857307
 30
0.0
 42
-0.03354418414913
  0
VERTEX
  5
186
  8
LAYER_1
 10
45.85244214052486
 20
310.7622096765027
 30
0.0
 42
-0.0058497607348387
  0
VERTEX
  5
187
  8
LAYER_1
 10
45.8589000980168
 20
310.2039896088772
 30
0.0
 42
-0.006269199289337
  0
VERTEX
  5
188
  8
LAYER_1
 10
45.85205331743828
 20
309.6635955867046
 30
0.0
 42
-0.0339534961942455
  0
SEQEND
  5
189
  8
LAYER_1
  0
POLYLINE
  5
59
  8
LAYER_1
 66
     1
 10
0.0
 20
0.0
 30
0.0
 70
     1
  0
VERTEX
  5
18A
  8
LAYER_1
 10
45.84276740310867
 20
542.5641302224126
 30
0.0
 42
-0.1765812728519501
  0
VERTEX
  5
18B
  8
LAYER_1
 10
45.5035707599297
 20
541.958478931136
 30
0.0
 42
-0.1771295625502415
  0
VERTEX
  5
18C
  8
LAYER_1
 10
44.8558123121777
 20
541.7145969005352
 30
0.0
  0
VERTEX
  5
18D
  8
LAYER_1
 10
34.8558123121777
 20
541.7145969005352
 30
0.0
 42
-0.1695198278270546
  0
VERTEX
  5
18E
  8
LAYER_1
 10
34.19834762173524
 20
541.975505600648
 30
0.0
 42
-0.1767507344502081
  0
VERTEX
  5
18F
  8
LAYER_1
 10
33.86797421960242
 20
542.5699209153397
 30
0.0
 42
-0.0183841364575758
  0
VERTEX
  5
190
  8
LAYER_1
 10
33.86134156204027
 20
542.624637429548
 30
0.0
 42
-0.011240137253893
  0
VERTEX
  5
191
  8
LAYER_1
 10
33.8558123121777
 20
542.7145969005352
 30
0.0
  0
VERTEX
  5
192
  8
LAYER_1
 10
33.86228661561362
 20
543.7844655736228
 30
0.0
 42
-0.1963399764935027
  0
VERTEX
  5
193
  8
LAYER_1
 10
34.15522945975895
 20
544.4222131788141
 30
0.0
 42
-0.1804653199068084
  0
VERTEX
  5
194
  8
LAYER_1
 10
34.8558123121777
 20
544.7145969005352
 30
0.0
  0
VERTEX
  5
195
  8
LAYER_1
 10
44.8558123121777
 20
544.7145969005352
 30
0.0
 42
-0.1695198278270546
  0
VERTEX
  5
196
  8
LAYER_1
 10
45.51327700262017
 20
544.4536882004223
 30
0.0
 42
-0.1767507344502081
  0
VERTEX
  5
197
  8
LAYER_1
 10
45.84365040475299
 20
543.8592728857307
 30
0.0
 42
-0.0335441841493412
  0
VERTEX
  5
198
  8
LAYER_1
 10
45.85244214052482
 20
543.7622096765024
 30
0.0
 42
-0.0058497607348828
  0
VERTEX
  5
199
  8
LAYER_1
 10
45.8589000980168
 20
543.2039896088775
 30
0.0
 42
-0.0062691992893843
  0
VERTEX
  5
19A
  8
LAYER_1
 10
45.85205331743828
 20
542.6635955867044
 30
0.0
 42
-0.0339534961941397
  0
SEQEND
  5
19B
  8
LAYER_1
  0
POLYLINE
  5
5A
  8
LAYER_1
 66
     1
 10
0.0
 20
0.0
 30
0.0
 70
     1
  0
VERTEX
  5
19C
  8
LAYER_1
 10
59.50048829737318
 20
460.7024349931106
 30
0.0
 42
-0.1767507344502839
  0
VERTEX
  5
19D
  8
LAYER_1
 10
60.0949036120648
 20
460.3720615909779
 30
0.0
 42
-0.1695198278270794
  0
VERTEX
  5
19E
  8
LAYER_1
 10
60.35581231217768
 20
459.7145969005352
 30
0.0
  0
VERTEX
  5
19F
  8
LAYER_1
 10
60.35581231217768
 20
449.7145969005352
 30
0.0
 42
-0.1876983212122479
  0
VERTEX
  5
1A0
  8
LAYER_1
 10
60.04287002839543
 20
449.0030020051029
 30
0.0
 42
-0.1964539038485564
  0
VERTEX
  5
1A1
  8
LAYER_1
 10
59.35581231217768
 20
448.7145969005352
 30
0.0
  0
VERTEX
  5
1A2
  8
LAYER_1
 10
49.35581231217768
 20
448.7145969005352
 30
0.0
 42
-0.1695198278269685
  0
VERTEX
  5
1A3
  8
LAYER_1
 10
48.69834762173523
 20
448.9755056006481
 30
0.0
 42
-0.1767507344501157
  0
VERTEX
  5
1A4
  8
LAYER_1
 10
48.3679742196024
 20
449.5699209153397
 30
0.0
 42
-0.0183841364579767
  0
VERTEX
  5
1A5
  8
LAYER_1
 10
48.36162594239131
 20
449.6222914164493
 30
0.0
 42
-0.0104836205068694
  0
VERTEX
  5
1A6
  8
LAYER_1
 10
48.35581231217768
 20
449.7145969005352
 30
0.0
  0
VERTEX
  5
1A7
  8
LAYER_1
 10
48.35581231217768
 20
459.7145969005352
 30
0.0
 42
-0.169519827827066
  0
VERTEX
  5
1A8
  8
LAYER_1
 10
48.61672101229057
 20
460.3720615909778
 30
0.0
 42
-0.1767507344501697
  0
VERTEX
  5
1A9
  8
LAYER_1
 10
49.21113632698218
 20
460.7024349931105
 30
0.0
 42
-0.0183841364570302
  0
VERTEX
  5
1AA
  8
LAYER_1
 10
49.26350682809166
 20
460.7087832703216
 30
0.0
 42
-0.0104836205073621
  0
VERTEX
  5
1AB
  8
LAYER_1
 10
49.35581231217768
 20
460.7145969005352
 30
0.0
  0
VERTEX
  5
1AC
  8
LAYER_1
 10
59.35581231217768
 20
460.7145969005352
 30
0.0
 42
-0.0104836205061121
  0
VERTEX
  5
1AD
  8
LAYER_1
 10
59.44811779626394
 20
460.7087832703216
 30
0.0
 42
-0.0183841364581859
  0
SEQEND
  5
1AE
  8
LAYER_1
  0
POLYLINE
  5
5B
  8
LAYER_1
 66
     1
 10
0.0
 20
0.0
 30
0.0
 70
     1
  0
VERTEX
  5
1AF
  8
LAYER_1
 10
152.3427674031087
 20
449.5641302224127
 30
0.0
 42
-0.1699302713359366
  0
VERTEX
  5
1B0
  8
LAYER_1
 10
152.0267911793214
 20
448.9824453547675
 30
0.0
 42
-0.1666188568263657
  0
VERTEX
  5
1B1
  8
LAYER_1
 10
151.4073123121777
 20
448.7158969005352
 30
0.0
 42
-0.015283017729996
  0
VERTEX
  5
1B2
  8
LAYER_1
 10
151.1278136141993
 20
448.7031526869439
 30
0.0
 42
-0.0149133391227615
  0
VERTEX
  5
1B3
  8
LAYER_1
 10
150.3558123121777
 20
448.7145969005352
 30
0.0
 42
-0.168821775841444
  0
VERTEX
  5
1B4
  8
LAYER_1
 10
149.6976098786914
 20
448.9768329646571
 30
0.0
 42
-0.176750734450089
  0
VERTEX
  5
1B5
  8
LAYER_1
 10
149.3679742196024
 20
449.5699209153397
 30
0.0
 42
-0.0183841364580007
  0
VERTEX
  5
1B6
  8
LAYER_1
 10
149.3616259423913
 20
449.6222914164493
 30
0.0
 42
-0.0104836205071317
  0
VERTEX
  5
1B7
  8
LAYER_1
 10
149.3558123121777
 20
449.7145969005352
 30
0.0
  0
VERTEX
  5
1B8
  8
LAYER_1
 10
149.3558123121777
 20
459.7145969005352
 30
0.0
 42
-0.1695198278271021
  0
VERTEX
  5
1B9
  8
LAYER_1
 10
149.6167210122906
 20
460.3720615909778
 30
0.0
 42
-0.1767507344501796
  0
VERTEX
  5
1BA
  8
LAYER_1
 10
150.2111363269822
 20
460.7024349931105
 30
0.0
 42
-0.0183841364577747
  0
VERTEX
  5
1BB
  8
LAYER_1
 10
150.2658680178957
 20
460.7090694903711
 30
0.0
 42
-0.0112451602643975
  0
VERTEX
  5
1BC
  8
LAYER_1
 10
150.3558123121777
 20
460.7145969005352
 30
0.0
  0
VERTEX
  5
1BD
  8
LAYER_1
 10
151.4253047067643
 20
460.7080819014179
 30
0.0
 42
-0.1962688592447153
  0
VERTEX
  5
1BE
  8
LAYER_1
 10
152.0633905161916
 20
460.4150495974219
 30
0.0
 42
-0.1805220589354325
  0
VERTEX
  5
1BF
  8
LAYER_1
 10
152.3558123121777
 20
459.7145969005352
 30
0.0
  0
VERTEX
  5
1C0
  8
LAYER_1
 10
152.3558123121777
 20
449.7145969005352
 30
0.0
 42
-0.0108104330557951
  0
VERTEX
  5
1C1
  8
LAYER_1
 10
152.3496164926181
 20
449.6192049482706
 30
0.0
 42
-0.0186244703181142
  0
SEQEND
  5
1C2
  8
LAYER_1
  0
POLYLINE
  5
5C
  8
LAYER_1
 66
     1
 10
0.0
 20
0.0
 30
0.0
  0
VERTEX
  5
1C3
  8
LAYER_1
 10
512.8558123121777
 20
528.7145969005352
 30
0.0
 42
-0.0150244070947806
  0
VERTEX
  5
1C4
  8
LAYER_1
 10
512.8526592657939
 20
528.8385343495454
 30
0.0
 42
0.0370499987389116
  0
VERTEX
  5
1C5
  8
LAYER_1
 10
512.8440553628071
 20
528.9622129888573
 30
0.0
 42
0.0454974515002206
  0
VERTEX
  5
1C6
  8
LAYER_1
 10
512.7024181283707
 20
529.555220884931
 30
0.0
 42
0.1063597817292567
  0
VERTEX
  5
1C7
  8
LAYER_1
 10
512.188222391063
 20
530.418289342814
 30
0.0
 42
0.7839837780802831
  0
VERTEX
  5
1C8
  8
LAYER_1
 10
507.9401890171037
 20
528.0519693895646
 30
0.0
 42
0.7848954716309918
  0
VERTEX
  5
1C9
  8
LAYER_1
 10
512.7996628879237
 20
528.1849623036502
 30
0.0
 42
0.0173159934618225
  0
VERTEX
  5
1CA
  8
LAYER_1
 10
512.8382736388314
 20
528.3997271132193
 30
0.0
 42
0.0263090166451966
  0
VERTEX
  5
1CB
  8
LAYER_1
 10
512.8512795800704
 20
528.542813054724
 30
0.0
 42
0.0058228282802297
  0
VERTEX
  5
1CC
  8
LAYER_1
 10
512.8535459461241
 20
528.6286549776296
 30
0.0
 42
-0.0058228282815533
  0
VERTEX
  5
1CD
  8
LAYER_1
 10
512.8558123121777
 20
528.7144969005352
 30
0.0
  0
SEQEND
  5
1CE
  8
LAYER_1
  0
POLYLINE
  5
5D
  8
LAYER_1
 66
     1
 10
0.0
 20
0.0
 30
0.0
  0
VERTEX
  5
1CF
  8
LAYER_1
 10
512.8558123121777
 20
478.7145969005352
 30
0.0
 42
-0.0150244070948039
  0
VERTEX
  5
1D0
  8
LAYER_1
 10
512.8526592657939
 20
478.8385343495454
 30
0.0
 42
0.0370499987388968
  0
VERTEX
  5
1D1
  8
LAYER_1
 10
512.8440553628071
 20
478.9622129888573
 30
0.0
 42
0.045497451500169
  0
VERTEX
  5
1D2
  8
LAYER_1
 10
512.7024181283707
 20
479.5552208849311
 30
0.0
 42
0.1063597817293828
  0
VERTEX
  5
1D3
  8
LAYER_1
 10
512.188222391063
 20
480.4182893428141
 30
0.0
 42
0.783983778080312
  0
VERTEX
  5
1D4
  8
LAYER_1
 10
507.9401890171033
 20
478.0519693895648
 30
0.0
 42
0.7848954716310448
  0
VERTEX
  5
1D5
  8
LAYER_1
 10
512.7996628879237
 20
478.1849623036503
 30
0.0
 42
0.0173159934617808
  0
VERTEX
  5
1D6
  8
LAYER_1
 10
512.8382736388314
 20
478.3997271132194
 30
0.0
 42
0.0263090166450533
  0
VERTEX
  5
1D7
  8
LAYER_1
 10
512.8512795800704
 20
478.542813054724
 30
0.0
 42
0.0058228282801811
  0
VERTEX
  5
1D8
  8
LAYER_1
 10
512.8535459461241
 20
478.6286549776296
 30
0.0
 42
-0.0058228282815184
  0
VERTEX
  5
1D9
  8
LAYER_1
 10
512.8558123121777
 20
478.7144969005352
 30
0.0
  0
SEQEND
  5
1DA
  8
LAYER_1
  0
POLYLINE
  5
5E
  8
LAYER_1
 66
     1
 10
0.0
 20
0.0
 30
0.0
  0
VERTEX
  5
1DB
  8
LAYER_1
 10
512.8558123121777
 20
328.7145969005352
 30
0.0
 42
-0.0150244070948225
  0
VERTEX
  5
1DC
  8
LAYER_1
 10
512.8526592657939
 20
328.8385343495453
 30
0.0
 42
0.0370499987388331
  0
VERTEX
  5
1DD
  8
LAYER_1
 10
512.8440553628071
 20
328.9622129888572
 30
0.0
 42
0.0454974515003144
  0
VERTEX
  5
1DE
  8
LAYER_1
 10
512.7024181283706
 20
329.5552208849312
 30
0.0
 42
0.1063597817292257
  0
VERTEX
  5
1DF
  8
LAYER_1
 10
512.1882223910629
 20
330.4182893428145
 30
0.0
 42
0.7839837780803651
  0
VERTEX
  5
1E0
  8
LAYER_1
 10
507.9401890171017
 20
328.0519693895644
 30
0.0
 42
0.7848954716310804
  0
VERTEX
  5
1E1
  8
LAYER_1
 10
512.7996628879237
 20
328.1849623036504
 30
0.0
 42
0.0173159934620899
  0
VERTEX
  5
1E2
  8
LAYER_1
 10
512.8382736388315
 20
328.3997271132197
 30
0.0
 42
0.0263090166460025
  0
VERTEX
  5
1E3
  8
LAYER_1
 10
512.8512795800704
 20
328.542813054724
 30
0.0
 42
0.0058228282801811
  0
VERTEX
  5
1E4
  8
LAYER_1
 10
512.8535459461241
 20
328.6286549776296
 30
0.0
 42
-0.0058228282815184
  0
VERTEX
  5
1E5
  8
LAYER_1
 10
512.8558123121777
 20
328.7144969005352
 30
0.0
  0
SEQEND
  5
1E6
  8
LAYER_1
  0
POLYLINE
  5
5F
  8
LAYER_1
 66
     1
 10
0.0
 20
0.0
 30
0.0
  0
VERTEX
  5
1E7
  8
LAYER_1
 10
512.8558123121777
 20
378.7145969005352
 30
0.0
 42
-0.0150244070948039
  0
VERTEX
  5
1E8
  8
LAYER_1
 10
512.8526592657939
 20
378.8385343495454
 30
0.0
 42
0.0370499987388968
  0
VERTEX
  5
1E9
  8
LAYER_1
 10
512.8440553628071
 20
378.9622129888573
 30
0.0
 42
0.045497451500169
  0
VERTEX
  5
1EA
  8
LAYER_1
 10
512.7024181283707
 20
379.5552208849311
 30
0.0
 42
0.1063597817293828
  0
VERTEX
  5
1EB
  8
LAYER_1
 10
512.188222391063
 20
380.4182893428141
 30
0.0
 42
0.783983778080312
  0
VERTEX
  5
1EC
  8
LAYER_1
 10
507.9401890171033
 20
378.0519693895648
 30
0.0
 42
0.7848954716310448
  0
VERTEX
  5
1ED
  8
LAYER_1
 10
512.7996628879237
 20
378.1849623036503
 30
0.0
 42
0.0173159934617808
  0
VERTEX
  5
1EE
  8
LAYER_1
 10
512.8382736388314
 20
378.3997271132194
 30
0.0
 42
0.0263090166450533
  0
VERTEX
  5
1EF
  8
LAYER_1
 10
512.8512795800704
 20
378.542813054724
 30
0.0
 42
0.0058228282801811
  0
VERTEX
  5
1F0
  8
LAYER_1
 10
512.8535459461241
 20
378.6286549776296
 30
0.0
 42
-0.0058228282815184
  0
VERTEX
  5
1F1
  8
LAYER_1
 10
512.8558123121777
 20
378.7144969005352
 30
0.0
  0
SEQEND
  5
1F2
  8
LAYER_1
  0
POLYLINE
  5
60
  8
LAYER_1
 66
     1
 10
0.0
 20
0.0
 30
0.0
  0
VERTEX
  5
1F3
  8
LAYER_1
 10
512.8558123121777
 20
428.7145969005352
 30
0.0
 42
-0.0150244070948039
  0
VERTEX
  5
1F4
  8
LAYER_1
 10
512.8526592657939
 20
428.8385343495454
 30
0.0
 42
0.0370499987388968
  0
VERTEX
  5
1F5
  8
LAYER_1
 10
512.8440553628071
 20
428.9622129888573
 30
0.0
 42
0.045497451500169
  0
VERTEX
  5
1F6
  8
LAYER_1
 10
512.7024181283707
 20
429.5552208849311
 30
0.0
 42
0.1063597817293828
  0
VERTEX
  5
1F7
  8
LAYER_1
 10
512.188222391063
 20
430.4182893428141
 30
0.0
 42
0.783983778080312
  0
VERTEX
  5
1F8
  8
LAYER_1
 10
507.9401890171033
 20
428.0519693895648
 30
0.0
 42
0.7848954716310448
  0
VERTEX
  5
1F9
  8
LAYER_1
 10
512.7996628879237
 20
428.1849623036503
 30
0.0
 42
0.0173159934617808
  0
VERTEX
  5
1FA
  8
LAYER_1
 10
512.8382736388314
 20
428.3997271132194
 30
0.0
 42
0.0263090166450533
  0
VERTEX
  5
1FB
  8
LAYER_1
 10
512.8512795800704
 20
428.542813054724
 30
0.0
 42
0.0058228282801811
  0
VERTEX
  5
1FC
  8
LAYER_1
 10
512.8535459461241
 20
428.6286549776296
 30
0.0
 42
-0.0058228282815184
  0
VERTEX
  5
1FD
  8
LAYER_1
 10
512.8558123121777
 20
428.7144969005352
 30
0.0
  0
SEQEND
  5
1FE
  8
LAYER_1
  0
POLYLINE
  5
61
  8
LAYER_1
 66
     1
 10
0.0
 20
0.0
 30
0.0
  0
VERTEX
  5
1FF
  8
LAYER_1
 10
22.8558123121777
 20
528.7145969005352
 30
0.0
 42
-0.0150244070953897
  0
VERTEX
  5
200
  8
LAYER_1
 10
22.85265926579399
 20
528.8385343495451
 30
0.0
 42
0.0370499987384478
  0
VERTEX
  5
201
  8
LAYER_1
 10
22.84405536280723
 20
528.9622129888565
 30
0.0
 42
0.0454974515002131
  0
VERTEX
  5
202
  8
LAYER_1
 10
22.70241812837066
 20
529.5552208849307
 30
0.0
 42
0.1063597817292976
  0
VERTEX
  5
203
  8
LAYER_1
 10
22.18822239106304
 20
530.418289342814
 30
0.0
 42
0.7839837780803238
  0
VERTEX
  5
204
  8
LAYER_1
 10
17.9401890171042
 20
528.0519693895652
 30
0.0
 42
0.7848954716309563
  0
VERTEX
  5
205
  8
LAYER_1
 10
22.79966288792365
 20
528.1849623036502
 30
0.0
 42
0.0173159934619371
  0
VERTEX
  5
206
  8
LAYER_1
 10
22.83827363883166
 20
528.3997271132201
 30
0.0
 42
0.026309016645346
  0
VERTEX
  5
207
  8
LAYER_1
 10
22.85127958007046
 20
528.542813054724
 30
0.0
 42
0.005822828280933
  0
VERTEX
  5
208
  8
LAYER_1
 10
22.85354594612409
 20
528.6286549776296
 30
0.0
 42
-0.0058228282809743
  0
VERTEX
  5
209
  8
LAYER_1
 10
22.8558123121777
 20
528.7144969005352
 30
0.0
  0
SEQEND
  5
20A
  8
LAYER_1
  0
POLYLINE
  5
62
  8
LAYER_1
 66
     1
 10
0.0
 20
0.0
 30
0.0
  0
VERTEX
  5
20B
  8
LAYER_1
 10
22.8558123121777
 20
428.7145969005352
 30
0.0
 42
-0.0150244070953176
  0
VERTEX
  5
20C
  8
LAYER_1
 10
22.85265926579399
 20
428.8385343495449
 30
0.0
 42
0.0370499987383759
  0
VERTEX
  5
20D
  8
LAYER_1
 10
22.84405536280724
 20
428.9622129888564
 30
0.0
 42
0.0454974515001221
  0
VERTEX
  5
20E
  8
LAYER_1
 10
22.70241812837064
 20
429.5552208849309
 30
0.0
 42
0.1063597817293375
  0
VERTEX
  5
20F
  8
LAYER_1
 10
22.18822239106297
 20
430.4182893428141
 30
0.0
 42
0.7839837780802874
  0
VERTEX
  5
210
  8
LAYER_1
 10
17.9401890171046
 20
428.0519693895653
 30
0.0
 42
0.7848954716309391
  0
VERTEX
  5
211
  8
LAYER_1
 10
22.79966288792365
 20
428.1849623036503
 30
0.0
 42
0.017315993461921
  0
VERTEX
  5
212
  8
LAYER_1
 10
22.83827363883166
 20
428.3997271132203
 30
0.0
 42
0.0263090166453452
  0
VERTEX
  5
213
  8
LAYER_1
 10
22.85127958007046
 20
428.542813054724
 30
0.0
 42
0.0058228282809671
  0
VERTEX
  5
214
  8
LAYER_1
 10
22.85354594612409
 20
428.6286549776296
 30
0.0
 42
-0.0058228282809394
  0
VERTEX
  5
215
  8
LAYER_1
 10
22.8558123121777
 20
428.7144969005352
 30
0.0
  0
SEQEND
  5
216
  8
LAYER_1
  0
POLYLINE
  5
63
  8
LAYER_1
 66
     1
 10
0.0
 20
0.0
 30
0.0
  0
VERTEX
  5
217
  8
LAYER_1
 10
22.8558123121777
 20
378.7145969005352
 30
0.0
 42
-0.0150244070953176
  0
VERTEX
  5
218
  8
LAYER_1
 10
22.85265926579399
 20
378.8385343495449
 30
0.0
 42
0.0370499987383759
  0
VERTEX
  5
219
  8
LAYER_1
 10
22.84405536280724
 20
378.9622129888564
 30
0.0
 42
0.0454974515001221
  0
VERTEX
  5
21A
  8
LAYER_1
 10
22.70241812837064
 20
379.5552208849309
 30
0.0
 42
0.1063597817293375
  0
VERTEX
  5
21B
  8
LAYER_1
 10
22.18822239106297
 20
380.4182893428141
 30
0.0
 42
0.7839837780802874
  0
VERTEX
  5
21C
  8
LAYER_1
 10
17.9401890171046
 20
378.0519693895653
 30
0.0
 42
0.7848954716309391
  0
VERTEX
  5
21D
  8
LAYER_1
 10
22.79966288792365
 20
378.1849623036503
 30
0.0
 42
0.017315993461921
  0
VERTEX
  5
21E
  8
LAYER_1
 10
22.83827363883166
 20
378.3997271132203
 30
0.0
 42
0.0263090166453452
  0
VERTEX
  5
21F
  8
LAYER_1
 10
22.85127958007046
 20
378.542813054724
 30
0.0
 42
0.0058228282809671
  0
VERTEX
  5
220
  8
LAYER_1
 10
22.85354594612409
 20
378.6286549776296
 30
0.0
 42
-0.0058228282809394
  0
VERTEX
  5
221
  8
LAYER_1
 10
22.8558123121777
 20
378.7144969005352
 30
0.0
  0
SEQEND
  5
222
  8
LAYER_1
  0
POLYLINE
  5
64
  8
LAYER_1
 66
     1
 10
0.0
 20
0.0
 30
0.0
  0
VERTEX
  5
223
  8
LAYER_1
 10
22.8558123121777
 20
478.7145969005352
 30
0.0
 42
-0.0150244070953176
  0
VERTEX
  5
224
  8
LAYER_1
 10
22.85265926579399
 20
478.8385343495449
 30
0.0
 42
0.0370499987383759
  0
VERTEX
  5
225
  8
LAYER_1
 10
22.84405536280724
 20
478.9622129888564
 30
0.0
 42
0.0454974515001221
  0
VERTEX
  5
226
  8
LAYER_1
 10
22.70241812837064
 20
479.5552208849309
 30
0.0
 42
0.1063597817293375
  0
VERTEX
  5
227
  8
LAYER_1
 10
22.18822239106297
 20
480.4182893428141
 30
0.0
 42
0.7839837780802874
  0
VERTEX
  5
228
  8
LAYER_1
 10
17.9401890171046
 20
478.0519693895653
 30
0.0
 42
0.7848954716309391
  0
VERTEX
  5
229
  8
LAYER_1
 10
22.79966288792365
 20
478.1849623036503
 30
0.0
 42
0.017315993461921
  0
VERTEX
  5
22A
  8
LAYER_1
 10
22.83827363883166
 20
478.3997271132203
 30
0.0
 42
0.0263090166453452
  0
VERTEX
  5
22B
  8
LAYER_1
 10
22.85127958007046
 20
478.542813054724
 30
0.0
 42
0.0058228282809671
  0
VERTEX
  5
22C
  8
LAYER_1
 10
22.85354594612409
 20
478.6286549776296
 30
0.0
 42
-0.0058228282809394
  0
VERTEX
  5
22D
  8
LAYER_1
 10
22.8558123121777
 20
478.7144969005352
 30
0.0
  0
SEQEND
  5
22E
  8
LAYER_1
  0
POLYLINE
  5
65
  8
LAYER_1
 66
     1
 10
0.0
 20
0.0
 30
0.0
  0
VERTEX
  5
22F
  8
LAYER_1
 10
22.8558123121777
 20
328.7145969005352
 30
0.0
 42
-0.0150244070953361
  0
VERTEX
  5
230
  8
LAYER_1
 10
22.85265926579399
 20
328.8385343495449
 30
0.0
 42
0.0370499987384267
  0
VERTEX
  5
231
  8
LAYER_1
 10
22.84405536280724
 20
328.9622129888563
 30
0.0
 42
0.0454974515001194
  0
VERTEX
  5
232
  8
LAYER_1
 10
22.70241812837063
 20
329.5552208849309
 30
0.0
 42
0.1063597817293381
  0
VERTEX
  5
233
  8
LAYER_1
 10
22.18822239106291
 20
330.4182893428144
 30
0.0
 42
0.783983778080335
  0
VERTEX
  5
234
  8
LAYER_1
 10
17.94018901710339
 20
328.0519693895652
 30
0.0
 42
0.7848954716309386
  0
VERTEX
  5
235
  8
LAYER_1
 10
22.79966288792367
 20
328.1849623036504
 30
0.0
 42
0.0173159934618916
  0
VERTEX
  5
236
  8
LAYER_1
 10
22.83827363883167
 20
328.3997271132203
 30
0.0
 42
0.0263090166453699
  0
VERTEX
  5
237
  8
LAYER_1
 10
22.85127958007046
 20
328.542813054724
 30
0.0
 42
0.0058228282809671
  0
VERTEX
  5
238
  8
LAYER_1
 10
22.85354594612409
 20
328.6286549776296
 30
0.0
 42
-0.0058228282809394
  0
VERTEX
  5
239
  8
LAYER_1
 10
22.8558123121777
 20
328.7144969005352
 30
0.0
  0
SEQEND
  5
23A
  8
LAYER_1
  0
POLYLINE
  5
66
  8
LAYER_1
 66
     1
 10
0.0
 20
0.0
 30
0.0
 70
     1
  0
VERTEX
  5
23B
  8
LAYER_1
 10
484.8558123121777
 20
570.2145969005352
 30
0.0
  0
VERTEX
  5
23C
  8
LAYER_1
 10
481.8558123121777
 20
570.2145969005352
 30
0.0
  0
VERTEX
  5
23D
  8
LAYER_1
 10
481.8558123121777
 20
573.2145969005352
 30
0.0
  0
VERTEX
  5
23E
  8
LAYER_1
 10
484.8558123121777
 20
573.2145969005352
 30
0.0
  0
SEQEND
  5
23F
  8
LAYER_1
  0
POLYLINE
  5
67
  8
LAYER_1
 66
     1
 10
0.0
 20
0.0
 30
0.0
 70
     1
  0
VERTEX
  5
240
  8
LAYER_1
 10
484.8558123121777
 20
548.2145969005352
 30
0.0
  0
VERTEX
  5
241
  8
LAYER_1
 10
481.8558123121777
 20
548.2145969005352
 30
0.0
  0
VERTEX
  5
242
  8
LAYER_1
 10
481.8558123121777
 20
551.2145969005352
 30
0.0
  0
VERTEX
  5
243
  8
LAYER_1
 10
484.8558123121777
 20
551.2145969005352
 30
0.0
  0
SEQEND
  5
244
  8
LAYER_1
  0
POLYLINE
  5
68
  8
LAYER_1
 66
     1
 10
0.0
 20
0.0
 30
0.0
 70
     1
  0
VERTEX
  5
245
  8
LAYER_1
 10
45.8558123121777
 20
573.2145969005352
 30
0.0
  0
VERTEX
  5
246
  8
LAYER_1
 10
48.85581231217768
 20
573.2145969005352
 30
0.0
  0
VERTEX
  5
247
  8
LAYER_1
 10
48.85581231217768
 20
570.2145969005352
 30
0.0
  0
VERTEX
  5
248
  8
LAYER_1
 10
45.8558123121777
 20
570.2145969005352
 30
0.0
  0
SEQEND
  5
249
  8
LAYER_1
  0
POLYLINE
  5
69
  8
LAYER_1
 66
     1
 10
0.0
 20
0.0
 30
0.0
 70
     1
  0
VERTEX
  5
24A
  8
LAYER_1
 10
45.8558123121777
 20
551.2145969005352
 30
0.0
  0
VERTEX
  5
24B
  8
LAYER_1
 10
48.85581231217768
 20
551.2145969005352
 30
0.0
  0
VERTEX
  5
24C
  8
LAYER_1
 10
48.85581231217768
 20
548.2145969005352
 30
0.0
  0
VERTEX
  5
24D
  8
LAYER_1
 10
45.8558123121777
 20
548.2145969005352
 30
0.0
  0
SEQEND
  5
24E
  8
LAYER_1
  0
POLYLINE
  5
6A
  8
LAYER_1
 66
     1
 10
0.0
 20
0.0
 30
0.0
 70
     1
  0
VERTEX
  5
24F
  8
LAYER_1
 10
484.8366851645027
 20
560.9545364252785
 30
0.0
 42
0.6859467496897775
  0
VERTEX
  5
250
  8
LAYER_1
 10
482.1046047504683
 20
561.5264812534001
 30
0.0
 42
0.6856671917141334
  0
VERTEX
  5
251
  8
LAYER_1
 10
483.7434289288146
 20
559.2664086493246
 30
0.0
 42
0.1864738246262276
  0
VERTEX
  5
252
  8
LAYER_1
 10
484.6156953187544
 20
559.8989065820081
 30
0.0
 42
0.1862770875581042
  0
SEQEND
  5
253
  8
LAYER_1
  0
POLYLINE
  5
6B
  8
LAYER_1
 66
     1
 10
0.0
 20
0.0
 30
0.0
 70
     1
  0
VERTEX
  5
254
  8
LAYER_1
 10
48.83668516450275
 20
560.9545364252785
 30
0.0
 42
0.6859467496897748
  0
VERTEX
  5
255
  8
LAYER_1
 10
46.10460475046838
 20
561.5264812534001
 30
0.0
 42
0.6856671917141153
  0
VERTEX
  5
256
  8
LAYER_1
 10
47.74342892881461
 20
559.2664086493246
 30
0.0
 42
0.1864738246262362
  0
VERTEX
  5
257
  8
LAYER_1
 10
48.61569531875448
 20
559.8989065820081
 30
0.0
 42
0.18627708755808
  0
SEQEND
  5
258
  8
LAYER_1
  0
POLYLINE
  5
6C
  8
LAYER_1
 66
     1
 10
0.0
 20
0.0
 30
0.0
 70
     1
  0
VERTEX
  5
259
  8
LAYER_1
 10
515.3261050511367
 20
541.5198837431725
 30
0.0
 42
0.0915956201191665
  0
VERTEX
  5
25A
  8
LAYER_1
 10
513.6231168587116
 20
548.561999192789
 30
0.0
 42
0.0910237502965672
  0
VERTEX
  5
25B
  8
LAYER_1
 10
509.4979123121777
 20
554.5723969005352
 30
0.0
  0
VERTEX
  5
25C
  8
LAYER_1
 10
471.2137123121777
 20
592.8566969005352
 30
0.0
 42
0.037491326617132
  0
VERTEX
  5
25D
  8
LAYER_1
 10
468.6835181845854
 20
594.9824942723823
 30
0.0
 42
0.0749681628779292
  0
VERTEX
  5
25E
  8
LAYER_1
 10
463.4414591281567
 20
597.6727505551248
 30
0.0
 42
0.0406170829884305
  0
VERTEX
  5
25F
  8
LAYER_1
 10
460.3963810141801
 20
598.4286255199123
 30
0.0
 42
0.0381797357745573
  0
VERTEX
  5
260
  8
LAYER_1
 10
457.0715123121777
 20
598.7145969005352
 30
0.0
  0
VERTEX
  5
261
  8
LAYER_1
 10
73.64011231217768
 20
598.7145969005352
 30
0.0
 42
0.0352353101519369
  0
VERTEX
  5
262
  8
LAYER_1
 10
70.51995512294394
 20
598.4565612960869
 30
0.0
 42
0.0708048249737014
  0
VERTEX
  5
263
  8
LAYER_1
 10
65.19052579548966
 20
596.8410449404055
 30
0.0
 42
0.0569261379975293
  0
VERTEX
  5
264
  8
LAYER_1
 10
61.40305259455839
 20
594.521893521395
 30
0.0
 42
0.027574254891185
  0
VERTEX
  5
265
  8
LAYER_1
 10
59.49791231217768
 20
592.8566969005352
 30
0.0
  0
VERTEX
  5
266
  8
LAYER_1
 10
21.21371231217768
 20
554.5723969005352
 30
0.0
 42
0.0374873777514915
  0
VERTEX
  5
267
  8
LAYER_1
 10
19.08779372809268
 20
552.0420932093213
 30
0.0
 42
0.0749706326129704
  0
VERTEX
  5
268
  8
LAYER_1
 10
16.39754703000858
 20
546.8001783922873
 30
0.0
 42
0.0406221544995122
  0
VERTEX
  5
269
  8
LAYER_1
 10
15.64178023399257
 20
543.7554669252619
 30
0.0
 42
0.038176398558109
  0
VERTEX
  5
26A
  8
LAYER_1
 10
15.3558123121777
 20
540.4302969005353
 30
0.0
  0
VERTEX
  5
26B
  8
LAYER_1
 10
15.3558123121777
 20
323.7145969005352
 30
0.0
 42
0.0360603585816186
  0
VERTEX
  5
26C
  8
LAYER_1
 10
15.67660492408864
 20
319.8031205172255
 30
0.0
 42
0.0714406463453892
  0
VERTEX
  5
26D
  8
LAYER_1
 10
17.73161905509982
 20
313.0779245743856
 30
0.0
 42
0.1359828905377648
  0
VERTEX
  5
26E
  8
LAYER_1
 10
26.42302231430639
 20
302.955973122168
 30
0.0
 42
0.1359088380163952
  0
VERTEX
  5
26F
  8
LAYER_1
 10
39.090401442774
 20
298.7465939629153
 30
0.0
 42
0.0079916365858221
  0
VERTEX
  5
270
  8
LAYER_1
 10
39.74384541339941
 20
298.7239263176644
 30
0.0
 42
0.0040250970479396
  0
VERTEX
  5
271
  8
LAYER_1
 10
41.04187197645528
 20
298.7101115317886
 30
0.0
 42
0.0027112462701294
  0
VERTEX
  5
272
  8
LAYER_1
 10
44.90743529946586
 20
298.7210515577879
 30
0.0
 42
0.0377084398189637
  0
VERTEX
  5
273
  8
LAYER_1
 10
48.7238321588646
 20
299.0409774459788
 30
0.0
 42
0.1032714951616903
  0
VERTEX
  5
274
  8
LAYER_1
 10
58.21012250383404
 20
302.664031928944
 30
0.0
 42
0.1925762442554016
  0
VERTEX
  5
275
  8
LAYER_1
 10
69.00026134954729
 20
317.789065606636
 30
0.0
 42
0.0061278010965208
  0
VERTEX
  5
276
  8
LAYER_1
 10
69.13132482413533
 20
318.3567189087188
 30
0.0
 42
0.0055639610236898
  0
VERTEX
  5
277
  8
LAYER_1
 10
69.26101231217768
 20
318.9850969005352
 30
0.0
  0
VERTEX
  5
278
  8
LAYER_1
 10
81.03561231217768
 20
380.1023969005352
 30
0.0
 42
-0.0232565688362337
  0
VERTEX
  5
279
  8
LAYER_1
 10
82.26675702541407
 20
385.0528035322025
 30
0.0
 42
-0.0462291217710062
  0
VERTEX
  5
27A
  8
LAYER_1
 10
85.67666504445617
 20
393.5249129858736
 30
0.0
 42
-0.071670886430256
  0
VERTEX
  5
27B
  8
LAYER_1
 10
93.91160941422592
 20
405.1054694796327
 30
0.0
 42
-0.0712927901190841
  0
VERTEX
  5
27C
  8
LAYER_1
 10
105.1328123121777
 20
413.9447969005352
 30
0.0
  0
VERTEX
  5
27D
  8
LAYER_1
 10
165.3558123121777
 20
448.7145969005352
 30
0.0
  0
VERTEX
  5
27E
  8
LAYER_1
 10
365.3558123121777
 20
448.7145969005352
 30
0.0
  0
VERTEX
  5
27F
  8
LAYER_1
 10
425.5788123121777
 20
413.9447969005352
 30
0.0
 42
-0.0236225795102849
  0
VERTEX
  5
280
  8
LAYER_1
 10
429.9191460889369
 20
411.1144157095478
 30
0.0
 42
-0.046962412172711
  0
VERTEX
  5
281
  8
LAYER_1
 10
436.8991959339179
 20
405.0053890167303
 30
0.0
 42
-0.0711068814912558
  0
VERTEX
  5
282
  8
LAYER_1
 10
445.0454108016463
 20
393.4979815068741
 30
0.0
 42
-0.0707301208482702
  0
VERTEX
  5
283
  8
LAYER_1
 10
449.6759123121777
 20
380.1023969005352
 30
0.0
  0
VERTEX
  5
284
  8
LAYER_1
 10
461.4505123121777
 20
318.9850969005352
 30
0.0
 42
0.0351819381715537
  0
VERTEX
  5
285
  8
LAYER_1
 10
462.4763514621224
 20
315.2793691244486
 30
0.0
 42
0.0700883446411531
  0
VERTEX
  5
286
  8
LAYER_1
 10
465.6510113737117
 20
309.1865510477156
 30
0.0
 42
0.1132165073774011
  0
VERTEX
  5
287
  8
LAYER_1
 10
474.0226438530674
 20
301.7692206873376
 30
0.0
 42
0.113260202606298
  0
VERTEX
  5
288
  8
LAYER_1
 10
484.7862195598501
 20
298.7439285146122
 30
0.0
 42
0.009574280563166
  0
VERTEX
  5
289
  8
LAYER_1
 10
485.8523882596151
 20
298.712690200563
 30
0.0
 42
0.0052833645077996
  0
VERTEX
  5
28A
  8
LAYER_1
 10
490.3558123121777
 20
298.7145969005352
 30
0.0
 42
0.0297527442643352
  0
VERTEX
  5
28B
  8
LAYER_1
 10
493.7282256874074
 20
298.9526720266587
 30
0.0
 42
0.0610807949649085
  0
VERTEX
  5
28C
  8
LAYER_1
 10
499.4903890034104
 20
300.436127828128
 30
0.0
 42
0.1381199641630139
  0
VERTEX
  5
28D
  8
LAYER_1
 10
510.2897726307622
 20
308.6201490838794
 30
0.0
 42
0.1381512798941254
  0
VERTEX
  5
28E
  8
LAYER_1
 10
515.2295151222849
 20
321.23457424883
 30
0.0
 42
0.0119478087058129
  0
VERTEX
  5
28F
  8
LAYER_1
 10
515.3156233997194
 20
322.3839082981231
 30
0.0
 42
0.0103448754601395
  0
VERTEX
  5
290
  8
LAYER_1
 10
515.3558123121777
 20
323.7143969005352
 30
0.0
  0
VERTEX
  5
291
  8
LAYER_1
 10
515.3558123121777
 20
540.4302969005344
 30
0.0
 42
0.0062486802222939
  0
VERTEX
  5
292
  8
LAYER_1
 10
515.3474076600631
 20
540.9996474203905
 30
0.0
 42
0.0068336730144339
  0
SEQEND
  5
293
  8
LAYER_1
  0
POLYLINE
  5
6D
  8
LAYER_1
 66
     1
 10
0.0
 20
0.0
 30
0.0
 70
     1
  0
VERTEX
  5
294
  8
LAYER_1
 10
367.3210832505628
 20
400.9947420793287
 30
0.0
  0
VERTEX
  5
295
  8
LAYER_1
 10
367.3210832505628
 20
392.9947420793607
 30
0.0
  0
VERTEX
  5
296
  8
LAYER_1
 10
364.3210832505748
 20
392.9947420793607
 30
0.0
  0
VERTEX
  5
297
  8
LAYER_1
 10
364.3210832505748
 20
394.4947420793548
 30
0.0
  0
VERTEX
  5
298
  8
LAYER_1
 10
361.8210832505848
 20
394.4947420793548
 30
0.0
  0
VERTEX
  5
299
  8
LAYER_1
 10
361.8210832505848
 20
392.9947420793607
 30
0.0
 42
-0.0008423199523077
  0
VERTEX
  5
29A
  8
LAYER_1
 10
360.2210466388282
 20
393.0023957770964
 30
0.0
 42
0.0128015568516889
  0
VERTEX
  5
29B
  8
LAYER_1
 10
359.8210832505929
 20
392.9947420793607
 30
0.0
 42
0.1244622316576625
  0
VERTEX
  5
29C
  8
LAYER_1
 10
359.3147420628449
 20
392.8423265719152
 30
0.0
 42
0.2435906828624953
  0
VERTEX
  5
29D
  8
LAYER_1
 10
358.8223116197375
 20
392.0443268205754
 30
0.0
 42
0.012419247631992
  0
VERTEX
  5
29E
  8
LAYER_1
 10
358.8195727271846
 20
391.9897831879154
 30
0.0
 42
0.0038677934950232
  0
VERTEX
  5
29F
  8
LAYER_1
 10
358.8164870697293
 20
391.8144778378283
 30
0.0
 42
0.0125292373257947
  0
VERTEX
  5
2A0
  8
LAYER_1
 10
358.8296709526325
 20
390.9467793142269
 30
0.0
 42
0.2213545700337052
  0
VERTEX
  5
2A1
  8
LAYER_1
 10
359.2131862578403
 20
390.2027449164477
 30
0.0
 42
0.0825612957489189
  0
VERTEX
  5
2A2
  8
LAYER_1
 10
359.4950456837788
 20
390.0507969631999
 30
0.0
 42
0.0798779304975764
  0
VERTEX
  5
2A3
  8
LAYER_1
 10
359.8210832505929
 20
389.9947420793727
 30
0.0
 42
0.0027114353285871
  0
VERTEX
  5
2A4
  8
LAYER_1
 10
360.2655245831282
 20
389.9923319137925
 30
0.0
 42
0.0007746940645558
  0
VERTEX
  5
2A5
  8
LAYER_1
 10
361.8210832505848
 20
389.9947420793727
 30
0.0
  0
VERTEX
  5
2A6
  8
LAYER_1
 10
361.8210832505848
 20
388.4947420793787
 30
0.0
  0
VERTEX
  5
2A7
  8
LAYER_1
 10
364.3210832505748
 20
388.4947420793787
 30
0.0
  0
VERTEX
  5
2A8
  8
LAYER_1
 10
364.3210832505748
 20
389.9947420793727
 30
0.0
  0
VERTEX
  5
2A9
  8
LAYER_1
 10
367.3210832505628
 20
389.9947420793727
 30
0.0
  0
VERTEX
  5
2AA
  8
LAYER_1
 10
367.3210832505628
 20
381.9947420794048
 30
0.0
 42
0.0003873469745623
  0
VERTEX
  5
2AB
  8
LAYER_1
 10
368.9210841723936
 20
381.997964812284
 30
0.0
 42
-0.0011620413875169
  0
VERTEX
  5
2AC
  8
LAYER_1
 10
370.5210881670027
 20
381.9987085203475
 30
0.0
 42
-0.0039191831304273
  0
VERTEX
  5
2AD
  8
LAYER_1
 10
371.336337346657
 20
381.9908023189794
 30
0.0
 42
-0.1880872663105535
  0
VERTEX
  5
2AE
  8
LAYER_1
 10
372.0132683898574
 20
381.7130477773756
 30
0.0
 42
-0.0952182572002201
  0
VERTEX
  5
2AF
  8
LAYER_1
 10
372.2232766582841
 20
381.4187164477371
 30
0.0
 42
-0.0889414981176372
  0
VERTEX
  5
2B0
  8
LAYER_1
 10
372.3198537827693
 20
381.0443268206195
 30
0.0
 42
-0.0124212635908187
  0
VERTEX
  5
2B1
  8
LAYER_1
 10
372.3226423674543
 20
380.9888215754748
 30
0.0
 42
-0.0038863386613098
  0
VERTEX
  5
2B2
  8
LAYER_1
 10
372.3257651347627
 20
380.8112477396337
 30
0.0
 42
-0.0126445482423625
  0
VERTEX
  5
2B3
  8
LAYER_1
 10
372.3123722958351
 20
379.9459484381948
 30
0.0
 42
-0.2209656399090361
  0
VERTEX
  5
2B4
  8
LAYER_1
 10
371.9296306082966
 20
379.2029999873936
 30
0.0
 42
-0.0827931655085356
  0
VERTEX
  5
2B5
  8
LAYER_1
 10
371.6472829174857
 20
379.0506034819632
 30
0.0
 42
-0.0802337105930271
  0
VERTEX
  5
2B6
  8
LAYER_1
 10
371.3210832505467
 20
378.9947420794167
 30
0.0
  0
VERTEX
  5
2B7
  8
LAYER_1
 10
163.3210832513788
 20
378.9947420794167
 30
0.0
 42
-0.1248555979285842
  0
VERTEX
  5
2B8
  8
LAYER_1
 10
162.8150659909705
 20
379.1466326519394
 30
0.0
 42
-0.2435906828626734
  0
VERTEX
  5
2B9
  8
LAYER_1
 10
162.3223116205234
 20
379.945157338202
 30
0.0
 42
-0.0124192476313369
  0
VERTEX
  5
2BA
  8
LAYER_1
 10
162.3195727279708
 20
379.9997009708558
 30
0.0
 42
-0.0038677934945044
  0
VERTEX
  5
2BB
  8
LAYER_1
 10
162.3164870705158
 20
380.1750063209293
 30
0.0
 42
-0.012529237324742
  0
VERTEX
  5
2BC
  8
LAYER_1
 10
162.3296709534172
 20
381.0427048445448
 30
0.0
 42
-0.2213545700347795
  0
VERTEX
  5
2BD
  8
LAYER_1
 10
162.7131862586257
 20
381.7867392423295
 30
0.0
 42
-0.1671988368872686
  0
VERTEX
  5
2BE
  8
LAYER_1
 10
163.3382799908053
 20
381.9993457398355
 30
0.0
 42
0.0013366472171198
  0
VERTEX
  5
2BF
  8
LAYER_1
 10
164.1210783349229
 20
381.9987085203476
 30
0.0
 42
-0.0011620413875879
  0
VERTEX
  5
2C0
  8
LAYER_1
 10
165.721082329532
 20
381.997964812284
 30
0.0
 42
0.0003873469742781
  0
VERTEX
  5
2C1
  8
LAYER_1
 10
167.3210832513628
 20
381.9947420794048
 30
0.0
  0
VERTEX
  5
2C2
  8
LAYER_1
 10
167.3210832513628
 20
389.9947420793727
 30
0.0
  0
VERTEX
  5
2C3
  8
LAYER_1
 10
170.3210832513508
 20
389.9947420793727
 30
0.0
  0
VERTEX
  5
2C4
  8
LAYER_1
 10
170.3210832513508
 20
388.4947420793787
 30
0.0
  0
VERTEX
  5
2C5
  8
LAYER_1
 10
172.8210832513408
 20
388.4947420793787
 30
0.0
  0
VERTEX
  5
2C6
  8
LAYER_1
 10
172.8210832513408
 20
389.9947420793727
 30
0.0
 42
-0.000819588469966
  0
VERTEX
  5
2C7
  8
LAYER_1
 10
174.4211201023186
 20
389.9870634176264
 30
0.0
 42
0.0128178307400273
  0
VERTEX
  5
2C8
  8
LAYER_1
 10
174.8210832513328
 20
389.9947420793727
 30
0.0
 42
0.1241871660353069
  0
VERTEX
  5
2C9
  8
LAYER_1
 10
175.327345822057
 20
390.1468872555294
 30
0.0
 42
0.2436343640888516
  0
VERTEX
  5
2CA
  8
LAYER_1
 10
175.8197821008162
 20
390.9432808702625
 30
0.0
 42
0.0124812222901342
  0
VERTEX
  5
2CB
  8
LAYER_1
 10
175.8225579645637
 20
390.9977991541629
 30
0.0
 42
0.0039362623027494
  0
VERTEX
  5
2CC
  8
LAYER_1
 10
175.8256797041425
 20
391.1708389118718
 30
0.0
 42
0.0124109897856994
  0
VERTEX
  5
2CD
  8
LAYER_1
 10
175.8129246819036
 20
392.0411559974458
 30
0.0
 42
0.2215577741397577
  0
VERTEX
  5
2CE
  8
LAYER_1
 10
175.4289756598434
 20
392.7867409400801
 30
0.0
 42
0.0825613436436986
  0
VERTEX
  5
2CF
  8
LAYER_1
 10
175.14711853013
 20
392.9386876208435
 30
0.0
 42
0.0798778826236873
  0
VERTEX
  5
2D0
  8
LAYER_1
 10
174.8210832513328
 20
392.9947420793607
 30
0.0
 42
0.0027114353279982
  0
VERTEX
  5
2D1
  8
LAYER_1
 10
174.3766419187847
 20
392.9971522449407
 30
0.0
 42
0.000774694064562
  0
VERTEX
  5
2D2
  8
LAYER_1
 10
172.8210832513408
 20
392.9947420793607
 30
0.0
  0
VERTEX
  5
2D3
  8
LAYER_1
 10
172.8210832513408
 20
394.4947420793548
 30
0.0
  0
VERTEX
  5
2D4
  8
LAYER_1
 10
170.3210832513508
 20
394.4947420793548
 30
0.0
  0
VERTEX
  5
2D5
  8
LAYER_1
 10
170.3210832513508
 20
392.9947420793607
 30
0.0
  0
VERTEX
  5
2D6
  8
LAYER_1
 10
167.3210832513628
 20
392.9947420793607
 30
0.0
  0
VERTEX
  5
2D7
  8
LAYER_1
 10
167.3210832513628
 20
400.9947420793287
 30
0.0
 42
0.0003873469744202
  0
VERTEX
  5
2D8
  8
LAYER_1
 10
165.721082329532
 20
400.9915193464495
 30
0.0
 42
-0.0011620413875168
  0
VERTEX
  5
2D9
  8
LAYER_1
 10
164.1210783349229
 20
400.990775638386
 30
0.0
 42
-0.003919999494564
  0
VERTEX
  5
2DA
  8
LAYER_1
 10
163.3058203944335
 20
400.9986832559152
 30
0.0
 42
-0.1880868095012617
  0
VERTEX
  5
2DB
  8
LAYER_1
 10
162.628876570091
 20
401.2764449265555
 30
0.0
 42
-0.0952230301038386
  0
VERTEX
  5
2DC
  8
LAYER_1
 10
162.4188785700688
 20
401.5707686877822
 30
0.0
 42
-0.0889437307959157
  0
VERTEX
  5
2DD
  8
LAYER_1
 10
162.3223116205234
 20
401.9451573381141
 30
0.0
 42
-0.0124192476313111
  0
VERTEX
  5
2DE
  8
LAYER_1
 10
162.3195727279708
 20
401.999700970768
 30
0.0
 42
-0.0038677934945013
  0
VERTEX
  5
2DF
  8
LAYER_1
 10
162.3164870705158
 20
402.1750063208419
 30
0.0
 42
-0.0125292373247795
  0
VERTEX
  5
2E0
  8
LAYER_1
 10
162.3296709534173
 20
403.042704844457
 30
0.0
 42
-0.2213545700347369
  0
VERTEX
  5
2E1
  8
LAYER_1
 10
162.7131862586258
 20
403.7867392422415
 30
0.0
 42
-0.0825612957487143
  0
VERTEX
  5
2E2
  8
LAYER_1
 10
162.9957523103149
 20
403.9390681312562
 30
0.0
 42
-0.0802677609942557
  0
VERTEX
  5
2E3
  8
LAYER_1
 10
163.3210832513788
 20
403.9947420793168
 30
0.0
  0
VERTEX
  5
2E4
  8
LAYER_1
 10
371.3210832505467
 20
403.9947420793168
 30
0.0
 42
-0.1248580028345118
  0
VERTEX
  5
2E5
  8
LAYER_1
 10
371.8270877664701
 20
403.8428527053016
 30
0.0
 42
-0.243580412677796
  0
VERTEX
  5
2E6
  8
LAYER_1
 10
372.3198537827693
 20
403.0443268205314
 30
0.0
 42
-0.0124212635910829
  0
VERTEX
  5
2E7
  8
LAYER_1
 10
372.3226423674473
 20
402.9888215755253
 30
0.0
 42
-0.0038863386597955
  0
VERTEX
  5
2E8
  8
LAYER_1
 10
372.3257651347506
 20
402.8112477400242
 30
0.0
 42
-0.012644548083633
  0
VERTEX
  5
2E9
  8
LAYER_1
 10
372.3123722961114
 20
401.9459484389573
 30
0.0
 42
-0.2209656393889583
  0
VERTEX
  5
2EA
  8
LAYER_1
 10
371.9296306103885
 20
401.202999988695
 30
0.0
 42
-0.1674680109556218
  0
VERTEX
  5
2EB
  8
LAYER_1
 10
371.3044213474594
 20
400.9900434945164
 30
0.0
 42
0.0013653875759778
  0
VERTEX
  5
2EC
  8
LAYER_1
 10
370.5210883646018
 20
400.9906974754128
 30
0.0
 42
-0.0011849405833559
  0
VERTEX
  5
2ED
  8
LAYER_1
 10
368.9210842100443
 20
400.9914558390572
 30
0.0
 42
0.0003949800303353
  0
SEQEND
  5
2EE
  8
LAYER_1
  0
ENDSEC
  0
EOF
